/* XPM */
static char *_f32777bc2df4e2186685d0abf401994IVOAgRmcf5JjimW4[] = {
/* columns rows colors chars-per-pixel */
"32 32 3 1 ",
"  c None",
". c black",
"X c white",
/* pixels */
"                                ",
"                                ",
"                                ",
"                                ",
"                                ",
"                                ",
"                                ",
"                                ",
"                                ",
"                                ",
"             .......            ",
"           ..XXXXXXX..          ",
"          .XXXXXXXXXXX.         ",
"         .XXXXXX.XXXXXX.        ",
"        .XX.XXXXXXXXX.XX.       ",
"        .XXXXXXXXXXXXXXX.       ",
"       .XXXXXXXXXX.XXXXXX.      ",
"       .XXXXX.XXXXXXXXXXX.      ",
"       .XXXXXXXXXXXXXXXXX.      ",
"       .XXXXXXXXXXXXXX.XX.      ",
"       .XX.XXXXXXXXXXXXXX.      ",
"       .XXXXXXXXXXX.XXXXX.      ",
"        .XXXXXXXXXXXXXXX.       ",
"        .XXXXXX.XXXXXXXX.       ",
"         .XXXXXXXXXX.XX.        ",
"          .XXXXXXXXXXX.         ",
"           ..XXXXXXX..          ",
"             .......            ",
"               .X.              ",
"               .X.              ",
"               .X.              ",
"               ...              "
};
