/* XPM */
static char *result[] = {
/* columns rows colors chars-per-pixel */
"40 40 136 2 ",
"   c #180126",
".  c #190027",
"X  c #1C0127",
"o  c #1D0327",
"O  c #1D0426",
"+  c #1E0427",
"@  c #1E0328",
"#  c #1D0429",
"$  c #1F0428",
"%  c #200428",
"&  c #200529",
"*  c #240829",
"=  c #27092A",
"-  c #290A29",
";  c #2E0D2D",
":  c #300E2D",
">  c #300F2D",
",  c #36152F",
"<  c #38132D",
"1  c #291332",
"2  c #321033",
"3  c #351236",
"4  c #3C1731",
"5  c #311933",
"6  c #341C33",
"7  c #421928",
"8  c #41182D",
"9  c #411930",
"0  c #421A30",
"q  c #411C3D",
"w  c #4E202C",
"e  c #5E2A2D",
"r  c #4F2330",
"t  c #4F2133",
"y  c #4F2233",
"u  c #542435",
"i  c #522937",
"p  c #58273B",
"a  c #502F38",
"s  c #532A3F",
"d  c #5C3033",
"f  c #632C2F",
"g  c #692C33",
"h  c #6D3433",
"j  c #7D3D35",
"k  c #783B3D",
"l  c #3B2F41",
"z  c #481E45",
"x  c #4F2443",
"c  c #572B44",
"v  c #443040",
"b  c #4E3A41",
"n  c #4D3E45",
"m  c #583E41",
"M  c #643243",
"N  c #7F3F4D",
"B  c #622F55",
"V  c #6F375A",
"C  c #73395D",
"Z  c #7B3E62",
"A  c #50424A",
"S  c #52484D",
"D  c #5B5050",
"F  c #6A4843",
"G  c #7F5A4E",
"H  c #695351",
"J  c #615F5A",
"K  c #66655E",
"L  c #676861",
"P  c #6F6F64",
"I  c #84423F",
"U  c #89453E",
"Y  c #90483A",
"T  c #8B4540",
"R  c #9D4F43",
"E  c #9A4E44",
"W  c #884553",
"Q  c #90525C",
"!  c #AA5946",
"~  c #B65F45",
"^  c #B25D49",
"/  c #826054",
"(  c #B1664D",
")  c #AB7353",
"_  c #AE7C57",
"`  c #96506C",
"'  c #9E5475",
"]  c #A75B6F",
"[  c #A5606D",
"{  c #AE6A6B",
"}  c #BF6778",
"|  c #C16648",
" . c #C3684A",
".. c #C96C51",
"X. c #C7795F",
"o. c #D07350",
"O. c #DF7953",
"+. c #E47D54",
"@. c #E77D55",
"#. c #EA7E55",
"$. c #DB7664",
"%. c #DF7767",
"&. c #C46A7B",
"*. c #DD8C5C",
"=. c #E58257",
"-. c #EB8056",
";. c #EE8357",
":. c #E98458",
">. c #EA8558",
",. c #EA895A",
"<. c #EA8C5B",
"1. c #F28558",
"2. c #E6925E",
"3. c #EB925D",
"4. c #EB9760",
"5. c #EB9C61",
"6. c #F19D63",
"7. c #EAA064",
"8. c #EBA566",
"9. c #EAA968",
"0. c #EAAD6A",
"q. c #EBAE6A",
"w. c #F3A063",
"e. c #F3A666",
"r. c #F4A867",
"t. c #E8B16B",
"y. c #EAB06B",
"u. c #EAB16B",
"i. c #EBB26C",
"p. c #F2B56D",
"a. c #AD5D83",
"s. c #B36186",
"d. c #BE6D80",
"f. c #CB7280",
"g. c #D18080",
"h. c None",
/* pixels */
"h.h.h.h.h.h.h.h.h.h.h.h.  . . . . . . . . . . . . . .   h.h.h.h.h.h.h.h.h.h.h.h.",
"h.h.h.h.h.h.h.h.h.h.h.4 9 0 0 0 0 0 0 0 0 0 0 0 0 0 0 9 4 h.h.h.h.h.h.h.h.h.h.h.",
"h.h.h.h.h.h.h.h.h.h.& p T R R R R R R R R R R R R R R T p & h.h.h.h.h.h.h.h.h.h.",
"h.h.h.h.h.h.h.h.h.: < k ..:.>.=.=.=.=.=.=.=.=.=.=.>.:...k < : h.h.h.h.h.h.h.h.h.",
"h.h.h.h.h.h.h.h.: p I ( *.w.w.6.6.6.6.6.6.6.6.6.6.w.w.*.( I p : h.h.h.h.h.h.h.h.",
"h.h.h.h.h.h.h.% 8 U o.2.8.q.q.0.0.0.0.0.0.0.0.0.0.q.q.8.2.o.U 8 % h.h.h.h.h.h.h.",
"h.h.h.h.h.h.: u I ( 2.e.q.i.i.i.i.i.i.i.i.i.i.i.i.i.i.q.e.2.( I u : h.h.h.h.h.h.",
"h.h.h.h.h.O t E o.2.8.q.y.y.y.y.y.y.y.y.y.y.y.y.y.y.y.y.q.8.2.o.E t O h.h.h.h.h.",
"h.h.h.h.h.@ i ( 4.r.q.i.u.y.y.y.y.y.y.y.y.y.y.y.y.y.y.u.i.q.r.4.( i @ h.h.h.h.h.",
"h.h.h.h.h.@ i ) 9.p.y.u.y.y.y.y.y.y.y.y.y.y.y.y.y.y.y.y.u.y.p.9.) i @ h.h.h.h.h.",
"h.h.h.h.  $ a _ t.p.y.y.y.y.y.y.y.y.y.y.y.y.y.y.y.y.y.y.y.y.p.t._ a $   h.h.h.h.",
"o o o o   + a _ t.p.y.y.y.y.y.y.y.y.y.y.y.y.y.y.y.y.y.y.y.y.p.t._ a +   o o o o ",
"$ = ; 2 2 2 M _ 9.i.y.y.y.y.y.y.y.y.y.y.y.y.y.y.y.y.y.y.y.y.i.9._ M 2 2 2 ; = $ ",
"$ ; x V Z Z Q X.4.8.q.u.y.y.y.y.y.y.y.y.y.y.y.y.y.y.y.y.u.q.8.4.X.Q Z Z V x ; $ ",
"+ 3 V ' a.a.} $.,.5.0.i.y.y.y.y.y.y.y.y.y.y.y.y.y.y.y.y.i.0.5.,.$.} a.a.' V 3 + ",
"# : p V ` s.f.%.>.5.q.i.u.y.y.y.y.y.y.y.y.y.y.y.y.y.y.u.i.q.5.>.%.f.s.` V p : # ",
"h.h.: 3 B ' &.$.>.5.9.u.y.y.y.y.y.y.y.y.y.y.y.y.y.y.y.y.u.9.5.>.$.&.' B 3 : h.h.",
"h.h.h.* z C ` ..:.3.5.9.q.i.i.u.u.y.y.y.y.y.y.u.u.i.i.q.9.5.3.:...` C z * h.h.h.",
"h.h.h.h.# > M ^ -.1.,.4.9.u.u.y.y.y.y.y.y.y.y.y.y.u.u.9.4.,.1.-.^ M > # h.h.h.h.",
"h.h.h.h.h.@ r ! -.1.-.<.5.8.8.8.9.y.u.u.u.u.y.9.8.8.8.5.<.-.1.-.! r @ h.h.h.h.h.",
"h.h.h.h.h.@ r ! ;.1.-.:.,.<.<.3.7.q.i.i.i.i.q.7.3.<.<.,.:.-.1.;.! r @ h.h.h.h.h.",
"h.h.h.h.h.o y E ..O.#.-.-.#.#.:.3.8.9.9.9.9.8.3.:.#.#.-.-.#.O...E y o h.h.h.h.h.",
"h.h.h.h.h.h.4 p k ^ +.1.-.#.#.-.,.3.3.3.3.3.3.,.-.#.#.-.1.+.^ k p 4 h.h.h.h.h.h.",
"h.h.h.h.h.h.h.O 0 U o.#.-.-.-.-.-.-.-.-.-.-.-.-.-.-.-.-.#.o.U 0 O h.h.h.h.h.h.h.",
"h.h.h.h.h.h.* > 7 h R  .+.1.1.;.-.#.#.#.#.#.#.-.;.1.1.+. .R h 7 > * h.h.h.h.h.h.",
"h.h.h.h.h.- 2 w e f h R ..+.@.+.@.-.-.-.-.-.-.@.+.@.+...R h f e w 2 - h.h.h.h.h.",
"h.h.h.h.h.$ , M N h e h U R ! ~ o.#.1.;.;.1.#.o.~ ! R U h e h N M , $ h.h.h.h.h.",
"h.h.h.h.h.@ q Z ' W f w 0 0 e j ^ O.;.-.-.;.O.^ j e 0 0 w f W ' Z q @ h.h.h.h.h.",
"h.h.h.h.h.@ x ` d.] N x = = 7 f Y ~ | | | | ~ Y f 7 = = x N ] d.` x @ h.h.h.h.h.",
"h.h.h.h.h.@ x [ g.f.] V 2 = 7 e h j j j j j j h e 7 = 2 V ] f.g.[ x @ h.h.h.h.h.",
"h.h.h.h.h.% u Q { [ ` V q 6 r d d d d d d d d d d r 6 q V ` [ { Q u % h.h.h.h.h.",
"h.h.h.h.h.h.4 s c c x x v b b m m m m m m m m m m b b v x x c c s 4 h.h.h.h.h.h.",
"h.h.h.h.h.h.h.& $ + = 6 n D D D D D S A A S D D D D D n 6 = + $ & h.h.h.h.h.h.h.",
"h.h.h.h.h.h.h.h.# O + 6 n D J K L K D v v D K L K J D n 6 + O # h.h.h.h.h.h.h.h.",
"h.h.h.h.h.h.h.h.h.X + 6 b D K P P L S 5 5 S L P P K D b 6 + X h.h.h.h.h.h.h.h.h.",
"h.h.h.h.h.h.h.h.h.  + , a F G / H A l 1 1 l A H / G F a , +   h.h.h.h.h.h.h.h.h.",
"h.h.h.h.h.h.h.h.h.  $ , r h U U d 5 * h.h.* 5 d U U h r , $   h.h.h.h.h.h.h.h.h.",
"h.h.h.h.h.h.h.h.h.h.& - 8 w f g u * h.h.h.h.* u g f w 8 - & h.h.h.h.h.h.h.h.h.h.",
"h.h.h.h.h.h.h.h.h.h.h.h.> ; ; < : h.h.h.h.h.h.: < ; ; > h.h.h.h.h.h.h.h.h.h.h.h.",
"h.h.h.h.h.h.h.h.h.h.h.h.  $ $ $ h.h.h.h.h.h.h.h.$ $ $   h.h.h.h.h.h.h.h.h.h.h.h."
};
