/* XPM */
static char *result[] = {
/* columns rows colors chars-per-pixel */
"40 40 132 2 ",
"   c #170025",
".  c #1A0127",
"X  c #1A0327",
"o  c #1C0226",
"O  c #1E0327",
"+  c #1E0427",
"@  c #1E0428",
"#  c #1F0528",
"$  c #1F0429",
"%  c #1F0529",
"&  c #1F052A",
"*  c #2E0D27",
"=  c #240728",
"-  c #24082A",
";  c #26082A",
":  c #250A2B",
">  c #260C2B",
",  c #2C0C2F",
"<  c #331029",
"1  c #37132B",
"2  c #32102E",
"3  c #331133",
"4  c #3A1432",
"5  c #3B1532",
"6  c #3A1533",
"7  c #301933",
"8  c #351930",
"9  c #341F36",
"0  c #3E1935",
"q  c #3C273A",
"w  c #43192A",
"e  c #42192F",
"r  c #4B1E2B",
"t  c #58282E",
"y  c #5F2A2C",
"u  c #4F2133",
"i  c #4F2233",
"p  c #502332",
"a  c #592735",
"s  c #512E38",
"d  c #4B353F",
"f  c #5C3133",
"g  c #5E3D3D",
"h  c #622D2E",
"j  c #602A36",
"k  c #6F3433",
"l  c #7B3B34",
"z  c #7E3D35",
"x  c #783B3D",
"c  c #461D40",
"v  c #481E44",
"b  c #4D2A46",
"n  c #512348",
"m  c #56274B",
"M  c #453140",
"N  c #4E3C44",
"B  c #663043",
"V  c #623842",
"C  c #7C3D4C",
"Z  c #622E54",
"A  c #6C3559",
"S  c #73395D",
"D  c #763A5F",
"F  c #773B5F",
"G  c #504047",
"H  c #594042",
"J  c #54464A",
"K  c #584A4C",
"L  c #5B4F4F",
"P  c #81403E",
"I  c #8B453D",
"U  c #864346",
"Y  c #8B4540",
"T  c #974E44",
"R  c #9C4F43",
"E  c #9F5044",
"W  c #A65744",
"Q  c #AC5948",
"!  c #B15D44",
"~  c #B65F45",
"^  c #B25E4B",
"/  c #AF644C",
"(  c #B6694E",
")  c #AB7353",
"_  c #AB7C56",
"`  c #B37B59",
"'  c #834365",
"]  c #8C496E",
"[  c #985160",
"{  c #934D71",
"}  c #A05577",
"|  c #C26749",
" . c #D0704E",
".. c #C96C52",
"X. c #C7795F",
"o. c #D07552",
"O. c #DE7953",
"+. c #E67D54",
"@. c #EA7F55",
"#. c #D97664",
"$. c #DE7766",
"%. c #C26879",
"&. c #DD8C5C",
"*. c #E58257",
"=. c #EB8056",
"-. c #ED8156",
";. c #EF8357",
":. c #EA8458",
">. c #EA895A",
",. c #EA8C5B",
"<. c #F38558",
"1. c #E6925E",
"2. c #EB915D",
"3. c #EB965F",
"4. c #EB9C61",
"5. c #F29E63",
"6. c #EAA466",
"7. c #EBA766",
"8. c #EAA968",
"9. c #EAAB69",
"0. c #EAAE6A",
"q. c #ECAF6A",
"w. c #F4A766",
"e. c #E8B16B",
"r. c #EAB06B",
"t. c #EAB16B",
"y. c #EBB26C",
"u. c #F2B56D",
"i. c #B05F84",
"p. c #B86486",
"a. c #CD6F80",
"s. c None",
/* pixels */
"s.s.s.s.s.s.s.s.s.s.s.s.X . . . . . . . . . . . . . . X s.s.s.s.s.s.s.s.s.s.s.s.",
"s.s.s.s.s.s.s.s.s.s.s.5 0 e e e e e e e e e e e e e e 0 5 s.s.s.s.s.s.s.s.s.s.s.",
"s.s.s.s.s.s.s.s.s.s.$ a Y E E R R R R R R R R R R E E Y a $ s.s.s.s.s.s.s.s.s.s.",
"s.s.s.s.s.s.s.s.s.; 6 x ..:.:.*.*.*.*.*.*.*.*.*.*.:.:...x 6 ; s.s.s.s.s.s.s.s.s.",
"s.s.s.s.s.s.s.s.; a U / &.5.5.5.5.5.5.5.5.5.5.5.5.5.5.&./ U a ; s.s.s.s.s.s.s.s.",
"s.s.s.s.s.s.s.% 6 I o.1.6.0.0.0.0.0.0.0.0.0.0.0.0.0.0.6.1.o.I 6 % s.s.s.s.s.s.s.",
"s.s.s.s.s.s.4 j P ( 1.w.q.y.y.y.y.y.y.y.y.y.y.y.y.y.y.q.w.1.( P j 4 s.s.s.s.s.s.",
"s.s.s.s.s.+ u R o.1.7.q.r.r.r.r.r.r.r.r.r.r.r.r.r.r.r.r.q.7.1.o.R u + s.s.s.s.s.",
"s.s.s.s.s.# p / 3.w.q.y.t.r.r.r.r.r.r.r.r.r.r.r.r.r.r.t.y.q.w.3./ p # s.s.s.s.s.",
"s.s.s.s.s.O s ) 7.u.r.t.r.r.r.r.r.r.r.r.r.r.r.r.r.r.r.r.t.r.u.7.) s O s.s.s.s.s.",
"s.s.s.s.  # s _ e.u.r.r.r.r.r.r.r.r.r.r.r.r.r.r.r.r.r.r.r.r.u.e._ s #   s.s.s.s.",
"@ @ @ + X o s _ e.u.r.r.r.r.r.r.r.r.r.r.r.r.r.r.r.r.r.r.r.r.u.e._ s o X + @ @ @ ",
". - , 3 3 3 V ` 8.y.r.r.r.r.r.r.r.r.r.r.r.r.r.r.r.r.r.r.r.r.y.8.` V 3 3 3 , - . ",
". , n D D D [ X.3.7.0.t.r.r.r.r.r.r.r.r.r.r.r.r.r.r.r.r.t.0.7.3.X.[ D D D n , . ",
"+ 6 A } i.i.%.#.>.4.0.y.r.r.r.r.r.r.r.r.r.r.r.r.r.r.r.r.y.0.4.>.#.%.i.i.} A 6 + ",
"& 4 m D { i.a.$.:.4.0.y.t.r.r.r.r.r.r.r.r.r.r.r.r.r.r.t.y.0.4.:.$.a.i.{ D m 4 & ",
"s.s.; 6 Z } %.$.:.4.9.t.r.r.r.r.r.r.r.r.r.r.r.r.r.r.r.r.t.9.4.:.$.%.} Z 6 ; s.s.",
"s.s.s.$ v S [ ..:.2.4.7.0.y.y.t.t.r.r.r.r.r.r.t.t.y.y.0.7.4.2.:...[ S v $ s.s.s.",
"s.s.s.s.& 2 B ^ @.<.>.3.8.t.t.r.r.r.r.r.r.r.r.r.r.t.t.8.3.>.<.@.^ B 2 & s.s.s.s.",
"s.s.s.s.s.O p Q =.<.=.,.4.6.6.6.8.r.t.t.t.t.r.8.6.6.6.4.,.=.<.=.Q p O s.s.s.s.s.",
"s.s.s.s.s.# p Q -.<.=.:.>.,.,.2.6.0.y.y.y.y.0.6.2.,.,.>.:.=.<.-.Q p # s.s.s.s.s.",
"s.s.s.s.s.@ i T ..O.@.-.=.@.@.:.3.6.8.8.8.8.6.3.:.@.@.=.-.@.O...T i @ s.s.s.s.s.",
"s.s.s.s.s.s.5 a x ^ +.<.-.@.@.=.>.2.2.2.2.2.2.>.=.@.@.=.<.+.^ x a 5 s.s.s.s.s.s.",
"s.s.s.s.s.s.s.+ e P ..+.@.=.=.=.=.=.=.=.=.=.=.=.=.=.=.=.@. .I e + s.s.s.s.s.s.s.",
"s.s.s.s.s.s.= 2 e t P Q O.<.<.;.-.@.@.@.@.@.@.-.;.<.<.+.| R k e 2 = s.s.s.s.s.s.",
"s.s.s.s.s.o 3 r t e 1 k | @.@.+.+.=.=.=.=.=.=.+.+.+.+...R k h y r 3 o s.s.s.s.s.",
"s.s.s.s.s.# 8 B C c - p R ! ! ~  .@.;.;.;.;.@. .~ W R I k y k C B 8 # s.s.s.s.s.",
"s.s.s.s.s.O c ' { Z , 1 h k k z ! O.-.=.=.-.O.! z t e e r h U } ' c O s.s.s.s.s.",
"s.s.s.s.s.O c ] } A , * r t t h I ~ | | | | ~ I h e - , p C } i.] c O s.s.s.s.s.",
"s.s.s.s.s.O c ] } A , * p y y y k l z z z z l k y e - 3 A } p.p.] c O s.s.s.s.s.",
"s.s.s.s.s.% 0 F ' n , 1 t f f f f f f f f f f f f p 8 c A { } { F 0 % s.s.s.s.s.",
"s.s.s.s.s.s.5 v c 3 - 8 d H H H H H H H H H H H H G d M b n n n v 5 s.s.s.s.s.s.",
"s.s.s.s.s.s.s.$ # o - 9 N K K K K K J G G G G J K K K N 9 - o # $ s.s.s.s.s.s.s.",
"s.s.s.s.s.s.s.s.s.o : 9 G L L K L K N q 9 9 q d K L L G 9 - o s.s.s.s.s.s.s.s.s.",
"s.s.s.s.s.s.s.s.s.; + 9 N K K K K J M > + + > q G K J N 9 # & s.s.s.s.s.s.s.s.s.",
"s.s.s.s.s.s.s.s.s.  : 8 s g g g d q 0 = & s.; 7 q q q q 7 s.s.s.s.s.s.s.s.s.s.s.",
"s.s.s.s.s.s.s.s.s.& > 1 p h h t e : % s.s.s.s.& # , , X s.s.s.s.s.s.s.s.s.s.s.s.",
"s.s.s.s.s.s.s.s.s.s.; < w r r w 0 = s.s.s.s.s.s.  % = s.s.s.s.s.s.s.s.s.s.s.s.s.",
"s.s.s.s.s.s.s.s.s.s.s.s.2 * * > ; s.s.s.s.s.s.s.s.s.s.s.s.s.s.s.s.s.s.s.s.s.s.s.",
"s.s.s.s.s.s.s.s.s.s.s.s.X . . > s.s.s.s.s.s.s.s.s.s.s.s.s.s.s.s.s.s.s.s.s.s.s.s."
};
