/* XPM */
static char *result[] = {
/* columns rows colors chars-per-pixel */
"40 40 52 1 ",
"  c black",
". c #040404",
"X c #060606",
"o c #090909",
"O c gray4",
"+ c #0C0C0C",
"@ c gray5",
"# c gray6",
"$ c gray9",
"% c #191919",
"& c #232323",
"* c gray15",
"= c #353535",
"- c gray25",
"; c #494949",
": c gray30",
"> c gray31",
", c gray35",
"< c gray39",
"1 c gray44",
"2 c #727272",
"3 c gray49",
"4 c gray50",
"5 c #818181",
"6 c gray55",
"7 c #989898",
"8 c #9B9B9B",
"9 c #A5A5A5",
"0 c #A9A9A9",
"q c #B2B2B2",
"w c gray71",
"e c #BCBCBC",
"r c gray75",
"t c #C1C1C1",
"y c gray79",
"u c gray83",
"i c #D8D8D8",
"p c gray88",
"a c #E4E4E4",
"s c #E7E7E7",
"d c #EAEAEA",
"f c gray92",
"g c gray95",
"h c #F3F3F3",
"j c #F4F4F4",
"k c #F6F6F6",
"l c #F8F8F8",
"z c #F9F9F9",
"x c #FBFBFB",
"c c #FDFDFD",
"v c #FEFEFE",
"b c white",
/* pixels */
" o@@@@@@@@@@@@@@@@@@@@@@@@@@@@@@@@@@@@o ",
"o3qqqqqqqqqqqqqqqqqqqqqqqqqqqqqqqqqqqq3o",
"@qbbf7ibbbbbbbbbbbbbbbr9lbbbbbbbbbbbbbq@",
"@qbs8&3ibbbbbbbbbbbbxy,=whbbbbbbbbbbbbq@",
"@qbt=O&7bbbbbbbbbbbbj1%#>pbbbbbbbbbbbbq@",
"@qbhe=8fbbbbbbbbbbbbca2;uzbbbbbbbbcjxbq@",
"@qbbhtsbbbbbbbbbbbbbbbiyxbbbbbbbbba1ybq@",
"@qbbbbbbbbbbbbbbbbbbbbbbbbbbbbbbbi2%,rq@",
"@qbbbbbbbbbbbbbbbbbbbbbbbbbbbbbbby;#=9q@",
"@qbbbbbbbbbbbbbbbbbbbbbbbbbbbbbbbxu>wlq@",
"@qbxjcbbbbbbbbbbbbbbbbbbbbbbbbbbbbzphbq@",
"@qby1abbbbbbbbbbbbbbbbbbbbbbbbbbbbbbbbq@",
"@qr,%2ibbbbbbi7fbbbbbbbbbbbbbbbbbbbbbbq@",
"@q9=#;ybbbbbi3&8sbbbbbbbbbbbbbbbbbbbbbq@",
"@qlw>uxbbbbb7&O=tbbbbbbbbbbbbbbbbbbbbbq@",
"@qbhpzbbbbbbf8=ehbbbbbbbbvklbbbbbbbbbbq@",
"@qbbbbbbbbbbbsthbbbbbbbbbk59bbbbbbbbbbq@",
"@qbbbbbbbbbbbbbbbbbbbbbbf6*-9lbbbbbbbbq@",
"@qbbbbbbbbbbbbbbbbbbbbbba<$*5kbbbbbbbbq@",
"@qbbbbbbbbbbbbbbbbbbbbbbcd<6kvbbbbbbbbq@",
"@qbbcjxbbbbbbbbbbbbbbbbbbcafbbbbbbbbbbq@",
"@qbba1ybbbbbbbbbbbbbbbbbbbbbbbbbbbbbbbq@",
"@qbi2%,rbbbbbbbbbr9lbbbbbbbbbbbbbi7fbbq@",
"@qby;#=9bbbbbbbxy,=whbbbbbbbbbbbi3&8sbq@",
"@qbxu>wlbbbbbbbj1%#>pbbbbbbbbbbb7&O=tbq@",
"@qbbzphbbbbbbbbca2;uzbbbbbbbbbbbf8=ehbq@",
"@qbbbbbbbbbbbbbbbiyxbbbbbbbbbbbbbsthbbq@",
"X,444444444444444444444444444444444444,X",
".=::::::::::::::::::::::::::::::::::::=.",
"+0gggggggggggggggggggggggggggggggggggg0+",
"@qbbbbbbbbbbbbbbbbbbbbbbbbbbbbbbbbbbbbq@",
"@qbbbbbbbbbbbbbbbbbbbbbbbbbbbbbbbbbbbbq@",
"@qbbbbbbbbbbbbbbbbbbbbbbbbbbbbbbbbbbbbq@",
"@qbbbbbbbbbbbbbbbbbbbbbbbbbbbbbbbbbbbbq@",
"@qbbbbbbbbbbbbbbbbbbbbbbbbbbbbbbbbbbbbq@",
"@qbbbbbbbbbbbbbbbbbbbbbbbbbbbbbbbbbbbbq@",
"@qbbbbbbbbbbbbbbbbbbbbbbbbbbbbbbbbbbbbq@",
"@qbbbbbbbbbbbbbbbbbbbbbbbbbbbbbbbbbbbbq@",
"o3qqqqqqqqqqqqqqqqqqqqqqqqqqqqqqqqqqqq3o",
" o@@@@@@@@@@@@@@@@@@@@@@@@@@@@@@@@@@@@o "
};
