/* XPM */
static char *result[] = {
/* columns rows colors chars-per-pixel */
"40 40 71 1 ",
"  c #040404",
". c gray4",
"X c #0E0E0E",
"o c gray8",
"O c #181818",
"+ c #202020",
"@ c #272727",
"# c gray17",
"$ c #323232",
"% c gray20",
"& c #353535",
"* c gray23",
"= c #3C3C3C",
"- c #414141",
"; c #4B4B4B",
": c #4C4C4C",
"> c gray30",
", c gray31",
"< c #505050",
"1 c gray32",
"2 c #555555",
"3 c #5B5B5B",
"4 c gray36",
"5 c #646464",
"6 c gray42",
"7 c #6C6C6C",
"8 c gray44",
"9 c gray50",
"0 c #808080",
"q c #818181",
"w c gray52",
"e c gray56",
"r c #929292",
"t c gray58",
"y c #979797",
"u c #989898",
"i c gray64",
"p c #A5A5A5",
"a c #A7A7A7",
"s c gray68",
"d c #B2B2B2",
"f c gray70",
"g c #B6B6B6",
"h c #B9B9B9",
"j c gray",
"k c gray75",
"l c #C1C1C1",
"z c gray79",
"x c gray80",
"c c #D0D0D0",
"v c #D5D5D5",
"b c gray84",
"n c #D8D8D8",
"m c gray85",
"M c #DADADA",
"N c gray87",
"B c gray88",
"V c #E4E4E4",
"C c #E7E7E7",
"Z c gray92",
"A c gray95",
"S c #F3F3F3",
"D c #F4F4F4",
"F c #F6F6F6",
"G c #F8F8F8",
"H c #F9F9F9",
"J c #FBFBFB",
"K c #FDFDFD",
"L c #FEFEFE",
"P c white",
"I c None",
/* pixels */
"IIIIIIIIIIIIIIIIIIIIIIIIIIIIIIIIIIIIIIII",
"IIIIIIIIIIIIIIIIIIIIIIIIIIIIIIIIIIIIIIII",
"IIIIIIIIIIIIIIIIIIIIIIIIIIIIIIIIIIIIIIII",
"IIIIIIIIIIIIIIIIIIIIIIIIIIIIIIIIIIIIIIII",
"IIIIIIIIIIIIIIIIIIIIIIIIIIIIIIIIIIIIIIII",
"IIIIIIIIIIIIIIIIIIIIIIIIIIIIIIIIIIIIIIII",
"IIIIIIIIIIIIIIIIIIIIIIIIIIIIIIIIIIIIIIII",
"IIIIIIIIIIIIIIIIIIIIIIIIIIIIIIIIIIIIIIII",
"IIIIIIIIIIIIIIIIIIIIIIIIIIIIIIIIIIIIIIII",
"IIIIIIIIIIIIIIIIIIIIIIIIIIIIIIIIIIIIIIII",
"IIIIIIIIIIIIIIIIIIIIIIIIIIIIIIIIIIIIIIII",
"IIIIIIIIIIIIIIIIIIIIIIIIIIIIIIIIIIIIIIII",
"IIIIIIIIIIIIIIIIp9999999rIIIIIIIIIIIIIII",
"IIIIIIIIIIIIIIgs6>>>>>>>4idnIIIIIIIIIIII",
"IIIIIIIIIIIIIa*=hAAAAAAAv,%wIIIIIIIIIIII",
"IIIIIIIIIIIIr5cMSPPKDJPPHNnw7IIIIIIIIIII",
"IIIIIIIIIIIq9zJPPPPV8zPPPPPnt7IIIIIIIIII",
"IIIIIIIIIIr9knuZPPPZunPPPGpknwwnIIIIIIII",
"IIIIIIIIIn%fPz8VPPPPPPPPPFqpPn%dIIIIIIII",
"IIIIIIIIIk:jPJDKPPPPPPZVKLFGPN,iIIIIIIII",
"IIIIIIIIj;kSPPPLFGPPPPu8DPPPPHv4rIIIIIII",
"IIIIIIIIf%nPPPPFqpPPPPnzJPPPPPA>0IIIIIII",
"IIIIIIIIf%nPPPPGpkPPPPPPPPPPPPA>0IIIIIII",
"IIIIIIIIf%nPPPPPPPPPPPPPPPPnzJA>0IIIIIII",
"IIIIIIIIf%nPZVKPPPPPPPPPPPPu8DA>0IIIIIII",
"IIIIIIIIf%nPu8DPPPPPPPPJDKPZVKA>0IIIIIII",
"IIIIIIIIf%nPnzJPPPPPPPPz8VPPPPA>0IIIIIII",
"IIIIIIIInwwnPPPPPPPPPPPnuZPPPZr9kIIIIIII",
"IIIIIIIIIn%fPPPPPPClSPPPPPPPPn%dIIIIIIII",
"IIIIIIIIIN<iZPPPPPl3BPPPHBSPSk;jIIIIIIII",
"IIIIIIIIIIb5rFLPPPSBHPPPB3lGh2lIIIIIIIII",
"IIIIIIIIIIIz9qFPPPPPPPPPSlCp6hIIIIIIIIII",
"IIIIIIIIIIIIk99wnPPPPPPPZr99pIIIIIIIIIII",
"IIIIIIIIIIIIIz21tdddddddi4>pIIIIIIIIIIII",
"IIIIIIIIIIIIIIII7%@o#O+%<vIIIIIIIIIIIIII",
"IIIIIIIIIIIIIIIIImy#s-7mNIIIIIIIIIIIIIII",
"IIIIIIIIIIIIIIIIIId$x>0IIIIIIIIIIIIIIIII",
"IIIIIIIIIIIIIIIIIId$x>0IIIIIIIIIIIIIIIII",
"IIIIIIIIIIIIIIIIIId@e&0IIIIIIIIIIIIIIIII",
"IIIIIIIIIIIIIIIIIIdX. 0IIIIIIIIIIIIIIIII"
};
