/* XPM */
static char *result[] = {
/* columns rows colors chars-per-pixel */
"40 40 48 1 ",
"  c black",
". c #00000B",
"X c #151200",
"o c #181400",
"O c #1D1902",
"+ c #1C1906",
"@ c #1F1D0F",
"# c #302B0F",
"$ c #3E3706",
"% c #413B15",
"& c #5F5100",
"* c #706000",
"= c #746400",
"- c #7B6A01",
"; c #7F6E03",
": c #7B6E1A",
"> c #7B702C",
", c #7D743A",
"< c #837100",
"1 c #917C01",
"2 c #998404",
"3 c #C1A701",
"4 c #D0B300",
"5 c #D9BB00",
"6 c #DFC000",
"7 c #E6C700",
"8 c #E1C306",
"9 c #E9C900",
"0 c #F2D000",
"q c #F9D700",
"w c #FDDB00",
"e c #FFDC00",
"r c #FFDF00",
"t c #FFE100",
"y c #FFE303",
"u c #FFE503",
"i c #FFE423",
"p c #A4974B",
"a c #C1B35C",
"s c #E2CC45",
"d c #FFE945",
"f c #FFEA5C",
"g c #FFF66D",
"h c #FFF178",
"j c #FFF4A7",
"k c #FFF9D3",
"l c #FFFDF3",
"z c None",
/* pixels */
"zzzzzzzzzzzzzzzzzzzzzzzzzzzzzzzzzzzzzzzz",
"zzzzzzzzzzzzzzzzzzzzzzzzzzzzzzzzzzzzzzzz",
"zzzzzzzzzzzzzzzzzzzzzzzzzzzzzzzzzzzzzzzz",
"zzzzzzzzzzzzzzzzzzzzzzzzzzzzzzzzzzzzzzzz",
"zzzzzzzzzzzzzzzzzzzzzzzzzzzzzzzzzzzzzzzz",
"zzzzzzzzzzzzzzzzzzzzzzzzzzzzzzzzzzzzzzzz",
"zzzzzzzzzzzzzzz       zzzzzzzzzzzzzzzzzz",
"zzzzzzzzzzzzzzX=--::>,%zzzzzzzzzzzzzzzzz",
"zzzzzzzzzzzzzX&0uyidfgp#zzzzzzzzzzzzzzzz",
"zzzzzzzzzzzzX&qeeeeidfha@zzzzzzzzzzzzzzz",
"zzzzzzzzzzz =0eeeeeikljfa@zzzzzzzzzzzzzz",
"zzzzzzzzzzz -ueeertydkjds+zzzzzzzzzzzzzz",
"zzzzzzzzzzz -yeer3;10ffisOzzzzzzzzzzzzzz",
"zzzzzzzzzzz -reey;.+8reisOzzzzzzzzzzzzzz",
"zzzzzzzzzzz *qwet2+$7ret8Ozzzzzzzzzzzzzz",
"zzzzzzzzzzz *00we087weer8Ozzzzzzzzzzzzzz",
"zzzzzzzzzzz &690wrrreeet7+zzzzzzzzzzzzzz",
"zzzzzzzzzzzz%;590weeeey6=Xzzzzzzzzzzzzzz",
"zzzzzzzzzzzzz#149qrrrt6< zzzzzzzzzzzzzzz",
"zzzzzzzzzzzzzzo2345887= zzzzzzzzzzzzzzzz",
"zzzzzzzzzzzzzzzo+OOOO+Xzzzzzzzzzzzzzzzzz",
"zzzzzzzzzzzzzzzzzzzzzzzzzzzzzzzzzzzzzzzz",
"zzzzzzzzzzzzzzzzzzzzzzzzzzzzzzzzzzzzzzzz",
"zzzzzzzzzzzzzzzzzzzzzzzzzzzzzzzzzzzzzzzz",
"zzzzzzzzzzzzzzzzzzzzzzzzzzzzzzzzzzzzzzzz",
"zzzzzzzzzzzzzzzzzzzzzzzzzzzzzzzzzzzzzzzz",
"zzzzzzzzzzzzzzzzzzzzzzzzzzzzzzzzzzzzzzzz",
"zzzzzzzzzzzzzzzzzzzzzzzzzzzzzzzzzzzzzzzz",
"zzzzzzzzzzzzzzzzzzzzzzzzzzzzzzzzzzzzzzzz",
"zzzzzzzzzzzzzzzzzzzzzzzzzzzzzzzzzzzzzzzz",
"zzzzzzzzzzzzzzzzzzzzzzzzzzzzzzzzzzzzzzzz",
"zzzzzzzzzzzzzzzzzzzzzzzzzzzzzzzzzzzzzzzz",
"zzzzzzzzzzzzzzzzzzzzzzzzzzzzzzzzzzzzzzzz",
"zzzzzzzzzzzzzzzzzzzzzzzzzzzzzzzzzzzzzzzz",
"zzzzzzzzzzzzzzzzzzzzzzzzzzzzzzzzzzzzzzzz",
"zzzzzzzzzzzzzzzzzzzzzzzzzzzzzzzzzzzzzzzz",
"zzzzzzzzzzzzzzzzzzzzzzzzzzzzzzzzzzzzzzzz",
"zzzzzzzzzzzzzzzzzzzzzzzzzzzzzzzzzzzzzzzz",
"zzzzzzzzzzzzzzzzzzzzzzzzzzzzzzzzzzzzzzzz",
"zzzzzzzzzzzzzzzzzzzzzzzzzzzzzzzzzzzzzzzz"
};
