/* XPM */
static char *result[] = {
/* columns rows colors chars-per-pixel */
"32 32 6 1 ",
"  c black",
". c #EACA00",
"X c #FFDC00",
"o c #FFE127",
"O c #FFE85D",
"+ c None",
/* pixels */
"++++++++++++++++++++++++++++++++",
"++++++++++++++++++++++++++++++++",
"++++++++++++++++++++++++++++++++",
"++++++++++++++++++++++++++++++++",
"++++++++++++++++++++++++++++++++",
"+++++++++++++    +++++++++++++++",
"++++++++++++ XooO ++++++++++++++",
"+++++++++++ XXXooO +++++++++++++",
"++++++++++ XXXXXooO ++++++++++++",
"++++++++++ XXXXXXoo ++++++++++++",
"++++++++++ XXX  XXo ++++++++++++",
"++++++++++ XXX  XXX ++++++++++++",
"++++++++++ .XXXXXXX ++++++++++++",
"++++++++++ ..XXXXXX ++++++++++++",
"+++++++++++ ..XXXX +++++++++++++",
"++++++++++++ ..XX ++++++++++++++",
"+++++++++++++    +++++++++++++++",
"++++++++++++++++++++++++++++++++",
"++++++++++++++++++++++++++++++++",
"++++++++++++++++++++++++++++++++",
"++++++++++++++++++++++++++++++++",
"++++++++++++++++++++++++++++++++",
"++++++++++++++++++++++++++++++++",
"++++++++++++++++++++++++++++++++",
"++++++++++++++++++++++++++++++++",
"++++++++++++++++++++++++++++++++",
"++++++++++++++++++++++++++++++++",
"++++++++++++++++++++++++++++++++",
"++++++++++++++++++++++++++++++++",
"++++++++++++++++++++++++++++++++",
"++++++++++++++++++++++++++++++++",
"++++++++++++++++++++++++++++++++"
};
