/* XPM */
static char *result[] = {
/* columns rows colors chars-per-pixel */
"40 40 65 1 ",
"  c black",
". c gray3",
"X c #090909",
"o c gray4",
"O c #0C0C0C",
"+ c #111111",
"@ c #222222",
"# c gray14",
"$ c #272727",
"% c gray18",
"& c #2F2F2F",
"* c #343434",
"= c gray21",
"- c gray22",
"; c #393939",
": c #3E3E3E",
"> c gray25",
", c gray27",
"< c #464646",
"1 c gray29",
"2 c gray30",
"3 c #555555",
"4 c #565656",
"5 c gray34",
"6 c gray35",
"7 c gray36",
"8 c #5F5F5F",
"9 c #626262",
"0 c gray40",
"q c #676767",
"w c #686868",
"e c #6F6F6F",
"r c gray45",
"t c gray48",
"y c gray49",
"u c #808080",
"i c #838383",
"p c gray52",
"a c #888888",
"s c #898989",
"d c gray54",
"f c #939393",
"g c gray60",
"h c #9A9A9A",
"j c gray64",
"k c gray66",
"l c #B1B1B1",
"z c #B7B7B7",
"x c #BBBBBB",
"c c #C1C1C1",
"v c #C6C6C6",
"b c #CACACA",
"n c #CDCDCD",
"m c #D2D2D2",
"M c gray84",
"N c gray85",
"B c #E2E2E2",
"V c #ECECEC",
"C c #F1F1F1",
"Z c gray96",
"A c #F8F8F8",
"S c gray99",
"D c #FEFEFE",
"F c white",
"G c None",
/* pixels */
"GGGGGGGGGGGGGGGGGGGGGGGGGGGGGGGGGGGGGGGG",
"GGGGGGGGGGGGGGGGGGG::::;GGGGGGGGGGGGGGGG",
"GGGGGGGGGGGGGGGG;ujCCCCmpwGGGGGGGGGGGGGG",
"GGGGGGGGGGGGGG;sNFFFFFFFFCx7GGGGGGGGGGGG",
"GGGGGGGGGGGGG6MFFFFFFFFFFFFAhGGGGGGGGGGG",
"GGGGGGGGGGGGGcFFFFFFFFFFFFFFSqGGGGGGGGGG",
"GGGGGGGGGGGGaZFFFFFFFFFFFFFFFb1GGGGGGGGG",
"GGGGGGGGGGG:VFFFFFFFFFFFFFFFFFgGGGGGGGGG",
"GGGGGGGGGGGwZFFFFFFFFFFFFFFFFFzGGGGGGGGG",
"GGGGGGG  GGzFFFFFFFFDVegFFFSdtV3GGGGGGGG",
"GGGGGGG  GGzFFFFFFFFFSjnFFFFclS3GGGGGGGG",
"GGGGGGGG GGzFFFFFFFFFFFFFFFFFFS3GGGGGGGG",
"GGGGGGGGG  lFFFFFFFFFFFFFFFFFFA3GGGGGGGG",
"GGGGGGGGG  ,AFFFFFFFFFFFFFFFFFlGGGGGGGGG",
"GGGGGGGGGGX$VFFFFFFFFFFFFFFFFFfGGGGGGGGG",
"GGGGGGGGGG  8CFFFFFFFFFFFFFFFxGGGGGGGGGG",
"GGGGGGGGGG  #cFFFFFFFFFFFFFFZ7GGGGGGGGGG",
"GGGGGGGGGG$ej,vDFFFFFFFFFFFCaGGGGGGGGGGG",
"GGGGGGGGGG1g$ +9vDFFFFFFFBg&OGGGGGGGGGGG",
"GGGGGGGGGGG%   #trfBBBBcrt9-@GGGGGGGGGGG",
"GGGGGGGGGGG    .yck9998txNn9*GGGGGGGGGGG",
"GGGGGGGGGGGG5#  .dBCVVVCFFn8*GGGGGGGGGGG",
"GGGGGGGGGGGGt4e+  $bFFFFFFn8*GGGGGGGGGGG",
"GGGGGGGGGGGGrtDj+  #vFFFFFn,@GGGGGGGGGGG",
"GGGGGGGGGGGGprSF4   #tCFFFmoGGGGGGGGGGGG",
"GGGGGGGGGGG>lgDFc$+   4xFFmXGGGGGGGGGGGG",
"GGGGGGGGGGG<ynFFn0c8   +jFmXGGGGGGGGGGGG",
"GGGGGGGGGGG<ynFFbeSC8   +tkOGGGGGGGGGGGG",
"GGGGGGGGGGG<ynFStcFFC8    +GGGGGGGGGGGGG",
"GGGGGGGGGGG<ynFS0mFFFC8+    GGGGGGGGGGGG",
"GGGGGGGGGGG<ynFS0mFFFFAc$   GGGGGGGGGGGG",
"GGGGGGGGGGGOyZFS0mFFFFFFNi#GGGGGGGGGGGGG",
"GGGGGGGGGGG yFFS0mFFFFFFFFvOGGGGGGGGGGGG",
"GGGGGGGGGGG yFFS0mFFFFFFFFmXGGGGGGGGGGGG",
"GGGGGGGGGGG42nVD0mFFFFFFFFMXGGGGGGGGGGGG",
"GGGGGGGGGGGlvr,d2mFFFFFFZkiXGGGGGGGGGGGG",
"GGGGGGGGGGGxFAxfkAZmmmn8--i=GGGGGGGGGGGG",
"GGGGGGGGGGG8ppppii9XXXX  $5OGGGGGGGGGGGG",
"GGGGGGGGGGGGGGG   GGGGG   GGGGGGGGGGGGGG",
"GGGGGGGGGGGGGGGG  GGGGGG  GGGGGGGGGGGGGG"
};
