/* XPM */
static char *b930ba7efc304627d361687aac18179acCP3EvCfXJWxGXia[] = {
/* columns rows colors chars-per-pixel */
"40 40 2 1 ",
"  c #4C2A45",
". c #55344F",
/* pixels */
"      ........      ............      ..",
"       ......        ..........        .",
"        ....           ......           ",
"         ..              ..             ",
"         ..              ..             ",
"        ....            ....            ",
"       ......          ....  ..        .",
"      ........          ......        ..",
"     ..........    ............      ...",
"    ............    .........  .    ....",
".  ..............  ..............  .....",
"........................................",
"...................... .................",
".. ............... ............ .  .....",
"    ............    . ............  ....",
"    ............     .......... .    ...",
"      .........       ........       ...",
"      .......       . .......  ..      .",
"       ......          ......  .        ",
"        ....            ....            ",
"         ..              ..             ",
"        ....        .   ....    .       ",
"      ........     ..  ..........     ..",
"     ..........      .........       ...",
"    ............    ......... .     ....",
"   .............     ... .......    ....",
".  ..............   .............  .....",
".  ............... ............    .....",
"....................... ................",
"........................................",
".  ..............   .............  .....",
".  ..............  ............    .....",
"    ............    ............    ....",
"    ............    ...  .......    ....",
"     ..........      . ......        ...",
"       ......          .......         .",
"         ..              ..             ",
"        ...              ..             ",
"        ....           ......           ",
"       ......        ..........        ."
};
