/* XPM */
static char *result[] = {
/* columns rows colors chars-per-pixel */
"40 40 195 2 ",
"   c #180025",
".  c #190125",
"X  c #1A0126",
"o  c #1A0127",
"O  c #190226",
"+  c #1B0227",
"@  c #1E0327",
"#  c #1C0228",
"$  c #1D0328",
"%  c #1E0328",
"&  c #1F0528",
"*  c #1E0629",
"=  c #210529",
"-  c #200629",
";  c #23082B",
":  c #260929",
">  c #26082A",
",  c #26092A",
"<  c #270A2A",
"1  c #2E0E2F",
"2  c #300E2D",
"3  c #2E122E",
"4  c #35112B",
"5  c #31132E",
"6  c #35112D",
"7  c #35112F",
"8  c #35122F",
"9  c #3D162B",
"0  c #331134",
"q  c #361436",
"w  c #381732",
"e  c #3B1632",
"r  c #3D1731",
"t  c #391A32",
"y  c #3E1B37",
"u  c #352037",
"i  c #382338",
"p  c #3D2E3F",
"a  c #431A2A",
"s  c #461C2B",
"d  c #42192F",
"f  c #461A2E",
"g  c #451C32",
"h  c #441E3C",
"j  c #56252B",
"k  c #51212C",
"l  c #5E292C",
"z  c #4F2031",
"x  c #4F2133",
"c  c #4E2233",
"v  c #4B243D",
"b  c #44293A",
"n  c #4B2D3F",
"m  c #5D2630",
"M  c #5E2731",
"N  c #542D36",
"B  c #5D2836",
"V  c #51253B",
"C  c #56253C",
"Z  c #542A3E",
"A  c #5E3333",
"S  c #642D2D",
"D  c #622830",
"F  c #672B32",
"G  c #602A36",
"H  c #602C38",
"J  c #622D3A",
"K  c #6E3130",
"L  c #623B38",
"P  c #733434",
"I  c #7A3832",
"U  c #773B3D",
"Y  c #481E45",
"T  c #572F44",
"R  c #5A2E42",
"E  c #483341",
"W  c #503F46",
"Q  c #613142",
"!  c #61334A",
"~  c #643748",
"^  c #6C3C4A",
"/  c #6F375B",
"(  c #73395D",
")  c #793E61",
"_  c #5C4243",
"`  c #58494C",
"'  c #74414F",
"]  c #6C524D",
"[  c #774450",
"{  c #6A5E55",
"}  c #615F5B",
"|  c #6C6D63",
" . c #6F7568",
".. c #6E7A6D",
"X. c #803D37",
"o. c #863F37",
"O. c #8C4237",
"+. c #8A453F",
"@. c #92453B",
"#. c #96473C",
"$. c #A24E3E",
"%. c #844240",
"&. c #8B4540",
"*. c #974A41",
"=. c #9D4F43",
"-. c #9F5043",
";. c #9D5044",
":. c #9C534A",
">. c #834757",
",. c #804955",
"<. c #864E58",
"1. c #805D51",
"2. c #93545A",
"3. c #A3554A",
"4. c #AB5B4C",
"5. c #B25D4A",
"6. c #8D6756",
"7. c #B1664E",
"8. c #BE6B5B",
"9. c #AB7353",
"0. c #AB7B56",
"q. c #874966",
"w. c #964D65",
"e. c #955A60",
"r. c #9E5C69",
"t. c #9B5475",
"y. c #A26263",
"u. c #AD6A67",
"i. c #B36563",
"p. c #B16B6A",
"a. c #B46F6D",
"s. c #BB746F",
"d. c #B0667B",
"f. c #C76C54",
"g. c #D17555",
"h. c #E37C5D",
"j. c #E57F5F",
"k. c #DA7664",
"l. c #D2736D",
"z. c #D8776C",
"x. c #CA6C72",
"c. c #CB6D72",
"v. c #CB6D73",
"b. c #CE6F74",
"n. c #C46B7B",
"m. c #C0697C",
"M. c #CF7176",
"N. c #C07871",
"B. c #C77D75",
"V. c #CF7F71",
"C. c #C0727D",
"Z. c #B3805B",
"A. c #DD8C5C",
"S. c #E68257",
"D. c #E5845E",
"F. c #EA8458",
"G. c #ED8F5A",
"H. c #E6925E",
"J. c #EC905B",
"K. c #ED975F",
"L. c #C78E69",
"P. c #DF8D6F",
"I. c #CB8076",
"U. c #D5867A",
"Y. c #D9897D",
"T. c #DF8E7F",
"R. c #D89672",
"E. c #E18567",
"W. c #E79964",
"Q. c #F19D63",
"!. c #E18F7F",
"~. c #EBA666",
"^. c #EBA867",
"/. c #EAAD6A",
"(. c #ECAF6A",
"). c #F3A063",
"_. c #F3A866",
"`. c #EAB06B",
"'. c #EAB16B",
"]. c #EAB26C",
"[. c #F2B46C",
"{. c #AD5D83",
"}. c #B15F80",
"|. c #B56383",
" X c #BB6784",
".X c #BE6F81",
"XX c #CA7481",
"oX c #CA7785",
"OX c #D48381",
"+X c #DD8C81",
"@X c #D68389",
"#X c #E39182",
"$X c #E59282",
"%X c #EC9887",
"&X c None",
/* pixels */
"&X&X&X&X&X&X&X&X&X&X&X&XO o o o o o o o o o o o o o o O &X&X&X&X&X&X&X&X&X&X&X&X",
"&X&X&X&X&X&X&X&X&X&X&X7 t d d d d d d d d d d d d d d t 7 &X&X&X&X&X&X&X&X&X&X&X",
"&X&X&X&X&X&X&X&X&X&X> C &.-.-.=.=.=.=.=.=.=.=.=.=.-.-.&.C > &X&X&X&X&X&X&X&X&X&X",
"&X&X&X&X&X&X&X&X&X> r U f.F.F.S.S.S.S.S.S.S.S.S.S.F.F.f.U r > &X&X&X&X&X&X&X&X&X",
"&X&X&X&X&X&X&X&X> B %.7.A.).).Q.Q.Q.Q.Q.Q.Q.Q.Q.Q.).).A.7.%.B > &X&X&X&X&X&X&X&X",
"&X&X&X&X&X&X&X- r +.g.H.~././././././././././././././.~.H.g.+.r - &X&X&X&X&X&X&X",
"&X&X&X&X&X&Xe G %.7.H._.(.].].].].].].].].].].].].].].(._.H.7.%.G e &X&X&X&X&X&X",
"&X&X&X&X&X- x ;.g.H.~.(.`.`.`.`.`.`.`.`.`.`.`.`.`.`.`.`.(.~.H.g.;.x - &X&X&X&X&X",
"&X&X&X&X&X% V 7.K._.(.].'.'.'.'.'.'.'.'.'.'.'.'.'.'.'.'.].(._.K.7.V % &X&X&X&X&X",
"&X&X&X&X&X% N 9.^.[.`.'.'.'.'.'.'.'.'.'.'.'.'.'.'.'.'.'.'.`.[.^.9.N % &X&X&X&X&X",
"&X&X&X&X  $ N 0.`.[.`./.^.~.~.~.~.~.~.~.~.~.~.~.~.~.~.^./.`.[.~.9.N $   &X&X&X&X",
"% % % X O . N 0.`.[.`.~.K.G.G.J.J.J.J.J.J.J.J.J.J.G.G.K.~./._.H.7.c . O X % % % ",
"o : 1 w 0 0 ~ Z./.[.^.W.D.h.h.h.h.h.h.h.h.h.h.h.h.h.h.D.W.~.Q.F.5.J 0 0 0 1 : o ",
"o 1 Q <.q.) e.L./._.K.E.l.v.b.M.b.c.x.x.x.x.c.b.M.b.v.l.E.J.G.S.f.w.) ) ( V 1 o ",
"& q >.s.C.|.C.R.~.K.D.z.n.|.}.}.|. X X X X X X|.}.}.|.n.z.j.F.S.k.m.{.{.t./ q & ",
"# e ^ <.r.|.oXP.H.E.l.M.XXd.q.) t..XoXoXoXoX.Xt.) q.d.XXM.l.h.F.j.XX|.w.( C e # ",
"&X&X> r ! t.n.h.j.l.m.oXOXp.! h ,.B.+XY.Y.+XB.,.h ! p.OXoXm.l.h.k.n.t.! q > &X&X",
"&X&X&X@ Y / w.f.h.z.oX@X+Xu.Z 1 [ I.$X!.!.$XI.[ 1 Z u.+X@XXXi.3.*.>./ Y @ &X&X&X",
"&X&X&X&X# 8 Q 5.j.E.U.+X+Xu.Z 0 [ I.#XT.T.#XI.[ 0 Z u.T.#XI.2.Z w w 8 7 &X&X&X&X",
"&X&X&X&X&X% c 4.h.g.p.N.Y.N.,.~ e.U.$X!.!.$XU.e.~ ,.N.Y.B.y.^ - - + @ &X&X&X&X&X",
"&X&X&X&X&X% c 5.g.:.Q <.B.Y.N.a.B.+X#X#X#X#X+XB.a.N.Y.B.<.n y &X&X&X&X&X&X&X&X&X",
"&X&X&X&X&X% z ;.5.P 9 R r.N.N.s.s.s.s.s.s.s.s.s.s.N.N.y.Q 3 @ &X&X&X&X&X&X&X&X&X",
"&X&X&X&X&X&Xg H J k s c R ! ~ ~ ~ ! ! ! ! ! ! ~ ~ ~ ~ Q c a 8 - &X&X&X&X&X&X&X&X",
"&X&X&X&X&X&X&X- 4 s l k 9 2 2 2 2 2 2 2 2 2 2 2 2 2 1 4 k j d < % &X&X&X&X&X&X&X",
"&X&X&X&X&X&X, 8 d l I P D m m D m m m m m m m m m k d d j l s : - &X&X&X&X&X&X&X",
"&X&X&X&X&X+ < s S X.*.=.*.#.@.@.@.#.#.#.#.#.#.#.@.X.S l l j d : X &X&X&X&X&X&X&X",
"&X&X&X&X&X$ 4 l o.3.7.8.8.4.%.P o.$.$.$.$.$.$.#.O.I K l k d 4 : - &X&X&X&X&X&X&X",
"&X&X&X&X&XO 9 K =.8.V.Y.U.u.Q d D @.$.$.$.$.*.o.K S S j 9 : : = % &X&X&X&X&X&X&X",
"&X&X&X&X&X> 6 M %.i.Y.%X$Xa.T : s X.O.O.O.O.o.P S l l k 4 = $ X &X&X&X&X&X&X&X&X",
"&X&X&X&X&X&X&X6 V 2.U.%X$Xa.R : 9 S K K K K K S l l l k 4 & - &X&X&X&X&X&X&X&X&X",
"&X&X&X&X&X&X&X  6 ' u.s.a.e.T w s N A A A L L L L L L N w ;   &X&X&X&X&X&X&X&X&X",
"&X&X&X&X&X&X&X&X&Xv R R R T E E W _ _ _ ` ] { { { { { ` i ;   &X&X&X&X&X&X&X&X&X",
"&X&X&X&X&X&X&X&X&X&XO $ % 5 n W W W W W ` } |  . . . .} p ;   &X&X&X&X&X&X&X&X&X",
"&X&X&X&X&X&X&X&X&X&X&X&X&X* t i i i u u p ` } |  .....} p ;   &X&X&X&X&X&X&X&X&X",
"&X&X&X&X&X&X&X&X&X&X&X&X&X&X, ; < & & & 3 E ` } |  . .} p ;   &X&X&X&X&X&X&X&X&X",
"&X&X&X&X&X&X&X&X&X&X&X&X&X&X&X#     # # , t b _ 1.6.6.] b < * &X&X&X&X&X&X&X&X&X",
"&X&X&X&X&X&X&X&X&X&X&X&X&X&X&X&X&X&X&X&X&X- 3 N +.-.=.%.c ;   &X&X&X&X&X&X&X&X&X",
"&X&X&X&X&X&X&X&X&X&X&X&X&X&X&X&X&X&X&X&X&X&X, z F K K F f > &X&X&X&X&X&X&X&X&X&X",
"&X&X&X&X&X&X&X&X&X&X&X&X&X&X&X&X&X&X&X&X&X&X&X> 5 4 4 8 7 &X&X&X&X&X&X&X&X&X&X&X",
"&X&X&X&X&X&X&X&X&X&X&X&X&X&X&X&X&X&X&X&X&X&X&X&X$ o o O &X&X&X&X&X&X&X&X&X&X&X&X"
};
