/* XPM */
static char *result[] = {
/* columns rows colors chars-per-pixel */
"40 40 195 2 ",
"   c #160225",
".  c #190025",
"X  c #190225",
"o  c #1B0026",
"O  c #1A0127",
"+  c #1D0327",
"@  c #1B0228",
"#  c #1D0328",
"$  c #1C0329",
"%  c #1E0328",
"&  c #1F0428",
"*  c #1F0528",
"=  c #200428",
"-  c #220629",
";  c #21062A",
":  c #23082B",
">  c #26092A",
",  c #27092A",
"<  c #280A2A",
"1  c #290A2A",
"2  c #2F0E2D",
"3  c #300F2A",
"4  c #300E2C",
"5  c #2E132F",
"6  c #33102A",
"7  c #35112B",
"8  c #3B152C",
"9  c #3A142E",
"0  c #351334",
"q  c #321434",
"w  c #361436",
"e  c #3B1632",
"r  c #371831",
"t  c #361B35",
"y  c #3F1932",
"u  c #372238",
"i  c #3D2E3F",
"p  c #41182A",
"a  c #481C2B",
"s  c #411930",
"d  c #431A31",
"f  c #4A1D36",
"g  c #441E3C",
"h  c #50212D",
"j  c #55252C",
"k  c #5E292C",
"l  c #412130",
"z  c #4F2133",
"x  c #4B243D",
"c  c #44293A",
"v  c #502132",
"b  c #502435",
"n  c #522434",
"m  c #5D2630",
"M  c #5D2836",
"N  c #522B39",
"B  c #46303F",
"V  c #5B3234",
"C  c #642D2D",
"Z  c #612831",
"A  c #622830",
"S  c #602A36",
"D  c #682F30",
"F  c #6A2C33",
"G  c #633B3A",
"H  c #703230",
"J  c #71353A",
"K  c #783938",
"L  c #552647",
"P  c #562C41",
"I  c #5B2D43",
"U  c #582E43",
"Y  c #5D2F41",
"T  c #4D3A42",
"R  c #633242",
"E  c #613349",
"W  c #653749",
"Q  c #6E365A",
"!  c #73395D",
"~  c #783D61",
"^  c #504047",
"/  c #5C4243",
"(  c #58494C",
")  c #74414F",
"_  c #64544F",
"`  c #74514C",
"'  c #774350",
"]  c #7F4955",
"[  c #7C4659",
"{  c #6A5E55",
"}  c #625D5A",
"|  c #60615D",
" . c #6C6D63",
".. c #6F7468",
"X. c #6F796C",
"o. c #823D35",
"O. c #8A4137",
"+. c #82413F",
"@. c #94463B",
"#. c #98493D",
"$. c #A04D3D",
"%. c #A5503E",
"&. c #884440",
"*. c #8C4540",
"=. c #9C4F44",
"-. c #9D5044",
";. c #9F5144",
":. c #984E5E",
">. c #805D51",
",. c #885058",
"<. c #8D535A",
"1. c #955A5F",
"2. c #B05D4B",
"3. c #8D6756",
"4. c #AE644C",
"5. c #B7624B",
"6. c #B36757",
"7. c #BE6B5B",
"8. c #AB7353",
"9. c #AE7D58",
"0. c #874869",
"q. c #965170",
"w. c #9E5378",
"e. c #9F6062",
"r. c #AA6964",
"t. c #AF6B6A",
"y. c #BD6564",
"u. c #B46F6C",
"i. c #B5706D",
"p. c #BB746F",
"a. c #AF657A",
"s. c #BF6778",
"d. c #C56C52",
"f. c #D07454",
"g. c #D67555",
"h. c #E67E5A",
"j. c #E37C5C",
"k. c #DF7964",
"l. c #D77668",
"z. c #D2736E",
"x. c #CB6C72",
"c. c #C0697F",
"v. c #C16A7E",
"b. c #C46B7C",
"n. c #CF7075",
"m. c #C07872",
"M. c #CA7E75",
"N. c #DD7D71",
"B. c #DD8C5C",
"V. c #E58257",
"C. c #EA8156",
"Z. c #E7815D",
"A. c #E5845E",
"S. c #E9855A",
"D. c #ED8F5A",
"F. c #E6925E",
"G. c #EC905B",
"H. c #E9935F",
"J. c #EB975E",
"K. c #EE965F",
"L. c #DF8465",
"P. c #CE9667",
"I. c #D2847B",
"U. c #D7867C",
"Y. c #D9897C",
"T. c #DA9176",
"R. c #E79964",
"E. c #F19D63",
"W. c #E48971",
"Q. c #E08F7F",
"!. c #EC997C",
"~. c #EBA666",
"^. c #EBA867",
"/. c #E8A469",
"(. c #EBAE6A",
"). c #F3A063",
"_. c #F3A766",
"`. c #EAB06B",
"'. c #EAB16B",
"]. c #EAB26C",
"[. c #F2B46C",
"{. c #B05F81",
"}. c #B56283",
"|. c #BB6784",
" X c #BE6F81",
".X c #BD6887",
"XX c #CB7481",
"oX c #C97786",
"OX c #D48283",
"+X c #DA8981",
"@X c #DD8C81",
"#X c #E39181",
"$X c #E59282",
"%X c #EC9887",
"&X c None",
/* pixels */
"&X&X&X&X&X&X&X&X&X&X&X&X@ O O O O O O O O O O O O O O @ &X&X&X&X&X&X&X&X&X&X&X&X",
"&X&X&X&X&X&X&X&X&X&X&X&Xs d d d d d d d d d d d d d d s &X&X&X&X&X&X&X&X&X&X&X&X",
"&X&X&X&X&X&X&X&X&X&X= v *.;.;.=.=.=.=.=.=.=.=.=.=.;.;.*.v = &X&X&X&X&X&X&X&X&X&X",
"&X&X&X&X&X&X&X&X&X, 9 K d.S.S.V.V.V.V.V.V.V.V.V.V.S.S.d.K 9 , &X&X&X&X&X&X&X&X&X",
"&X&X&X&X&X&X&X&X, M &.4.B.).).E.E.E.E.E.E.E.E.E.E.).).B.4.&.M , &X&X&X&X&X&X&X&X",
"&X&X&X&X&X&X&X$ y &.f.F./.(.(.(.(.(.(.(.(.(.(.(.(.(.(./.F.f.&.y $ &X&X&X&X&X&X&X",
"&X&X&X&X&X&Xe S +.6.F._.(.].].].].].].].].].].].].].].(._.F.6.+.S e &X&X&X&X&X&X",
"&X&X&X&X&X+ z -.f.F.~.(.`.`.`.`.`.`.`.`.`.`.`.`.`.`.`.`.(.~.F.f.-.z + &X&X&X&X&X",
"&X&X&X&X&X% b 4.K._.(.].'.'.'.'.'.'.'.'.'.'.'.'.'.'.'.'.].(._.K.4.b % &X&X&X&X&X",
"&X&X&X&X&X% N 8.^.[.`.'.'.'.'.'.'.'.'.'.'.'.'.'.'.'.'.'.'.`.[.^.8.N % &X&X&X&X&X",
"&X&X&X&XX # N 8.~.[.`.(.^.~.~.~.~.~.~.~.~.~.~.~.~.~.~.^.(.`.[.`.9.N # X &X&X&X&X",
"& & & +   . b 4.H._.(.~.J.D.D.G.G.G.G.G.G.G.G.G.G.D.D.J.~.`.[.`.9.N .   + & & & ",
"O - 2 0 0 0 Y 2.S.E.~.R.A.j.j.j.j.j.j.j.j.j.j.j.j.j.j.A.R.^.[.(.9.G r 0 r 2 - O ",
"O 2 L ! ~ ~ :.d.C.D.H.L.z.x.n.n.n.x.x.x.x.x.x.n.n.n.x.z.L.J._.(.P.r.<.<.<.Y 2 O ",
"* w Q w.{.{.s.l.C.C.h.l.b.}.{.{.}.|.|.|.|.|.|.}.{.{.}.b.l.A.J.^./.T.I.I.m.] w * ",
"; e I ! q.}.XXk.h.k.z.n.XXa.0.~ q. XoXoXoXoX Xq.~ 0.a.XXn.z.L.H.E.!.Y.t.<.I e ; ",
"&X&X, w E w.b.k.j.z.v.oXOXt.E g ] M.@X+X+X@XM.] g E t.OXoXc.z.Z.S.W.p.' y , &X&X",
"&X&X&X+ f Q :.f.Z.N.oXOX+Xt.N 2 ' M.$XQ.Q.$XM.' 2 N t.+XoX.Xn.j.g.6.,.I + &X&X&X",
"&X&X&X&X; q R 2.Z.W.U.@X@Xt.P 0 ' M.#XQ.Q.#XM.' 0 P t.U.oX|.z.j.5.J t ; &X&X&X&X",
"&X&X&X&X&X+ f *.2.6.r.m.Y.m.] W 1.I.$XQ.Q.$XI.1.W ] m.I.a.q.y.j.2.b % &X&X&X&X&X",
"&X&X&X&X&X&X&Xv b b P <.M.Y.m.i.M.@X#X#X#X#X@XM.i.m.Y.m.[ L =.g.2.b % &X&X&X&X&X",
"&X&X&X&X&X&X&X# - O 2 R e.m.m.p.p.p.p.p.p.p.p.p.p.m.m.e.Y 8 J 2.-.n & &X&X&X&X&X",
"&X&X&X&X&X&X&X# - 2 p b Y W W W W E E E E E E W W W E Y b a j D I &X&X&X&X&X&X&X",
"&X&X&X&X&X&X&X# 1 p j h 7 1 2 2 2 2 2 2 2 2 2 2 2 2 2 8 h k a 3 < &X&X&X&X&X&X&X",
"&X&X&X&X&X&X&X# 1 a k j p p h m m m m m m m m m A m m A H K k p 6 > &X&X&X&X&X&X",
"&X&X&X&X&X&X&X# 1 p j k k D o.@.@.@.@.@.@.@.@.@.@.@.#.#.$.#.o.C a 3 4 &X&X&X&X&X",
"&X&X&X&X&X&X&X+ - 7 p h k D K O.#.$.%.%.%.%.$.O.J +.2.7.7.6.;.O.k 7 # &X&X&X&X&X",
"&X&X&X&X&X&X&X# - - 1 8 j C C H o.#.$.$.$.$.@.A p R r.U.Y.M.7.=.H 8   &X&X&X&X&X",
"&X&X&X&X&X&X&X&X+ # - 7 h k k C H o.O.O.O.O.o.a 1 U u.$X%XY.6.+.Z 4 , &X&X&X&X&X",
"&X&X&X&X&X&X&X&X&X$ * 7 j k k k C D H H H H C p 1 U u.$X%XU.<.b 4 &X&X&X&X&X&X&X",
"&X&X&X&X&X&X&X&X&Xo : r V G G G G G G V V V V l r U 1.u.p.r.) 4 X &X&X&X&X&X&X&X",
"&X&X&X&X&X&X&X&X&Xo : u ( { { { { { _ ( / / / T T B U U U U x &X&X&X&X&X&X&X&X&X",
"&X&X&X&X&X&X&X&X&XX : i } ..X..... .} ( ^ ^ ^ ^ ^ B q % # @ &X&X&X&X&X&X&X&X&X&X",
"&X&X&X&X&X&X&X&X&XX : i | X.X... .| ( i u u u u u t X &X&X&X&X&X&X&X&X&X&X&X&X&X",
"&X&X&X&X&X&X&X&X&XX : i } .... .} ( B 5 * * * : : > &X&X&X&X&X&X&X&X&X&X&X&X&X&X",
"&X&X&X&X&X&X&X&X&X, : c ` 3.3.>./ c t > o ; o X o &X&X&X&X&X&X&X&X&X&X&X&X&X&X&X",
"&X&X&X&X&X&X&X&X&Xo : h +.=.;.&.N 5 $ &X&X&X&X&X&X&X&X&X&X&X&X&X&X&X&X&X&X&X&X&X",
"&X&X&X&X&X&X&X&X&X&X= v Z H H F f > &X&X&X&X&X&X&X&X&X&X&X&X&X&X&X&X&X&X&X&X&X&X",
"&X&X&X&X&X&X&X&X&X&X&X&X6 7 7 9 , &X&X&X&X&X&X&X&X&X&X&X&X&X&X&X&X&X&X&X&X&X&X&X",
"&X&X&X&X&X&X&X&X&X&X&X&X@ O O # &X&X&X&X&X&X&X&X&X&X&X&X&X&X&X&X&X&X&X&X&X&X&X&X"
};
