/* XPM */
static char *elf_side02_walk51740972529[] = {
/* columns rows colors chars-per-pixel */
"40 40 173 2 ",
"   c #140024",
".  c #170027",
"X  c #190027",
"o  c #1B0127",
"O  c #1A0327",
"+  c #1C0228",
"@  c #1D0328",
"#  c #1E0428",
"$  c #1F0529",
"%  c #200529",
"&  c #210629",
"*  c #220629",
"=  c #24082A",
"-  c #27092A",
";  c #290A29",
":  c #2A0B2A",
">  c #2F0F2C",
",  c #2F112D",
"<  c #34112B",
"1  c #32102D",
"2  c #33112D",
"3  c #31112F",
"4  c #37132E",
"5  c #3A1329",
"6  c #3B142A",
"7  c #3A122C",
"8  c #3B142E",
"9  c #3E1F33",
"0  c #3F1B37",
"q  c #392439",
"w  c #481C2B",
"e  c #401830",
"r  c #401930",
"t  c #421930",
"y  c #411D32",
"u  c #55252C",
"i  c #56252C",
"p  c #432233",
"a  c #4D2033",
"s  c #462837",
"d  c #4C2B38",
"f  c #5A2532",
"g  c #592737",
"h  c #592C30",
"j  c #592836",
"k  c #5E2A37",
"l  c #52263B",
"z  c #4D323C",
"x  c #5E3233",
"c  c #54383C",
"v  c #5D393D",
"b  c #612C2C",
"n  c #6B2E34",
"m  c #673039",
"M  c #67333B",
"N  c #693738",
"B  c #733433",
"V  c #71363B",
"C  c #7A3A3A",
"Z  c #502445",
"A  c #532941",
"S  c #532942",
"D  c #5A2F43",
"F  c #5C3144",
"G  c #613244",
"H  c #713E4F",
"J  c #5C4142",
"K  c #514349",
"L  c #574549",
"P  c #584B4C",
"I  c #664745",
"U  c #6A4242",
"Y  c #6E4541",
"T  c #754843",
"R  c #774F46",
"E  c #7D5447",
"W  c #7C5449",
"Q  c #7C4854",
"!  c #675353",
"~  c #7D605D",
"^  c #7F4162",
"/  c #83433D",
"(  c #88403A",
")  c #92453A",
"_  c #9F4C3C",
"`  c #A34E3C",
"'  c #8C4640",
"]  c #944C41",
"[  c #9C4F43",
"{  c #855347",
"}  c #804E57",
"|  c #8E545B",
" . c #A05445",
".. c #A75747",
"X. c #AF5F52",
"o. c #9D634D",
"O. c #9D6F52",
"+. c #906458",
"@. c #BC644C",
"#. c #BF654C",
"$. c #AE7A5D",
"%. c #985371",
"&. c #A35F6D",
"*. c #A16F67",
"=. c #AB6861",
"-. c #B5706C",
";. c #B06578",
":. c #C6694D",
">. c #C96F50",
",. c #C57C55",
"<. c #C5705D",
"1. c #D77656",
"2. c #DF7953",
"3. c #E67D55",
"4. c #C0766E",
"5. c #CF7C6C",
"6. c #CA7D76",
"7. c #C7757C",
"8. c #B6845A",
"9. c #C08B5C",
"0. c #E68157",
"q. c #EB8056",
"w. c #EF8256",
"e. c #EB8558",
"r. c #EA8759",
"t. c #F28457",
"y. c #F18D5B",
"u. c #E1925E",
"i. c #EB935E",
"p. c #EE985F",
"a. c #DF8264",
"s. c #CF9962",
"d. c #D79D63",
"f. c #CB8277",
"g. c #CB8A71",
"h. c #D5877B",
"j. c #D1857F",
"k. c #DA8B7D",
"l. c #DA9473",
"z. c #DE9C72",
"x. c #DF937A",
"c. c #ED8A69",
"v. c #E69F66",
"b. c #EA9C62",
"n. c #E49968",
"m. c #F19A60",
"M. c #F19E63",
"N. c #E58F7C",
"B. c #E09679",
"V. c #D8A165",
"C. c #E1A667",
"Z. c #EDA164",
"A. c #EBA666",
"S. c #E5AC6A",
"D. c #E7A96E",
"F. c #EAAC6A",
"G. c #EAAE6A",
"H. c #EAAF6B",
"J. c #F3AA67",
"K. c #F1AD69",
"L. c #EAB06B",
"P. c #EBB26B",
"I. c #EBB36B",
"U. c #ECB56B",
"Y. c #F1B16B",
"T. c #F1B56C",
"R. c #F3B86E",
"E. c #E3A173",
"W. c #E5A273",
"Q. c #E6A670",
"!. c #B26183",
"~. c #CA7C81",
"^. c None",
/* pixels */
"^.^.^.^.^.^.^.^.^.^.^.* o O O O O O O O X X X X X + X ^.^.^.^.^.^.^.^.^.^.^.^.^.",
"^.^.^.^.^.^.^.^.^.^.^.q p p p p y y y 8 r r r r r r r ^.^.^.^.^.^.^.^.^.^.^.^.^.",
"^.^.^.^.^.^.^.^.^.^.9 E O.O.O.O.O.o. .[ [ [ [ [  .[ V : ^.^.^.^.^.^.^.^.^.^.^.^.",
"^.^.^.^.^.^.^.^.^.1 v $.S.P.S.S.S.v.r.q.0.0.3.3.q.2.[ a * ^.^.^.^.^.^.^.^.^.^.^.",
"^.^.^.^.^.^.^.^.d W O.s.T.R.U.R.T.K.Z.Z.M.m.y.t.t.q.:.] m 1 ^.^.^.^.^.^.^.^.^.^.",
"^.^.^.^.^.^.^.O v 8.S.F.L.L.L.L.I.F.F.F.P.Z.i.q.q.q.3.2. .a # ^.^.^.^.^.^.^.^.^.",
"^.^.^.^.^.^.^.* v 9.R.T.L.L.L.L.I.S.L.L.U.F.Z.b.r.q.t.t.:.' m r ^.^.^.^.^.^.^.^.",
"^.^.^.^.^.^.^.* v 9.T.T.L.L.F.I.F.I.L.L.L.H.F.Z.i.e.q.q.3.1...j # ^.^.^.^.^.^.^.",
"^.^.^.^.^.^.^.* v 9.R.R.I.I.F.I.L.L.L.L.L.L.L.H.Z.i.r.q.t.t.:.k * ^.^.^.^.^.^.^.",
"^.^.^.^.^.^.^.* v 8.T.T.I.F.I.F.L.L.L.L.L.L.L.L.L.Z.i.e.t.q.@.k * ^.^.^.^.^.^.^.",
"^.^.^.^.^.^.^.* F $.W.W.W.D.P.G.L.L.L.L.L.L.L.L.I.H.b.r.q.t.@.k * ^.^.^.^.^.^.^.",
"^.^.^.^.^.^.^.* A &.~.~.j.z.F.P.L.L.L.L.L.L.L.L.I.H.b.r.t.q.@.k * ^.^.^.^.^.^.^.",
"^.^.^.^.^.^.^.* Z %.!.!.;.f.S.P.L.L.L.H.F.F.F.H.L.F.b.r.t.q.@.b * ^.^.^.^.^.^.^.",
"^.^.^.^.^.^.^.* A &.;.} H $.S.Y.L.L.L.D.W.W.F.H.I.H.b.r.q.t.@.k * ^.^.^.^.^.^.^.",
"^.^.^.^.^.^.^.* F -.-.F y +.C.P.L.L.L.Q.B.k.W.H.I.H.b.r.w.w.@.k * ^.^.^.^.^.^.^.",
"^.^.^.^.^.^.^.* F -.-.A 4 { n.J.H.L.L.Q.B.B.W.H.I.H.b.r.w.w.@.k * ^.^.^.^.^.^.^.",
"^.^.^.^.^.^.^.* F -.-.F r ] 3.b.H.I.L.Q.x.x.E.F.I.F.b.r.q.t.@.k * ^.^.^.^.^.^.^.",
"^.^.^.^.^.^.^.* F -.6.| H X.3.m.F.L.L.W.h.j.z.I.I.I.b.r.t.q.@.k * ^.^.^.^.^.^.^.",
"^.^.^.^.^.^.^.* D -.k.6.4.1.3.m.H.I.L.z.~.7.l.F.I.F.b.r.w.t.@.k * ^.^.^.^.^.^.^.",
"^.^.^.^.^.^.^.+ l | -.h.N.c.e.m.F.U.L.z.6.7.l.F.I.I.b.r.w.t.@.k * ^.^.^.^.^.^.^.",
"^.^.^.^.^.^.^.^.3 g H -.B.c.e.m.Y.U.I.C.c.1.n.I.I.I.b.r.w.t.@.b * ^.^.^.^.^.^.^.",
"^.^.^.^.^.^.^.^.^.+ y | -.<.>.,.9.V.S.Z.c.b.b.I.H.Z.b.e.2.>...g # ^.^.^.^.^.^.^.",
"^.^.^.^.^.^.^.^.^.^.3 A F M m m U O.V.U.J.J.Y.Y.Z.m.y.e.:.' g 8 ^.^.^.^.^.^.^.^.",
"^.^.^.^.^.^.^.^.^.^.^.$ = - : * 4 Y 8.V.V.d.V.d.d.3.3.1.[ a # ^.^.^.^.^.^.^.^.^.",
"^.^.^.^.^.^.^.^.^.^.^.^.. O O < i N T W W W W { :.3.:.' m 8 ^.^.^.^.^.^.^.^.^.^.",
"^.^.^.^.^.^.^.^.^.^.^.^.^.# = f ( B y < < < : y ] >.[ a : ^.^.^.^.^.^.^.^.^.^.^.",
"^.^.^.^.^.^.^.^.^.^.^.^.^.. = f ) ( f r 5 < : 5 M ' V 1 ^.^.^.^.^.^.^.^.^.^.^.^.",
"^.^.^.^.^.^.^.^.^.^.^.^.^.O = f ) ` ) C b i i i w t 1 ^.^.^.^.^.^.^.^.^.^.^.^.^.",
"^.^.^.^.^.^.^.^.^.^.^.^.^.A G C ) ` ` ) B b b i 6 = . ^.^.^.^.^.^.^.^.^.^.^.^.^.",
"^.^.^.^.^.^.^.^.^.^.^.. 4 Q =.X.[ _ _ ) B b b i 6 = O ^.^.^.^.^.^.^.^.^.^.^.^.^.",
"^.^.^.^.^.^.^.^.^.^.^.# 0 | h.5.X.[ ] / N x x h r = + ^.^.^.^.^.^.^.^.^.^.^.^.^.",
"^.^.^.^.^.^.^.^.^.^.^.% 8 | k.N.5.=.W I J J J c y = + ^.^.^.^.^.^.^.^.^.^.^.^.^.",
"^.^.^.^.^.^.^.^.^.^.^.X y } 4.f.f.*.! P P P P K q - O ^.^.^.^.^.^.^.^.^.^.^.^.^.",
"^.^.^.^.^.^.^.^.^.^.^.^.^.S H } +.~ ! P P P P K q % o ^.^.^.^.^.^.^.^.^.^.^.^.^.",
"^.^.^.^.^.^.^.^.^.^.^.^.^.1 3 s L P L L P P P L q * o ^.^.^.^.^.^.^.^.^.^.^.^.^.",
"^.^.^.^.^.^.^.^.^.^.^.^.1 1 0 s c z s z U { { T s - * ^.^.^.^.^.^.^.^.^.^.^.^.^.",
"^.^.^.^.^.^.^.^.^.^.^.* * 0 u b h p , 0 C ] [ ( f > X ^.^.^.^.^.^.^.^.^.^.^.^.^.",
"^.^.^.^.^.^.^.^.^.^.^.# : 5 w w w 5 * 8 g B B n l # ^.^.^.^.^.^.^.^.^.^.^.^.^.^.",
"^.^.^.^.^.^.^.^.^.^.^.* % ; ; ; : : ^.^.1 < < > 8 ^.^.^.^.^.^.^.^.^.^.^.^.^.^.^.",
"^.^.^.^.^.^.^.^.^.^.^.% % % % % + o ^.^.+ O O * ^.^.^.^.^.^.^.^.^.^.^.^.^.^.^.^."
};
