/* XPM */
static char *result[] = {
/* columns rows colors chars-per-pixel */
"40 40 160 2 ",
"   c #180127",
".  c #190127",
"X  c #1A0127",
"o  c #1B0227",
"O  c #1D0328",
"+  c #1D0428",
"@  c #200528",
"#  c #210629",
"$  c #230729",
"%  c #21072A",
"&  c #26082A",
"*  c #280A2A",
"=  c #280B2C",
"-  c #2E0F2F",
";  c #30102B",
":  c #35122E",
">  c #37132E",
",  c #38132B",
"<  c #3C1A2E",
"1  c #371533",
"2  c #3C1B31",
"3  c #381F35",
"4  c #372238",
"5  c #40182E",
"6  c #44182D",
"7  c #401830",
"8  c #431A30",
"9  c #441D30",
"0  c #54212F",
"q  c #54252C",
"w  c #5B262F",
"e  c #432335",
"r  c #4F2132",
"t  c #47213B",
"y  c #4E293C",
"u  c #582633",
"i  c #582E32",
"p  c #5E2A37",
"a  c #5F2B37",
"s  c #49313C",
"d  c #5D3233",
"f  c #5D393D",
"g  c #612B2B",
"h  c #642B30",
"j  c #673037",
"k  c #683139",
"l  c #703433",
"z  c #773937",
"x  c #71363B",
"c  c #502445",
"v  c #512841",
"b  c #542B40",
"n  c #5B2F44",
"m  c #562948",
"M  c #5C2E49",
"N  c #5D3244",
"B  c #503B43",
"V  c #6C3C4C",
"C  c #723E4E",
"Z  c #5A4144",
"A  c #53454A",
"S  c #674241",
"D  c #624F4F",
"F  c #704440",
"G  c #744A43",
"H  c #774F46",
"J  c #7D5447",
"K  c #7B5548",
"L  c #7A4357",
"P  c #794D50",
"I  c #765958",
"U  c #86403A",
"Y  c #904439",
"T  c #8C4640",
"R  c #944B40",
"E  c #9C4F43",
"W  c #8A5647",
"Q  c #9F5345",
"!  c #8E545B",
"~  c #A65444",
"^  c #A3564A",
"/  c #AE5B4A",
"(  c #93644E",
")  c #9D634D",
"_  c #86615F",
"`  c #9B6E51",
"'  c #9E7052",
"]  c #BC644D",
"[  c #BF654C",
"{  c #AC775F",
"}  c #B07C5C",
"|  c #9C5573",
" . c #A35F6D",
".. c #AE6A60",
"X. c #B36E6D",
"o. c #B5716C",
"O. c #AE6478",
"+. c #C5684D",
"@. c #C86B4E",
"#. c #CF6F50",
"$. c #C27058",
"%. c #D77656",
"&. c #DF7953",
"*. c #E67D55",
"=. c #C2766C",
"-. c #CB7776",
";. c #CC747C",
":. c #B6845A",
">. c #BF8B5D",
",. c #E58156",
"<. c #EB8056",
"1. c #EA8357",
"2. c #EE8256",
"3. c #EA8659",
"4. c #E5895A",
"5. c #F18357",
"6. c #F48558",
"7. c #F18C5B",
"8. c #F18D5C",
"9. c #EB935E",
"0. c #DF8065",
"q. c #DF8465",
"w. c #D49B62",
"e. c #CB8077",
"r. c #D58170",
"t. c #D08A77",
"y. c #D1857C",
"u. c #DA8C79",
"i. c #DA9473",
"p. c #E39361",
"a. c #EF9860",
"s. c #E99D63",
"d. c #EA9C62",
"f. c #F19E63",
"g. c #E28371",
"h. c #E38E7F",
"j. c #E09B70",
"k. c #E0947A",
"l. c #D8A165",
"z. c #EDA164",
"x. c #EBA666",
"c. c #E6A069",
"v. c #E6A76E",
"b. c #E5AC69",
"n. c #EAAC6B",
"m. c #EAAE6A",
"M. c #EAAF6B",
"N. c #F3AB67",
"B. c #EAB06B",
"V. c #EAB16B",
"C. c #EBB16B",
"Z. c #EBB36B",
"A. c #ECB46B",
"S. c #F1B46C",
"D. c #F1B76D",
"F. c #E4A173",
"G. c #B26183",
"H. c #C47681",
"J. c #CD7C81",
"K. c None",
/* pixels */
"K.K.K.K.K.K.K.K.K.K.K.$ X X X X X X X X X X X X X @   K.K.K.K.K.K.K.K.K.K.K.K.K.",
"K.K.K.K.K.K.K.K.K.K.K.2 e e e e e 9 8 8 8 8 8 8 8 5 > K.K.K.K.K.K.K.K.K.K.K.K.K.",
"K.K.K.K.K.K.K.K.K.K.2 J ` ' ' ' ` ) Q E E E E E Q E x > K.K.K.K.K.K.K.K.K.K.K.K.",
"K.K.K.K.K.K.K.K.K.; f } b.C.b.b.b.s.4.,.,.,.,.*.<.&.E r $ K.K.K.K.K.K.K.K.K.K.K.",
"K.K.K.K.K.K.K.K.y H ' w.S.D.D.D.S.N.z.f.f.a.7.5.6.<.+.R k : K.K.K.K.K.K.K.K.K.K.",
"K.K.K.K.K.K.K.% f :.b.B.B.B.B.B.B.M.m.m.m.x.9.1.<.<.<.&.~ r # K.K.K.K.K.K.K.K.K.",
"K.K.K.K.K.K.K.# f >.D.D.B.B.B.B.B.V.V.V.Z.m.z.9.3.<.5.5.@.T a 7 K.K.K.K.K.K.K.K.",
"K.K.K.K.K.K.K.# f >.S.S.B.B.B.B.B.B.B.B.B.M.m.x.9.1.<.<.*.%./ u # K.K.K.K.K.K.K.",
"K.K.K.K.K.K.K.# f >.S.D.C.V.B.B.B.B.B.B.B.V.V.m.z.9.3.1.5.6.[ p # K.K.K.K.K.K.K.",
"K.K.K.K.K.K.K.# f >.S.S.C.V.B.B.B.B.B.B.B.B.V.B.n.x.9.3.2.5.[ p # K.K.K.K.K.K.K.",
"K.K.K.K.K.K.K.# N } F.F.F.v.M.V.B.B.B.B.B.B.B.B.V.M.d.3.2.2.] p # K.K.K.K.K.K.K.",
"K.K.K.K.K.K.K.# v  .J.J.y.j.m.C.B.B.B.B.V.V.B.B.V.M.s.3.2.2.] p # K.K.K.K.K.K.K.",
"K.K.K.K.K.K.K.# c | G.G.O.t.b.Z.B.B.B.M.n.n.m.B.V.m.d.3.2.2.] p # K.K.K.K.K.K.K.",
"K.K.K.K.K.K.K.# m  .O.L C { b.D.B.B.B.n.F.F.v.B.V.m.d.3.2.2.] p # K.K.K.K.K.K.K.",
"K.K.K.K.K.K.K.# n X.X.M e ( v.S.B.V.B.v.k.k.F.M.Z.m.d.3.2.2.] p # K.K.K.K.K.K.K.",
"K.K.K.K.K.K.K.# N o.X.v ; W p.N.m.V.B.v.k.k.F.M.Z.m.d.3.2.2.] p # K.K.K.K.K.K.K.",
"K.K.K.K.K.K.K.# N o.o.n 8 R ,.f.n.V.V.v.k.k.F.M.Z.m.d.3.2.2.] p # K.K.K.K.K.K.K.",
"K.K.K.K.K.K.K.# n o.e.! C / ,.a.n.Z.V.F.t.y.j.M.Z.m.d.3.2.2.] p # K.K.K.K.K.K.K.",
"K.K.K.K.K.K.K.# n X.u.e.=.%.1.a.n.A.V.j.J.H.i.m.A.m.d.3.2.2.] p # K.K.K.K.K.K.K.",
"K.K.K.K.K.K.K.O b ! o.y.h.g.0.p.n.D.C.j.-.-.i.M.A.M.d.3.5.5.[ p # K.K.K.K.K.K.K.",
"K.K.K.K.K.K.K.K.1 t C o.h.J.;.u.n.D.C.c.q.0.j.M.A.M.s.3.5.5.[ p # K.K.K.K.K.K.K.",
"K.K.K.K.K.K.K.K.K.O t ! X.O.| X.>.l.b.x.9.9.z.B.M.x.a.3.&.#.^ a # K.K.K.K.K.K.K.",
"K.K.K.K.K.K.K.K.K.K.1 b N M m n S ` l.S.N.N.S.S.x.9.8.5.+.U a 7 K.K.K.K.K.K.K.K.",
"K.K.K.K.K.K.K.K.K.K.K.o = $ & & ; F :.l.l.l.l.w.p.1.*.%.Q r # K.K.K.K.K.K.K.K.K.",
"K.K.K.K.K.K.K.K.K.K.K.K.  % $ , 0 l G K K K K W $.*.+.T k 7 K.K.K.K.K.K.K.K.K.K.",
"K.K.K.K.K.K.K.K.K.K.K.K.K.o * w U z 9 ; ; ; ; 9 R #.E r $ K.K.K.K.K.K.K.K.K.K.K.",
"K.K.K.K.K.K.K.K.K.K.K.K.K.  * w Y U w 6 , ; ; , j T x : K.K.K.K.K.K.K.K.K.K.K.K.",
"K.K.K.K.K.K.K.K.K.K.K.K.K.. * w Y E Y z h q q q 9 5 : K.K.K.K.K.K.K.K.K.K.K.K.K.",
"K.K.K.K.K.K.K.K.K.K.K.K.K.. * j ^ / ~ Y l g g w , @   K.K.K.K.K.K.K.K.K.K.K.K.K.",
"K.K.K.K.K.K.K.K.K.K.K.K.K.. * C o.$.~ Y l g g w , @ . K.K.K.K.K.K.K.K.K.K.K.K.K.",
"K.K.K.K.K.K.K.K.K.K.K.K.K.. - L e.r.] E z d d i < @ . K.K.K.K.K.K.K.K.K.K.K.K.K.",
"K.K.K.K.K.K.K.K.K.K.K.K.K.o - L y.h.r...P Z Z B 3 $ o K.K.K.K.K.K.K.K.K.K.K.K.K.",
"K.K.K.K.K.K.K.K.K.K.K.K.K.+ % V X.e.e.o.I A A B 4 % + K.K.K.K.K.K.K.K.K.K.K.K.K.",
"K.K.K.K.K.K.K.K.K.K.K.K.K.K.K.y V P _ _ D A s 4 2 K.K.K.K.K.K.K.K.K.K.K.K.K.K.K.",
"K.K.K.K.K.K.K.K.K.K.K.K.K.K.K.+ = e Z D D B 3 = + K.K.K.K.K.K.K.K.K.K.K.K.K.K.K.",
"K.K.K.K.K.K.K.K.K.K.K.K.K.K.K.2 u j F G S s , * K.K.K.K.K.K.K.K.K.K.K.K.K.K.K.K.",
"K.K.K.K.K.K.K.K.K.K.K.K.K.+ # r U R R U l q , # K.K.K.K.K.K.K.K.K.K.K.K.K.K.K.K.",
"K.K.K.K.K.K.K.K.K.K.K.K.K.o $ 8 j l l h 0 5 ;   K.K.K.K.K.K.K.K.K.K.K.K.K.K.K.K.",
"K.K.K.K.K.K.K.K.K.K.K.K.K.. @ & , , , ; ; # K.K.K.K.K.K.K.K.K.K.K.K.K.K.K.K.K.K.",
"K.K.K.K.K.K.K.K.K.K.K.K.K.. @ X X X X X X % K.K.K.K.K.K.K.K.K.K.K.K.K.K.K.K.K.K."
};
