/* XPM */
static char *elf_side02_walk21740972529[] = {
/* columns rows colors chars-per-pixel */
"40 40 200 2 ",
"   c #160024",
".  c #180027",
"X  c #190027",
"o  c #1A0127",
"O  c #1B0127",
"+  c #1C0327",
"@  c #1D0327",
"#  c #1D0427",
"$  c #1C0328",
"%  c #1E0428",
"&  c #1E0429",
"*  c #210629",
"=  c #230629",
"-  c #220729",
";  c #22092B",
":  c #24082A",
">  c #25082A",
",  c #2A0B2B",
"<  c #2D0C2B",
"1  c #33102C",
"2  c #33122D",
"3  c #31112E",
"4  c #30122E",
"5  c #34102C",
"6  c #36122D",
"7  c #3A1428",
"8  c #3D162A",
"9  c #38122C",
"0  c #39142F",
"q  c #3A152E",
"w  c #381535",
"e  c #391536",
"r  c #3C293C",
"t  c #4A1C2C",
"y  c #501F2F",
"u  c #421A30",
"i  c #421A31",
"p  c #441B31",
"a  c #401E32",
"s  c #461C31",
"d  c #411A3E",
"f  c #431B3F",
"g  c #431F3C",
"h  c #451E3C",
"j  c #49212E",
"k  c #55252C",
"l  c #58262B",
"z  c #5E2B2C",
"x  c #412235",
"c  c #4F2133",
"v  c #4A2734",
"b  c #45203A",
"n  c #452438",
"m  c #422B3B",
"M  c #592431",
"N  c #5A2733",
"B  c #5F2F30",
"V  c #5E2A36",
"C  c #532538",
"Z  c #52353A",
"A  c #59363D",
"S  c #5D393D",
"D  c #692F2D",
"F  c #622D38",
"G  c #6E3135",
"H  c #61303F",
"J  c #683139",
"K  c #6C3138",
"L  c #6F353A",
"P  c #733435",
"I  c #793835",
"U  c #713E3D",
"Y  c #522843",
"T  c #572A46",
"R  c #592E43",
"E  c #5B2F43",
"W  c #54264B",
"Q  c #5C3044",
"!  c #573E41",
"~  c #663748",
"^  c #733D4C",
"/  c #642F55",
"(  c #723A55",
")  c #783C61",
"_  c #574549",
"`  c #604242",
"'  c #7A5146",
"]  c #7A5247",
"[  c #794552",
"{  c #7F5258",
"}  c #853E37",
"|  c #84433F",
" . c #8D423A",
".. c #90473E",
"X. c #9C4A3C",
"o. c #82464A",
"O. c #954D43",
"+. c #994F44",
"@. c #82594F",
"#. c #9D5044",
"$. c #814B55",
"%. c #8D535A",
"&. c #8F545B",
"*. c #A35445",
"=. c #AA5847",
"-. c #AF5D4D",
";. c #9D634D",
":. c #8A625F",
">. c #9D6F52",
",. c #B9634B",
"<. c #BD644C",
"1. c #A8655A",
"2. c #BE6F51",
"3. c #AC7C57",
"4. c #804265",
"5. c #8D4A6D",
"6. c #985371",
"7. c #A55C75",
"8. c #AC5F7C",
"9. c #BE6E60",
"0. c #B26D6B",
"q. c #B37C61",
"w. c #B5706C",
"e. c #B6677C",
"r. c #BB7470",
"t. c #C2674D",
"y. c #C76B4F",
"u. c #CF6F50",
"i. c #D87552",
"p. c #DF7953",
"a. c #DE7E59",
"s. c #E67D55",
"d. c #E57D5B",
"f. c #CE6E6E",
"g. c #C37466",
"h. c #C57873",
"j. c #CA7E74",
"k. c #D77670",
"l. c #B38259",
"z. c #BE8B5C",
"x. c #D48157",
"c. c #DA8358",
"v. c #E58157",
"b. c #EB8056",
"n. c #EA8357",
"m. c #EF8256",
"M. c #EA8659",
"N. c #EE855A",
"B. c #E8825C",
"V. c #E5895A",
"C. c #F28457",
"Z. c #F18D5B",
"A. c #E8915D",
"S. c #EC945D",
"D. c #EF985F",
"F. c #D49761",
"G. c #D79F64",
"H. c #CE8577",
"J. c #D5877E",
"K. c #DC8C7E",
"L. c #DB9471",
"P. c #D89476",
"I. c #DE9D73",
"U. c #DF937A",
"Y. c #DF927B",
"T. c #E18468",
"R. c #E89663",
"E. c #E59E63",
"W. c #EA9C62",
"Q. c #EA9D62",
"!. c #E49968",
"~. c #F39D62",
"^. c #E0957A",
"/. c #ECA164",
"(. c #EBA566",
"). c #EDA967",
"_. c #E6AB6B",
"`. c #EAAD6A",
"'. c #E8AE6B",
"]. c #EAAE6A",
"[. c #EAAF6B",
"{. c #F3A263",
"}. c #F1AD69",
"|. c #EAB06B",
" X c #EBB16B",
".X c #EBB46B",
"XX c #EAB36C",
"oX c #F1B26B",
"OX c #F0B56D",
"+X c #F4B96E",
"@X c #E4A272",
"#X c #E7A770",
"$X c #B76484",
"%X c #C67482",
"&X c #C87B80",
"*X c #CF7E85",
"=X c #E08E83",
"-X c #E29082",
";X c #ED9987",
":X c None",
/* pixels */
":X:X:X:X:X:X:X:X:X:X:X$ . . . . . . . . X X X X X X X :X:X:X:X:X:X:X:X:X:X:X:X:X",
":X:X:X:X:X:X:X:X:X:X:Xh x x x x x a p p u u u u u p 0 :X:X:X:X:X:X:X:X:X:X:X:X:X",
":X:X:X:X:X:X:X:X:X:Xn ' >.>.>.>.>.;.*.+.#.#.#.+.*.O.L 1 :X:X:X:X:X:X:X:X:X:X:X:X",
":X:X:X:X:X:X:X:X:X2 A 3._. X_.[._.E.V.b.v.d.n.s.b.s.#.c > :X:X:X:X:X:X:X:X:X:X:X",
":X:X:X:X:X:X:X:Xn ] >.F.OX+XOX.X.X}.{.~.~.W.Z.C.C.b.y.O.J 0 :X:X:X:X:X:X:X:X:X:X",
":X:X:X:X:X:X:X% A l._.[.[. X X[.[. X].[.`./.A.n.b.b.s.p.*.c # :X:X:X:X:X:X:X:X:X",
":X:X:X:X:X:X:X- A z.+XOX X[.[. X X X X X X]./.S.M.b.C.C.y...F p :X:X:X:X:X:X:X:X",
":X:X:X:X:X:X:X- Z F.OX.X[. X X[.[. X[. X X[.].(.S.n.b.b.s.i.=.N % :X:X:X:X:X:X:X",
":X:X:X:X:X:X:X- S z..XOX X X[. X X X X'. X XXX|./.A.M.M.C.C.t.F - :X:X:X:X:X:X:X",
":X:X:X:X:X:X:X- S z.OXOX X X X[.'.'. X X X X X_.`.(.S.M.C.b.<.V - :X:X:X:X:X:X:X",
":X:X:X:X:X:X:X- A q.@X@X@X_.]..X X X X X[. X[. X.X[.W.M.C.C.<.V - :X:X:X:X:X:X:X",
":X:X:X:X:X:X:X- Y 7.&X*XH.I.]..X X'. X_. X X X[..X[.W.M.C.s.<.V - :X:X:X:X:X:X:X",
":X:X:X:X:X:X:X- Y 6.$X8.8.J.(..X X X X X]._.[. X.X`.Q.M.s.s.t.F - :X:X:X:X:X:X:X",
":X:X:X:X:X:X:X- Y 7.e.4.( 1.A.)._.XX X_.@X@X#X[..X`.Q.M.C.C.t.N - :X:X:X:X:X:X:X",
":X:X:X:X:X:X:X- E 0.w.Q u ..a.S.).]. X#X^.Y.@X[..X].Q.n.C.C.<.N - :X:X:X:X:X:X:X",
":X:X:X:X:X:X:X- Q w.w.Y , ^ f.T.R.(.'.#X^.Y.@X X X].Q.C.s.s.<.F - :X:X:X:X:X:X:X",
":X:X:X:X:X:X:X- Q w.0.R e ( $Xk.B.W.(.#XU.Y.@X[. X].W.M.b.b.<.V - :X:X:X:X:X:X:X",
":X:X:X:X:X:X:X- Q w.j.@.( 5.$Xf.d.S.).@XJ.J.I. XXX].W.M.C.C.<.V - :X:X:X:X:X:X:X",
":X:X:X:X:X:X:X- Q 0.J.H.r.e.$Xf.s.S.).^.&X%XP.[.XX|.W.M.b.C.<.V - :X:X:X:X:X:X:X",
":X:X:X:X:X:X:X- C &.7.=X=X=X%Xk.B.D.).@Xj.h.L.].XX|.W.M.C.C.<.V - :X:X:X:X:X:X:X",
":X:X:X:X:X:X:X:Xe h ^ w.-X=XJ.T.M.D.).@XT.T.!.|..X`.Q.M.m.C.t.V ; :X:X:X:X:X:X:X",
":X:X:X:X:X:X:X:X:X= b &.r.h.r.y.y.x.E./.S.A./.|.`.(.D.M.p.u.*.N # :X:X:X:X:X:X:X",
":X:X:X:X:X:X:X:X:X:Xe Y ~ ~ ~ Q J #.c.~.{.).oXoX(.S.Z.M.t.| F u :X:X:X:X:X:X:X:X",
":X:X:X:X:X:X:X:X:X:X:X, > > = = 2 K ,.c.F.G.G.G.A.M.s.i.*.c > :X:X:X:X:X:X:X:X:X",
":X:X:X:X:X:X:X:X:X:X:X@     - 9 k G I o.] ] ' @.y.s.t...J 2 :X:X:X:X:X:X:X:X:X:X",
":X:X:X:X:X:X:X:X:X:X:X> > % , N } P u 3 3 2 2 a O.u.+.p @ :X:X:X:X:X:X:X:X:X:X:X",
":X:X:X:X:X:X:X:X:X:Xe T W e , t I I M y t t t y P | L 2 :X:X:X:X:X:X:X:X:X:X:X:X",
":X:X:X:X:X:X:X:X:X@ d 4.5.W , 7 z I }  . . . .} V a 0 :X:X:X:X:X:X:X:X:X:X:X:X:X",
":X:X:X:X:X:X:X:X:X$ f 5.7./ , 7 l P } ..X.*.-.-.o.E n :X:X:X:X:X:X:X:X:X:X:X:X:X",
":X:X:X:X:X:X:X:X:X$ f 5.7./ , 7 l D D I ..=.9.j.h.0.[ 2 @ :X:X:X:X:X:X:X:X:X:X:X",
":X:X:X:X:X:X:X:X:X$ h ) 4.W , 7 l z z D } #.g.K.;XK.%.e # :X:X:X:X:X:X:X:X:X:X:X",
":X:X:X:X:X:X:X:X:X:X:Xh f 3 = 7 l z z z D | 9.=X;XK.%.e # :X:X:X:X:X:X:X:X:X:X:X",
":X:X:X:X:X:X:X:X:X:X:X2 , > > p D B B B z U 1.H.H.r.$.7 X :X:X:X:X:X:X:X:X:X:X:X",
":X:X:X:X:X:X:X:X:X:X2 N M 9 = a A ` _ A S _ @.:.{ ^ R :X:X:X:X:X:X:X:X:X:X:X:X:X",
":X:X:X:X:X:X:X:X:X% 8 P  .N 3 x ! _ _ _ _ _ _ _ m 2 - :X:X:X:X:X:X:X:X:X:X:X:X:X",
":X:X:X:X:X:X:X:X:X$ 7 I X.} V v r r r r r m Z Z v 8 2 @ :X:X:X:X:X:X:X:X:X:X:X:X",
":X:X:X:X:X:X:X:X:X$ 7 P X.X.} V 2 ; ; ; ; 4 j D z k 8 - @ :X:X:X:X:X:X:X:X:X:X:X",
":X:X:X:X:X:X:X:X:X:X5 N K P G C - @ . . X ; 6 t t t 9 = # :X:X:X:X:X:X:X:X:X:X:X",
":X:X:X:X:X:X:X:X:X:X:X2 9 9 2 5 :X:X:X:X:X:X> < , , > ; > :X:X:X:X:X:X:X:X:X:X:X",
":X:X:X:X:X:X:X:X:X:X:X@ X X @ $ :X:X:X:X:X:X. > $ % % % @ :X:X:X:X:X:X:X:X:X:X:X"
};
