/* XPM */
static char *elf_side01_walk51740972316[] = {
/* columns rows colors chars-per-pixel */
"40 40 172 2 ",
"   c #140024",
".  c #170027",
"X  c #190027",
"o  c #1B0127",
"O  c #1A0327",
"+  c #1C0228",
"@  c #1D0328",
"#  c #1E0428",
"$  c #1F0529",
"%  c #200529",
"&  c #210629",
"*  c #220629",
"=  c #24082A",
"-  c #27092A",
";  c #290A29",
":  c #2A0B2A",
">  c #2F0F2C",
",  c #2F112D",
"<  c #34112B",
"1  c #32102D",
"2  c #33112D",
"3  c #31112F",
"4  c #37132E",
"5  c #3A1329",
"6  c #3B142A",
"7  c #3A122C",
"8  c #3B142E",
"9  c #3E1F33",
"0  c #3F1B37",
"q  c #392439",
"w  c #481C2B",
"e  c #401830",
"r  c #401930",
"t  c #421930",
"y  c #411D32",
"u  c #55252C",
"i  c #56252C",
"p  c #432233",
"a  c #4D2033",
"s  c #462837",
"d  c #4C2B38",
"f  c #5A2532",
"g  c #592737",
"h  c #592C30",
"j  c #592836",
"k  c #5E2A37",
"l  c #52263B",
"z  c #4D323C",
"x  c #5E3233",
"c  c #54383C",
"v  c #5D393D",
"b  c #612C2C",
"n  c #6B2E34",
"m  c #673039",
"M  c #67333B",
"N  c #693738",
"B  c #733433",
"V  c #71363B",
"C  c #7A3A3A",
"Z  c #502445",
"A  c #532941",
"S  c #532942",
"D  c #5A2F43",
"F  c #5C3144",
"G  c #613244",
"H  c #713E4F",
"J  c #5C4142",
"K  c #514349",
"L  c #574549",
"P  c #584B4C",
"I  c #664745",
"U  c #6A4242",
"Y  c #6E4541",
"T  c #754843",
"R  c #774F46",
"E  c #7D5447",
"W  c #7C5449",
"Q  c #7C4854",
"!  c #675353",
"~  c #7D605D",
"^  c #7F4162",
"/  c #83433D",
"(  c #88403A",
")  c #92453A",
"_  c #9F4C3C",
"`  c #A34E3C",
"'  c #8C4640",
"]  c #944C41",
"[  c #9C4F43",
"{  c #855347",
"}  c #804E57",
"|  c #8E545B",
" . c #A05445",
".. c #A75747",
"X. c #AF5F52",
"o. c #9D634D",
"O. c #9D6F52",
"+. c #906458",
"@. c #BC644C",
"#. c #BF654C",
"$. c #AF7A5D",
"%. c #985371",
"&. c #A35F6D",
"*. c #A16F67",
"=. c #AB6861",
"-. c #B5706C",
";. c #B06578",
":. c #C6694D",
">. c #C96F50",
",. c #C57C55",
"<. c #C5705D",
"1. c #D77656",
"2. c #DF7953",
"3. c #E67D55",
"4. c #C0766E",
"5. c #CF7C6C",
"6. c #CA7D76",
"7. c #C7757C",
"8. c #B6845A",
"9. c #C08B5C",
"0. c #E58157",
"q. c #EB8056",
"w. c #EA8357",
"e. c #EF8256",
"r. c #EB8759",
"t. c #F28457",
"y. c #E1925E",
"u. c #EB935E",
"i. c #EE985F",
"p. c #DF8264",
"a. c #CF9962",
"s. c #D79D63",
"d. c #CB8277",
"f. c #CB8A71",
"g. c #D5877B",
"h. c #D1857F",
"j. c #DA8B7D",
"k. c #DA9473",
"l. c #DE9C72",
"z. c #DF937A",
"x. c #EF8B62",
"c. c #E69F66",
"v. c #EA9C62",
"b. c #E49968",
"n. c #F19A60",
"m. c #F19E63",
"M. c #E58F7C",
"N. c #E09679",
"B. c #D8A165",
"V. c #E1A667",
"C. c #EDA164",
"Z. c #EBA666",
"A. c #E5AC6A",
"S. c #E7A96E",
"D. c #EAAC6A",
"F. c #EAAE6A",
"G. c #EAAF6B",
"H. c #F3AA67",
"J. c #F1AD69",
"K. c #EAB06B",
"L. c #EBB26B",
"P. c #EBB36B",
"I. c #ECB56B",
"U. c #F1B16B",
"Y. c #F1B56C",
"T. c #F3B86E",
"R. c #E3A173",
"E. c #E5A273",
"W. c #E6A670",
"Q. c #B26183",
"!. c #CA7C81",
"~. c None",
/* pixels */
"~.~.~.~.~.~.~.~.~.~.~.~.~.. + X X X X X X X X X X X X X & ~.~.~.~.~.~.~.~.~.~.~.",
"~.~.~.~.~.~.~.~.~.~.~.~.~.r r r r r r r r 9 y p p p p p 9 ~.~.~.~.~.~.~.~.~.~.~.",
"~.~.~.~.~.~.~.~.~.~.~.~.: V [  .[ [ [ [ [  .o.O.O.O.O.O.{ q ~.~.~.~.~.~.~.~.~.~.",
"~.~.~.~.~.~.~.~.~.~.~.& a [ 3.3.3.0.0.0.3.r.c.A.A.A.P.A.$.v 1 ~.~.~.~.~.~.~.~.~.",
"~.~.~.~.~.~.~.~.~.~.1 m ] :.q.t.t.x.n.m.m.C.J.Y.Y.Y.T.I.a.O.R d ~.~.~.~.~.~.~.~.",
"~.~.~.~.~.~.~.~.~.# a  .2.q.q.e.q.u.Z.F.D.F.G.P.L.G.P.F.F.A.8.v # ~.~.~.~.~.~.~.",
"~.~.~.~.~.~.~.~.r m ' :.e.t.3.r.u.C.F.P.P.G.P.G.G.P.L.L.T.T.8.N & ~.~.~.~.~.~.~.",
"~.~.~.~.~.~.~.# g ..1.3.q.q.w.u.Z.F.G.G.G.G.G.G.G.G.L.L.T.T.8.v & ~.~.~.~.~.~.~.",
"~.~.~.~.~.~.~.& k #.t.t.w.r.u.C.A.P.K.G.P.G.P.G.G.P.G.P.Y.Y.9.v & ~.~.~.~.~.~.~.",
"~.~.~.~.~.~.~.& k #.e.e.w.u.Z.D.P.K.K.G.G.G.G.G.G.G.G.P.Y.Y.9.v & ~.~.~.~.~.~.~.",
"~.~.~.~.~.~.~.& k @.e.e.r.v.L.L.G.G.P.G.G.G.P.G.G.G.S.R.E.R.$.F & ~.~.~.~.~.~.~.",
"~.~.~.~.~.~.~.& k #.e.e.r.v.F.L.G.P.G.G.G.P.G.G.P.G.l.h.!.!.&.S & ~.~.~.~.~.~.~.",
"~.~.~.~.~.~.~.& k @.e.e.r.v.F.L.G.F.F.D.G.G.G.G.P.A.f.;.Q.Q.%.Z & ~.~.~.~.~.~.~.",
"~.~.~.~.~.~.~.& k @.e.e.r.v.F.L.G.S.R.R.S.P.G.P.Y.A.$.H ^ ;.&.S & ~.~.~.~.~.~.~.",
"~.~.~.~.~.~.~.& k @.e.e.r.v.F.L.G.E.z.z.W.G.F.F.Y.V.+.p F -.-.F & ~.~.~.~.~.~.~.",
"~.~.~.~.~.~.~.& k @.e.e.r.v.F.L.G.W.z.z.W.L.L.D.J.y.{ 2 S -.-.F & ~.~.~.~.~.~.~.",
"~.~.~.~.~.~.~.& k @.e.e.r.v.F.P.G.R.z.z.S.L.P.F.m.0.] t D -.-.D & ~.~.~.~.~.~.~.",
"~.~.~.~.~.~.~.& k #.e.e.r.v.F.P.G.l.h.g.N.P.P.F.i.0.X.H | 6.-.G & ~.~.~.~.~.~.~.",
"~.~.~.~.~.~.~.& k @.e.e.r.v.F.P.F.k.7.!.l.G.P.D.i.q.1.4.6.j.-.D & ~.~.~.~.~.~.~.",
"~.~.~.~.~.~.~.& k #.t.e.r.v.L.P.G.k.7.6.l.P.L.F.i.r.x.N.g.-.| l + ~.~.~.~.~.~.~.",
"~.~.~.~.~.~.~.& k #.t.e.r.v.F.L.G.b.3.p.c.L.I.Y.n.e.x.M.-.H g 3 ~.~.~.~.~.~.~.~.",
"~.~.~.~.~.~.~.# g ..>.2.r.i.Z.F.P.C.u.u.S.S.B.9.,.>.4.-.| y + ~.~.~.~.~.~.~.~.~.",
"~.~.~.~.~.~.~.~.8 j / :.t.x.u.Z.J.Y.J.J.Y.B.O.U M M M G l 3 ~.~.~.~.~.~.~.~.~.~.",
"~.~.~.~.~.~.~.~.~.@ a  .1.3.r.y.s.B.s.s.B.8.Y 1 * ; - % % ~.~.~.~.~.~.~.~.~.~.~.",
"~.~.~.~.~.~.~.~.~.~.8 m ' :.3.>.{ W W W W T N u < o X   ~.~.~.~.~.~.~.~.~.~.~.~.",
"~.~.~.~.~.~.~.~.~.~.~.: a [ >.] y ; < < 1 y B ( f = & ~.~.~.~.~.~.~.~.~.~.~.~.~.",
"~.~.~.~.~.~.~.~.~.~.~.~.1 V ' M 6 ; 2 6 r f ( ) f =   ~.~.~.~.~.~.~.~.~.~.~.~.~.",
"~.~.~.~.~.~.~.~.~.~.~.~.~.1 r w i i u b C ) _ ) f = o ~.~.~.~.~.~.~.~.~.~.~.~.~.",
"~.~.~.~.~.~.~.~.~.~.~.~.~.X = 6 i b b B ) ` ` ) C G A ~.~.~.~.~.~.~.~.~.~.~.~.~.",
"~.~.~.~.~.~.~.~.~.~.~.~.~.X = 6 i b b B ) _ _ [ X.=.Q 1   ~.~.~.~.~.~.~.~.~.~.~.",
"~.~.~.~.~.~.~.~.~.~.~.~.~.X = t h x x N ' '  .X.5.g.| r # ~.~.~.~.~.~.~.~.~.~.~.",
"~.~.~.~.~.~.~.~.~.~.~.~.~.o = y c J J J I { =.5.N.j.| r # ~.~.~.~.~.~.~.~.~.~.~.",
"~.~.~.~.~.~.~.~.~.~.~.~.~.o = q K P P P P ! *.d.d.-.} y + ~.~.~.~.~.~.~.~.~.~.~.",
"~.~.~.~.~.~.~.~.~.~.~.~.~.X = q K P P P P ! ~ +.Q Q S ~.~.~.~.~.~.~.~.~.~.~.~.~.",
"~.~.~.~.~.~.~.~.~.~.~.~.~.+ = q L P P P L L P L s > > ~.~.~.~.~.~.~.~.~.~.~.~.~.",
"~.~.~.~.~.~.~.~.~.~.~.~.~.# ; s T { { U z d z c s r 2 3 ~.~.~.~.~.~.~.~.~.~.~.~.",
"~.~.~.~.~.~.~.~.~.~.~.~.~.. , f ( [ ] C y , p h b u r & & ~.~.~.~.~.~.~.~.~.~.~.",
"~.~.~.~.~.~.~.~.~.~.~.~.~.~.# l n B B g 7 & 5 w w w 7 ; # ~.~.~.~.~.~.~.~.~.~.~.",
"~.~.~.~.~.~.~.~.~.~.~.~.~.~.~.8 > < 2 1 ~.~.; ; ; ; ; % & ~.~.~.~.~.~.~.~.~.~.~.",
"~.~.~.~.~.~.~.~.~.~.~.~.~.~.~.~.& X X # ~.~.+ + & & & % & ~.~.~.~.~.~.~.~.~.~.~."
};
