/* XPM */
static char *elf_side01_walk31740972282[] = {
/* columns rows colors chars-per-pixel */
"40 40 177 2 ",
"   c #150024",
".  c #190027",
"X  c #190227",
"o  c #1B0327",
"O  c #190128",
"+  c #1A0128",
"@  c #1D0328",
"#  c #1F0429",
"$  c #200529",
"%  c #210529",
"&  c #220529",
"*  c #210629",
"=  c #24082B",
"-  c #27092A",
";  c #290C2A",
":  c #2B0C2A",
">  c #2D0C2A",
",  c #2D0E2E",
"<  c #300F2D",
"1  c #320E2C",
"2  c #37102B",
"3  c #31122D",
"4  c #3B152A",
"5  c #3E1629",
"6  c #39142F",
"7  c #341330",
"8  c #381B31",
"9  c #3E1932",
"0  c #3E1F33",
"q  c #461A2B",
"w  c #41192E",
"e  c #4D1D2E",
"r  c #401830",
"t  c #431B31",
"y  c #4D1E30",
"u  c #58262E",
"i  c #5E2E2F",
"p  c #422335",
"a  c #4C2132",
"s  c #4D2033",
"d  c #422D3B",
"f  c #4C2B38",
"g  c #522336",
"h  c #592836",
"j  c #5A2836",
"k  c #5C2B35",
"l  c #5E2936",
"z  c #47303E",
"x  c #51353B",
"c  c #5B373C",
"v  c #5A3D3D",
"b  c #612A33",
"n  c #662D30",
"m  c #652F38",
"M  c #6E3131",
"N  c #69323A",
"B  c #60393C",
"V  c #71363B",
"C  c #743838",
"Z  c #502445",
"A  c #542B41",
"S  c #552843",
"D  c #563341",
"F  c #5D3046",
"G  c #683847",
"H  c #713F4D",
"J  c #713D55",
"K  c #574448",
"L  c #5E4A4B",
"P  c #654143",
"I  c #6E4441",
"U  c #694949",
"Y  c #7C4543",
"T  c #774B44",
"R  c #774F46",
"E  c #7D5447",
"W  c #7A5448",
"Q  c #7B4356",
"!  c #813C36",
"~  c #89403A",
"^  c #8E463D",
"/  c #964A3F",
"(  c #9D4F43",
")  c #994F44",
"_  c #8A5646",
"`  c #9F5345",
"'  c #8E545B",
"]  c #835C5A",
"[  c #A75646",
"{  c #B05D4D",
"}  c #A25750",
"|  c #99634D",
" . c #9D6E51",
".. c #9E7052",
"X. c #BC644C",
"o. c #BF654C",
"O. c #AC7C57",
"+. c #AC775F",
"@. c #9F5F6B",
"#. c #9C5472",
"$. c #AD5A63",
"%. c #926964",
"&. c #B26E69",
"*. c #B37C61",
"=. c #B6706D",
"-. c #AA6274",
";. c #B86979",
":. c #BB7570",
">. c #C5694E",
",. c #CA6F50",
"<. c #D87552",
"1. c #DE7853",
"2. c #E57C55",
"3. c #CC7364",
"4. c #C26A7B",
"5. c #CA7A70",
"6. c #CF7F70",
"7. c #C97F75",
"8. c #C7757C",
"9. c #D27170",
"0. c #B38259",
"q. c #BD8A5C",
"w. c #E48157",
"e. c #EA8057",
"r. c #EE8156",
"t. c #EF8257",
"y. c #EA8258",
"u. c #EA8659",
"i. c #E5885F",
"p. c #F28457",
"a. c #F18D5B",
"s. c #E2935D",
"d. c #EB915D",
"f. c #EB945E",
"g. c #F0965C",
"h. c #DC8460",
"j. c #D49B62",
"k. c #CB8A71",
"l. c #CE8378",
"z. c #D1857E",
"x. c #D4897C",
"c. c #DA9473",
"v. c #DE9C73",
"b. c #DF937A",
"n. c #E69B65",
"m. c #EE9960",
"M. c #EC9D62",
"N. c #E09679",
"B. c #E0957A",
"V. c #D8A065",
"C. c #E3A666",
"Z. c #E9A065",
"A. c #ECA465",
"S. c #EDA966",
"D. c #E7A76F",
"F. c #E6AC6B",
"G. c #EAAD6A",
"H. c #EAAE6A",
"J. c #EAAF6B",
"K. c #F4AC67",
"L. c #F1AD69",
"P. c #EAB06B",
"I. c #EBB06B",
"U. c #EBB16B",
"Y. c #EBB36B",
"T. c #EBB56B",
"R. c #F1B36C",
"E. c #F1B66C",
"W. c #F4B96E",
"Q. c #E4A273",
"!. c #AB5C80",
"~. c #BC6886",
"^. c #CB7B85",
"/. c #DD8B81",
"(. c #E19180",
"). c #EA9686",
"_. c None",
/* pixels */
"_._._._._._._._._._._._._.X * X X X X X X X X X X X + X * _._._._._._._._._._._.",
"_._._._._._._._._._._._._.6 w w t t t t t t t p p p p p 0 _._._._._._._._._._._.",
"_._._._._._._._._._._._.1 N ` ` ( ` ( ( ` ` |  . . . . .E 0 _._._._._._._._._._.",
"_._._._._._._._._._._.* s ` 1.t.2.w.w.2.w.i.n.F.F.F.P.F.O.c ; _._._._._._._._._.",
"_._._._._._._._._._.6 m / >.t.p.p.a.m.M.M.A.L.E.E.E.W.E.j...R f _._._._._._._._.",
"_._._._._._._._._.* s [ 1.e.e.e.e.d.A.H.H.H.P.P.P.P.P.J.H.F.0.c X _._._._._._._.",
"_._._._._._._._.w m ^ >.t.p.e.u.f.n.H.T.I.P.P.P.P.P.P.P.E.W.q.B * _._._._._._._.",
"_._._._._._._.; j [ <.2.e.e.e.f.A.H.I.I.H.P.P.P.P.P.J.J.R.E.q.B * _._._._._._._.",
"_._._._._._._.* k o.p.p.e.u.d.Z.I.U.P.P.P.P.P.P.P.P.U.U.E.E.q.B * _._._._._._._.",
"_._._._._._._.* k o.t.t.u.f.A.H.P.U.P.P.P.P.P.P.P.P.U.U.E.E.q.B * _._._._._._._.",
"_._._._._._._.* k X.t.t.u.M.I.I.P.P.P.P.P.P.P.P.P.P.D.Q.Q.Q.*.D * _._._._._._._.",
"_._._._._._._.* l X.t.t.u.M.I.I.P.P.P.P.P.P.P.P.U.H.v.z.^.^.$.S * _._._._._._._.",
"_._._._._._._.* l X.p.p.y.M.J.I.P.H.F.H.P.P.P.P.T.P.k.-.!.~.#.Z * _._._._._._._.",
"_._._._._._._.* l X.2.p.y.M.J.I.P.D.Q.Q.F.P.P.P.W.V.+.Q Q ;.-.Z * _._._._._._._.",
"_._._._._._._.* l X.t.p.u.M.I.Y.J.Q.b.N.D.P.P.P.T.D.| p F =.&.F * _._._._._._._.",
"_._._._._._._.* l X.t.2.u.M.J.Y.J.Q.b.N.D.P.Y.J.L.s._ 3 A &.=.F * _._._._._._._.",
"_._._._._._._.* k X.t.t.u.M.I.Y.J.Q.b.b.D.J.U.H.M.w.) w F &.=.F * _._._._._._._.",
"_._._._._._._.* l X.t.t.u.M.H.Y.J.v.z.x.Q.H.S.n.i.3.} H ' 7.=.F * _._._._._._._.",
"_._._._._._._.* l X.t.t.u.M.H.P.H.c.8.^.v.S.m.i.9.4.;.:.7./.&.F * _._._._._._._.",
"_._._._._._._.* k X.p.t.u.M.H.T.J.c.8.5.v.S.g.y.9.~.^./.x.=.' S # _._._._._._._.",
"_._._._._._._.* k o.p.t.u.M.I.T.J.n.h.h.Z.S.g.y.9.~.^./.=.H g 7 _._._._._._._._.",
"_._._._._._._.* j [ ,.2.u.m.S.I.P.A.d.f.S.C.h.>.$.#.-.=.' t @ _._._._._._._._._.",
"_._._._._._._._.t m ! >.p.a.f.Z.R.R.S.K.E.V.| N S S F F S 7 _._._._._._._._._._.",
"_._._._._._._._._.* y [ <.2.e.s.j.V.V.V.V.q.I 3 = = * * * _._._._._._._._._._._.",
"_._._._._._._._._._.t m ^ >.2.,._ W W W W T B u 2 # o X _._._._._._._._._._._._.",
"_._._._._._._._._._._.* y ( >.) t - < 1 3 y C ! u - + _._._._._._._._._._._._._.",
"_._._._._._._._._._._._., V ) n 4 2 q e e l ! ) k - + _._._._._._._._._._._._._.",
"_._._._._._._._._._._._._.6 4 q u M ! ) ! ^ / ^ u - + _._._._._._._._._._._._._.",
"_._._._._._._._._._._._._.+ & y Y } { { [ ` / ! e - + _._._._._._._._._._._._._.",
"_._._._._._._._._._._._._.  , G &.l.6.3.{ / ! n q - + _._._._._._._._._._._._._.",
"_._._._._._._._._._._._._.  , Q 7.).B.5.} ~ M u 4 - + _._._._._._._._._._._._._.",
"_._._._._._._._._._._._._.  1 Q z.).b.5./ M n u 4 - + _._._._._._._._._._._._._.",
"_._._._._._._._._._._._._.  , H :.x.l.&.Y i i k 4 - X _._._._._._._._._._._._._.",
"_._._._._._._._._._._._._.+ - D ] %.%.] U v v x 8 # X _._._._._._._._._._._._._.",
"_._._._._._._._._._._._._.+ - p K L L L K K L K p , * _._._._._._._._._._._._._.",
"_._._._._._._._._._._._._.* * 8 x v v x d z P T C b y 7 _._._._._._._._._._._._.",
"_._._._._._._._._._._._._.+ - 4 u k i a 3 8 N ^ / ~ b > + _._._._._._._._._._._.",
"_._._._._._._._._._._._._._.* 9 w q q q * 1 g M C M e - * _._._._._._._._._._._.",
"_._._._._._._._._._._._._._._.+ > ; > - _._.1 2 2 2 > - * _._._._._._._._._._._.",
"_._._._._._._._._._._._._._._._.* # # * _._.  * X @ # # * _._._._._._._._._._._."
};
