/* XPM */
static char *result[] = {
/* columns rows colors chars-per-pixel */
"40 40 53 1 ",
"  c black",
". c #040404",
"X c #060606",
"o c #090909",
"O c gray4",
"+ c #0C0C0C",
"@ c gray5",
"# c gray6",
"$ c gray9",
"% c #191919",
"& c #232323",
"* c gray15",
"= c #353535",
"- c gray25",
"; c #494949",
": c #4C4C4C",
"> c gray31",
", c gray35",
"< c gray39",
"1 c gray44",
"2 c #727272",
"3 c gray49",
"4 c gray50",
"5 c #818181",
"6 c gray55",
"7 c #989898",
"8 c #9B9B9B",
"9 c #A5A5A5",
"0 c #A9A9A9",
"q c #B2B2B2",
"w c gray70",
"e c gray71",
"r c #BCBCBC",
"t c gray75",
"y c #C1C1C1",
"u c gray79",
"i c gray83",
"p c #D8D8D8",
"a c gray88",
"s c #E4E4E4",
"d c #E7E7E7",
"f c #EAEAEA",
"g c gray92",
"h c gray95",
"j c #F3F3F3",
"k c #F4F4F4",
"l c #F6F6F6",
"z c #F8F8F8",
"x c #F9F9F9",
"c c #FBFBFB",
"v c #FDFDFD",
"b c #FEFEFE",
"n c white",
/* pixels */
" o@@@@@@@@+.X@@@@@@@@@@@@@@@@@@@@@@@@@o ",
"o3qqqqqqqq0=,qqqqqqqqqqqqqqqqqqqqqqqqq3o",
"@wnnnnnnnnh:4nnnnnnnnnnnnz9tnnnnnnnnnnq@",
"@wnnnnnnnnh:4nncupnnnnnnje=,ucnnnnjydnq@",
"@wnnnnnnnnh:4nxi;2svnnnna>#%1knnnjr=8gq@",
"@wnnnnnnnnh:4na>#%1knnnnxi;2svnnny=O&7q@",
"@wnnnnnnnnh:4nje=,ucnnnnncupnnnnnd8&3pq@",
"@wnnnnnnnnh:4nnz9tnnnnnnnnnnnnnnnng7pnq@",
"@wnnnnnnnnh:4nnnnnnnnnnnnnnnnnnnnnnnnnq@",
"@wnnnnnnnnh:4nnnnnnnnnnnnnnnnnnnnnnnnnq@",
"@wnnnnnnnnh:4nnnnnnnnnnnnnnnnnnnnnnnnnq@",
"@wnnnnnnnnh:4nnnnnnnnnnnnnnnnnnnnnnnnnq@",
"@wnnnnnnnnh:4nnnnnnnnnnng7pnnnnnnnnnnnq@",
"@wnnnnnnnnh:4nnnnnnnnnnd8&3pnnnnnnnnnnq@",
"@wnnnnnnnnh:4nnnnnnnnnny=O&7nnnnnnnnnnq@",
"@wnnnnnnnnh:4nvkcnnnnnnjr=8gnnnnnnnnnnq@",
"@wnnnnnnnnh:4ns1unnnnnnnjydnnnnnnnnnnnq@",
"@wnnnnnnnnh:4p2%,tnnnnnnnnnnnnnnnnnnnnq@",
"@wnnnnnnnnh:4u;#=9nnnnnnnnnnnnnnnnnnnnq@",
"@wnnnnnnnnh:4ci>eznnnnnnnnnnnnnnnnnnnnq@",
"@wnnnnnnnnh:4nxajnnnnnnnnnnnnnnnnnvkcnq@",
"@wnnnnnnnnh:4nnnnnnnnnnnnnnnnnnnnns1unq@",
"@wnnnnnnnnh:4nnnnnnnnnnnnnnnnnnnnp2%,tq@",
"@wnnnnnnnnh:4nnnnnnnnnnnnnnnnnnnnu;#=9q@",
"@wnnnnnnnnh:4nnnnnnnvsgnnnnnnnnnnci>ezq@",
"@wnnnnnnnnh:4nnnnnnvf<6lbnnnnnnnnnxajnq@",
"@wnnnnnnnnh:4nnnnnns<$*5lnnnnnnnnnnnnnq@",
"@wnnnnnnnnh:4nnnnnng6*-9znnnnnnnnnnnnnq@",
"@wnnnnnnnnh:4nnnnnnnl59nnnnnnnnnnnnnnnq@",
"@wnnnnnnnnh:4nnnnnnnblznnnnnnnnnnnnnnnq@",
"@wnnnnnnnnh:4nnnnnnnnnnnnnnnnnnnnnnnnnq@",
"@wnnnnnnnnh:4nnnnnnnnnnnnnnnnnnnnnnnnnq@",
"@wnnnnnnnnh:4ng7pnnnnnnnnnnnnnnnnnnnnnq@",
"@wnnnnnnnnh:4d8&3pnnnnnnnnnnnncupnnnnnq@",
"@wnnnnnnnnh:4y=O&7nnnnnnnnnnnxi;2svnnnq@",
"@wnnnnnnnnh:4jr=8gnnnnnnnnnnna>#%1knnnq@",
"@wnnnnnnnnh:4njydnnnnnnnnnnnnje=,ucnnnq@",
"@wnnnnnnnnh:4nnnnnnnnnnnnnnnnnz9tnnnnnq@",
"o3qqqqqqqq0=,qqqqqqqqqqqqqqqqqqqqqqqqq3o",
" o@@@@@@@@+.X@@@@@@@@@@@@@@@@@@@@@@@@@o "
};
