/* XPM */
static char *eea0b16952344872923efea93c643965R7HJqd97OxXIs1TS[] = {
/* columns rows colors chars-per-pixel */
"32 32 2 1 ",
"  c black",
". c white",
/* pixels */
"                                ",
" .............................. ",
" .............................. ",
" .............................. ",
" .............................. ",
" .............................. ",
" .............................. ",
" .............................. ",
" .............................. ",
"                                ",
" .............................. ",
" ... ............ ............. ",
" ..   ..........   ........ ... ",
" ... ............ ........   .. ",
" .......................... ... ",
" .............................. ",
" ......... .................... ",
" ........   ................... ",
" ......... .................... ",
" ................... .......... ",
" ..................   ...... .. ",
" ................... ......   . ",
" ........................... .. ",
" .............................. ",
" .. ........................... ",
" .   .......................... ",
" .. ........................... ",
" ............ ............. ... ",
" ...........   ...........   .. ",
" ............ ............. ... ",
" .............................. ",
"                                "
};
