/* XPM */
static char *e94a4be46537416685f44c9ff5c1b3afrKjFsHcUyunr8usA[] = {
/* columns rows colors chars-per-pixel */
"32 32 3 1 ",
"  c None",
". c black",
"X c white",
/* pixels */
"                                ",
"                                ",
"                                ",
"                                ",
"                                ",
"                                ",
"                                ",
"                                ",
"                                ",
"................................",
".XXXXXXXXXXXXXXXXXXXXXXXXXXXXXX.",
".X...X...X...XX...X.X.X...XXXXX.",
".XXXXXXXXXXXXXXXXXXXXXXXXXXXXXX.",
".XXXXXXXXXXXXXXXXXXXXXXXXXXXXXX.",
".X.XX...X.X...X...XX.X.X.X...XX.",
".XXXXXXXXXXXXXXXXXXXXXXXXXXXXXX.",
".XXXXXXXXXXXXXXXXXXXXXXXXXXXXXX.",
".X...X...X...X...X...XXXXXXXXXX.",
".XXXXXXXXXXXXXXXXXXXXXXXXXXXXXX.",
".XXXXXXXXXXXXXXXXXXXXXXXXXXXXXX.",
".X.X.X.X.X.XXXXXXXXXXXXXXXXXXXX.",
".XXXXXXXXXXXXXXXXXXXXXXXXXXXXXX.",
"................................",
"              .X.               ",
"              .X.               ",
"              .X.               ",
"              .X.               ",
"              .X.               ",
"              .X.               ",
"              .X.               ",
"              .X.               ",
"              ...               "
};
