/* XPM */
static char *result[] = {
/* columns rows colors chars-per-pixel */
"40 40 145 2 ",
"   c #160025",
".  c #170125",
"X  c #190025",
"o  c #190027",
"O  c #1B0126",
"+  c #1C0226",
"@  c #1E0328",
"#  c #1F0429",
"$  c #200528",
"%  c #200529",
"&  c #210529",
"*  c #220629",
"=  c #22072A",
"-  c #23082B",
";  c #240829",
":  c #2C0C2C",
">  c #300E2F",
",  c #2E132F",
"<  c #35112C",
"1  c #3D162F",
"2  c #290B33",
"3  c #351730",
"4  c #331035",
"5  c #351236",
"6  c #391431",
"7  c #361B33",
"8  c #321D35",
"9  c #3F1830",
"0  c #372137",
"q  c #362138",
"w  c #3E2B3C",
"e  c #461A2E",
"r  c #491E2B",
"t  c #421931",
"y  c #411A32",
"u  c #491D3E",
"i  c #5C282A",
"p  c #4F2130",
"a  c #4E2235",
"s  c #452439",
"d  c #522636",
"f  c #5E2836",
"g  c #56263E",
"h  c #502D38",
"j  c #5C2B3A",
"k  c #49313E",
"l  c #5B3032",
"z  c #5E3233",
"x  c #622C2C",
"c  c #672B32",
"v  c #6F3331",
"b  c #7E3D35",
"n  c #783B3C",
"m  c #4D2244",
"M  c #4C3B44",
"N  c #4F3E46",
"B  c #663041",
"V  c #613446",
"C  c #603843",
"Z  c #713C4A",
"A  c #622F55",
"S  c #6E3657",
"D  c #6B3458",
"F  c #73395D",
"G  c #763B5F",
"H  c #4F4047",
"J  c #504047",
"K  c #594041",
"L  c #594649",
"P  c #5A5050",
"I  c #75524D",
"U  c #615B57",
"Y  c #666760",
"T  c #727265",
"R  c #89453F",
"E  c #924A3B",
"W  c #814041",
"Q  c #864340",
"!  c #8B4540",
"~  c #9D4F43",
"^  c #9A4E44",
"/  c #854A5D",
"(  c #815E52",
")  c #AB5947",
"_  c #B35E45",
"`  c #B25E4B",
"'  c #8D6857",
"]  c #8F6957",
"[  c #AF644C",
"{  c #B6694E",
"}  c #AB7353",
"|  c #AE7C57",
" . c #904C6F",
".. c #965260",
"X. c #9D5B68",
"o. c #9E5476",
"O. c #BF7771",
"+. c #C06548",
"@. c #C3674A",
"#. c #C46D4F",
"$. c #D0704E",
"%. c #CA6C53",
"&. c #C7795F",
"*. c #D07552",
"=. c #DE7953",
"-. c #E67D54",
";. c #EA7F55",
":. c #D97664",
">. c #DE7766",
",. c #C26879",
"<. c #DD8C5C",
"1. c #E58257",
"2. c #EB8056",
"3. c #ED8156",
"4. c #EE8357",
"5. c #EA8458",
"6. c #EA8A5A",
"7. c #F28457",
"8. c #F28558",
"9. c #E6925E",
"0. c #EA925E",
"q. c #EE945D",
"w. c #D2817F",
"e. c #EB9860",
"r. c #EB9D62",
"t. c #F19D63",
"y. c #EAA466",
"u. c #EBA766",
"i. c #EAA968",
"p. c #EAAB69",
"a. c #EAAE6A",
"s. c #ECAF6A",
"d. c #F3A063",
"f. c #F3A666",
"g. c #F4A867",
"h. c #EAB06B",
"j. c #EAB16B",
"k. c #EAB26C",
"l. c #F1B26B",
"z. c #F1B76E",
"x. c #AF5E82",
"c. c #BF6C86",
"v. c #CE7185",
"b. c #E58E8C",
"n. c None",
/* pixels */
"n.n.n.n.n.n.n.n.n.n.n.n.  o o o o o o o o o o o o o o   n.n.n.n.n.n.n.n.n.n.n.n.",
"n.n.n.n.n.n.n.n.n.n.n.n.6 t t t t t t t t t t t t t t 6 n.n.n.n.n.n.n.n.n.n.n.n.",
"n.n.n.n.n.n.n.n.n.n.* g ! ~ ~ ~ ~ ~ ~ ~ ~ ~ ~ ~ ~ ~ ~ ! g * n.n.n.n.n.n.n.n.n.n.",
"n.n.n.n.n.n.n.n.n.* 1 n #.5.5.1.1.1.1.1.1.1.1.1.1.5.5.#.n 1 * n.n.n.n.n.n.n.n.n.",
"n.n.n.n.n.n.n.n.> f Q [ <.d.d.t.t.t.t.t.t.t.t.t.t.d.d.<.[ Q f > n.n.n.n.n.n.n.n.",
"n.n.n.n.n.n.n.= 1 R *.9.y.a.a.a.a.a.a.a.a.a.a.a.a.a.a.y.9.*.R 1 = n.n.n.n.n.n.n.",
"n.n.n.n.n.n.y f W { 9.f.s.k.k.k.k.k.k.k.k.k.k.k.k.k.k.s.f.9.{ W f y n.n.n.n.n.n.",
"n.n.n.n.n.@ a ^ *.9.u.s.h.h.h.h.h.h.h.h.h.h.h.h.h.h.h.h.s.u.9.*.^ a @ n.n.n.n.n.",
"n.n.n.n.n.@ d [ q.g.s.k.j.h.h.h.h.h.h.h.h.h.h.h.h.h.h.j.k.s.g.q.[ d @ n.n.n.n.n.",
"n.n.n.n.n.# h } u.l.h.j.h.h.h.h.h.h.h.h.h.h.h.h.h.h.h.h.j.h.l.u.} h # n.n.n.n.n.",
"n.n.n.n.. @ h | h.z.h.h.h.h.h.h.h.h.h.h.h.h.h.h.h.h.h.h.h.h.z.h.| h @ . n.n.n.n.",
"@ @ @ @   $ h | j.z.h.h.h.h.h.h.h.h.h.h.h.h.h.h.h.h.h.h.h.h.z.j.| h $   @ @ @ @ ",
"@ & : 4 4 4 C | i.l.h.h.h.h.h.h.h.h.h.h.h.h.h.h.h.h.h.h.h.h.l.i.| C 4 4 4 : & @ ",
"@ : m G G G ..&.e.u.a.j.h.h.h.h.h.h.h.h.h.h.h.h.h.h.h.h.j.a.u.e.&...G G G m : @ ",
"O 5 D o.x.x.,.:.6.r.a.k.h.h.h.h.h.h.h.h.h.h.h.h.h.h.h.h.k.a.r.6.:.,.x.x.o.D 5 O ",
"X > g G  .x.v.>.5.r.a.k.j.h.h.h.h.h.h.h.h.h.h.h.h.h.h.j.k.a.r.5.>.v.x. .G g > X ",
"n.n.* 5 A o.,.>.5.e.p.j.h.h.h.h.h.h.h.h.h.h.h.h.h.h.h.h.j.p.e.5.>.,.o.A 5 * n.n.",
"n.n.n.; u F ..%.5.q.r.u.a.k.k.j.j.h.h.h.h.h.h.j.j.k.k.a.u.r.q.5.%...F u ; n.n.n.",
"n.n.n.n.2 6 B ` ;.8.6.e.i.j.j.h.h.h.h.h.h.h.h.h.h.j.j.i.e.6.8.;.` B 6 2 n.n.n.n.",
"n.n.n.n.n.+ p ) 2.7.2.6.r.y.y.y.i.h.j.j.j.j.h.i.y.y.y.r.6.2.7.2.) p + n.n.n.n.n.",
"n.n.n.n.n.@ p ) 3.8.2.5.6.6.6.0.r.a.k.k.k.k.a.r.0.6.6.6.5.2.8.3.) p @ n.n.n.n.n.",
"n.n.n.n.n.@ a ^ %.=.;.3.2.;.;.5.0.y.i.i.i.i.y.0.5.;.;.2.3.;.=.%.^ a @ n.n.n.n.n.",
"n.n.n.n.n.n.9 g n ` -.7.2.;.;.2.6.0.0.0.0.0.0.6.2.;.;.3.8.-.` n f 7 n.n.n.n.n.n.",
"n.n.n.n.n.n.n.@ t R $.;.2.2.2.2.2.2.2.2.2.2.2.2.2.2.2.;.-.%.W 3 @ n.n.n.n.n.n.n.",
"n.n.n.n.n.n.; 6 r v ~ @.-.8.8.4.3.;.;.;.;.;.;.3.4.8.8.=.) n p ; @ n.n.n.n.n.n.n.",
"n.n.n.n.n.% < r i x v E %.-.-.-.-.2.2.2.2.2.2.-.-.;.;.@.n < & & @ n.n.n.n.n.n.n.",
"n.n.n.n.n.@ : r i i i v R ~ ) _ $.;.7.4.4.7.;.$._ _ _ E p @ o & @ n.n.n.n.n.n.n.",
"n.n.n.n.n.# : r x x i p t t i b _ =.3.2.2.3.=._ b v v x t & @ & @ n.n.n.n.n.n.n.",
"n.n.n.n.n.# < j Z W Z d : & t x E _ @.+.+.@._ E x i i p < & @ & @ n.n.n.n.n.n.n.",
"n.n.n.n.n.# t G o.x.o.S 4 : t x v b b b b b b v x i i p < & @ & @ n.n.n.n.n.n.n.",
"n.n.n.n.n.+ m  .c.v.c./ t : r z z l l l l l l l z z z d 3 ; O % . n.n.n.n.n.n.n.",
"n.n.n.n.n.@ m X.w.b.w...t : w K L K K K K K K K K K K k 3 $ @ n.n.n.n.n.n.n.n.n.",
"n.n.n.n.n.@ a ..O.w.O./ s 3 w J J J J J J L L P P P P J q - . n.n.n.n.n.n.n.n.n.",
"n.n.n.n.n.n.y V Z Z Z C k w q q q q q q w J P U Y Y Y P w - X n.n.n.n.n.n.n.n.n.",
"n.n.n.n.n.n.n.= - $ - 0 M M 0 - - - - - , k L U Y T T U w - . n.n.n.n.n.n.n.n.n.",
"n.n.n.n.n.n.n.n.X . X 7 H N 7 X X X X X ; 8 w L ( ] ' I s $ * n.n.n.n.n.n.n.n.n.",
"n.n.n.n.n.n.n.n.n.n.n.n.n.n.n.n.n.n.n.n.n.= , j R ~ ~ W p % . n.n.n.n.n.n.n.n.n.",
"n.n.n.n.n.n.n.n.n.n.n.n.n.n.n.n.n.n.n.n.n.n.; u c v v c e * n.n.n.n.n.n.n.n.n.n.",
"n.n.n.n.n.n.n.n.n.n.n.n.n.n.n.n.n.n.n.n.n.n.n.> 1 < < 6 n.n.n.n.n.n.n.n.n.n.n.n.",
"n.n.n.n.n.n.n.n.n.n.n.n.n.n.n.n.n.n.n.n.n.n.n.n.% o o   n.n.n.n.n.n.n.n.n.n.n.n."
};
