/* XPM */
static char *_42e2f60c9b04282d5d80182f98669fer3qdKlloEtNLwtHI[] = {
/* columns rows colors chars-per-pixel */
"32 32 3 1 ",
"  c None",
". c black",
"X c white",
/* pixels */
"             ...                ",
"            .XXX.               ",
"           .XXXXX.              ",
"          .XXXXXXX.             ",
"          .XXXXXXX.             ",
"         .XX.XXXXXX.            ",
"         .XXXXXXXXX.            ",
"         .XXXXXXXXX.            ",
"         .XXXXXXXXX.            ",
"        .XXXXX.XXXXX.           ",
"        .XXXXXXXXXXX.           ",
"        .XXXXXXXXXXX.           ",
"        .XXXXXXXXXXX.           ",
"        .XXXXXXXX.XX.           ",
"        .XXXXXXXXXXX.           ",
"        .XXXXXXXXXXX.           ",
"        .XXXXXXXXXXX.           ",
"        .XX.XXXXXXXX.           ",
"        .XXXXXXXXXXX.           ",
"        .XXXXXXXXXXX.           ",
"         .XXX.XXXXX.            ",
"         .XXXXXXXXX.            ",
"         .XXXXXX.XX.            ",
"         .XXXXXXXXX.            ",
"          .XXXXXXX.             ",
"          .XXXXXXX.             ",
"           .XXXXX.              ",
"            .XXX.               ",
"             ...                ",
"             .X.                ",
"             .X.                ",
"             ...                "
};
