/* XPM */
static char *_409427a4d2b4515d7e849f22ba2f140opUzxoMXRLxAaIzE[] = {
/* columns rows colors chars-per-pixel */
"32 32 3 1 ",
"  c None",
". c black",
"X c white",
/* pixels */
"                                ",
"                                ",
"                                ",
"                                ",
"                                ",
"                                ",
"                                ",
"                                ",
"                                ",
"                                ",
"                                ",
"                                ",
"  ............................  ",
" .XXXXXXXXXXXXXXXXXXXXXXXXXXXX. ",
".XXXXXXXXXXXXX....XXXXXXXXXXXXX.",
".XXXXXXXXXXXX......XXXXXXXXXXXX.",
".XXXXXXXXXXXX..XX..XXXXXXXXXXXX.",
".XXXXXXXXXXXXXXXX..XXXXXXXXXXXX.",
".XXXXXXXXXXXXXXXX..XXXXXXXXXXXX.",
".XXXXXXXXXXXXXXXX..XXXXXXXXXXXX.",
".XXXXXXXXXXXXXXXX..XXXXXXXXXXXX.",
".XXXXXXXXXXXXXXX...XXXXXXXXXXXX.",
".XXXXXXXXXXXXXX...XXXXXXXXXXXXX.",
".XXXXXXXXXXXXXX..XXXXXXXXXXXXXX.",
".XXXXXXXXXXXXXXXXXXXXXXXXXXXXXX.",
".XXXXXXXXXXXXXX..XXXXXXXXXXXXXX.",
".XXXXXXXXXXXXX....XXXXXXXXXXXXX.",
".XXXXXXXXXXXXX....XXXXXXXXXXXXX.",
" .XXXXXXXXXXXXX..XXXXXXXXXXXXX. ",
"  ............XXXX............  ",
"              .XX.              ",
"               ..               "
};
