/* XPM */
static char *result[] = {
/* columns rows colors chars-per-pixel */
"40 40 35 1 ",
"  c black",
". c #040300",
"X c #080702",
"o c #1A1700",
"O c #181503",
"+ c #191605",
"@ c #322B01",
"# c #393209",
"$ c #493F01",
"% c #433C12",
"& c #594E11",
"* c #675800",
"= c #6C5D03",
"- c #796E2C",
"; c #8B7A12",
": c #AE9601",
"> c #B39A03",
", c #B9A000",
"< c #9F8E2A",
"1 c #CEB203",
"2 c #DABC00",
"3 c #E3C303",
"4 c #EDCC00",
"5 c #F6D404",
"6 c #FBD804",
"7 c #FFDF14",
"8 c #FFE907",
"9 c #FFE309",
"0 c #DEC73C",
"q c #E3CE4C",
"w c #F2D942",
"e c #FAE044",
"r c #FFEE54",
"t c #FFFA62",
"y c None",
/* pixels */
"yyyyyyyyyyyyyyyyyyyyyyyyyyyyyyyyyyyyyyyy",
"yyyyyyyyyyyyyyyyyyyyyyyyyyyyyyyyyyyyyyyy",
"yyyyyyyyyyyyyyyyyyyyyyyyyyyyyyyyyyyyyyyy",
"yyyyyyyyyyyyyyyyyyyyyyyyyyyyyyyyyyyyyyyy",
"yyyyyyyyyyyyyyyyyyyyyyyyyyyyyyyyyyyyyyyy",
"yyyyyyyyyyyyyyyyyyyyyyyyyyyyyyyyyyyyyyyy",
"yyyyyyyyyyyyyyyyyyX yyyyyyyyyyyyyyyyyyyy",
"yyyyyyyyyyyyyyyyy&--+yyyyyyyyyyyyyyyyyyy",
"yyyyyyyyyyyyyyyy -tqOyyyyyyyyyyyyyyyyyyy",
"yyyyyyyyyyyyyyyyX;rq#yyyyyyyyyyyyyyyyyyy",
"yyyyyyyyyyyyyyyX<wee0%yyyyyyyyyyyyyyyyyy",
"yyyyyyyyyyyyyyy.>8797$ yyyyyyyyyyyyyyyyy",
"yyyyyyyyyyyyyyy.>82;4$ yyyyyyyyyyyyyyyyy",
"yyyyyyyyyyyyyyy.>8:O2$ yyyyyyyyyyyyyyyyy",
"yyyyyyyyyyyyyyy.>8,#3$ yyyyyyyyyyyyyyyyy",
"yyyyyyyyyyyyyyy.>9535$ yyyyyyyyyyyyyyyyy",
"yyyyyyyyyyyyyyy.:9666$ yyyyyyyyyyyyyyyyy",
"yyyyyyyyyyyyyyyy&>53;@yyyyyyyyyyyyyyyyyy",
"yyyyyyyyyyyyyyyy =51Oyyyyyyyyyyyyyyyyyyy",
"yyyyyyyyyyyyyyyy *1>oyyyyyyyyyyyyyyyyyyy",
"yyyyyyyyyyyyyyyyy+Ooyyyyyyyyyyyyyyyyyyyy",
"yyyyyyyyyyyyyyyyyyyyyyyyyyyyyyyyyyyyyyyy",
"yyyyyyyyyyyyyyyyyyyyyyyyyyyyyyyyyyyyyyyy",
"yyyyyyyyyyyyyyyyyyyyyyyyyyyyyyyyyyyyyyyy",
"yyyyyyyyyyyyyyyyyyyyyyyyyyyyyyyyyyyyyyyy",
"yyyyyyyyyyyyyyyyyyyyyyyyyyyyyyyyyyyyyyyy",
"yyyyyyyyyyyyyyyyyyyyyyyyyyyyyyyyyyyyyyyy",
"yyyyyyyyyyyyyyyyyyyyyyyyyyyyyyyyyyyyyyyy",
"yyyyyyyyyyyyyyyyyyyyyyyyyyyyyyyyyyyyyyyy",
"yyyyyyyyyyyyyyyyyyyyyyyyyyyyyyyyyyyyyyyy",
"yyyyyyyyyyyyyyyyyyyyyyyyyyyyyyyyyyyyyyyy",
"yyyyyyyyyyyyyyyyyyyyyyyyyyyyyyyyyyyyyyyy",
"yyyyyyyyyyyyyyyyyyyyyyyyyyyyyyyyyyyyyyyy",
"yyyyyyyyyyyyyyyyyyyyyyyyyyyyyyyyyyyyyyyy",
"yyyyyyyyyyyyyyyyyyyyyyyyyyyyyyyyyyyyyyyy",
"yyyyyyyyyyyyyyyyyyyyyyyyyyyyyyyyyyyyyyyy",
"yyyyyyyyyyyyyyyyyyyyyyyyyyyyyyyyyyyyyyyy",
"yyyyyyyyyyyyyyyyyyyyyyyyyyyyyyyyyyyyyyyy",
"yyyyyyyyyyyyyyyyyyyyyyyyyyyyyyyyyyyyyyyy",
"yyyyyyyyyyyyyyyyyyyyyyyyyyyyyyyyyyyyyyyy"
};
