/* XPM */
static char *result[] = {
/* columns rows colors chars-per-pixel */
"40 40 37 1 ",
"  c black",
". c #020202",
"X c gray1",
"o c #040404",
"O c gray2",
"+ c #090909",
"@ c #0C0C0C",
"# c #161616",
"$ c #1E1E1E",
"% c gray12",
"& c #2D2D2D",
"* c #373737",
"= c gray27",
"- c #484848",
"; c #4B4B4B",
": c #5B5B5B",
"> c #646464",
", c gray45",
"< c #747474",
"1 c #7C7C7C",
"2 c gray53",
"3 c gray54",
"4 c #9A9A9A",
"5 c gray64",
"6 c #B2B2B2",
"7 c #B4B4B4",
"8 c #B7B7B7",
"9 c #C5C5C5",
"0 c #CACACA",
"q c #D5D5D5",
"w c #E1E1E1",
"e c gray91",
"r c #EFEFEF",
"t c #F8F8F8",
"y c #FDFDFD",
"u c white",
"i c None",
/* pixels */
"iiiiiiiiiiiiiiii XXoiiiiiiiiiiiiiiiiiiii",
"iiiiiiiiiiiiiii.2875#iiiiiiiiiiiiiiiiiii",
"iiiiiiiiiiiiii@<wuut3&iiiiiiiiiiiiiiiiii",
"iiiiiiiiiiiii+:ruuuuu1&iiiiiiiiiiiiiiiii",
"iiiiiiiiiiii+-tuuuuuuu1 iiiiiiiiiiiiiiii",
"iiiiiiiiiiii+-yyyuuuuu1 iiiiiiiiiiiiiiii",
"iiiiiiiiiii+>qe:9uuuuuw2.iiiiiiiiiiiiiii",
"iiiiiiiiiii 1ur3quuuuuu8oiiiiiiiiiiiiiii",
"iiiiiiiiiii 1uuuuuuuuuu6oiiiiiiiiiiiiiii",
"iiiiiiiiiii 1uuuuuuuuuu6oiiiiiiiiiiiiiii",
"iiiiiiiiiii 1uuuuyyuuuu6oiiiiiiiiiiiiiii",
"iiiiiiiiii.2wuuuu4,yuuur5#iiiiiiiiiiiiii",
"iiiiiiiiiio8uuuuu84yuuuue%iiiiiiiiiiiiii",
"iiiiiiiiiio6uuuuuuuuuuuuw$iiiiiiiiiiiiii",
"iiiiiiiiiio6uuuuuuuuuuuuw$iiiiiiiiiiiiii",
"iiiiiiiiiio6uuuuuuuuuyyuw$iiiiiiiiiiiiii",
"iiiiiiiiiio6uuuuuuuuy,4uw$iiiiiiiiiiiiii",
"iiiiiiiiiio6uuuuuuuuy48uw$iiiiiiiiiiiiii",
"iiiiiiiiiio6uuuuuuuuuuuuw$iiiiiiiiiiiiii",
"iiiiiiiiiio6uuuuuuuuuuuuw$iiiiiiiiiiiiii",
"iiiiiiiiiio6uyyuuuuuuuuuw$iiiiiiiiiiiiii",
"iiiiiiiiiio6u9:euuuuuuuuw$iiiiiiiiiiiiii",
"iiiiiiiiiio6uq3ruuuuuuuuw$iiiiiiiiiiiiii",
"iiiiiiiiiio7uuuuuuuuuuuuw%iiiiiiiiiiiiii",
"iiiiiiiiiiO5tuuueruuuuut0%iiiiiiiiiiiiii",
"iiiiiiiiiii#3uuy:3uuuuu8%iiiiiiiiiiiiiii",
"iiiiiiiiiii 1uuy9quuuuu6 iiiiiiiiiiiiiii",
"iiiiiiiiiii 1uuuuuur3qu6oiiiiiiiiiiiiiii",
"iiiiiiiiiii 1uuuuuue:9u7oiiiiiiiiiiiiiii",
"iiiiiiiiiii.<ruuuuuuyut5Oiiiiiiiiiiiiiii",
"iiiiiiiiiiii@:yuuuuuuu3#iiiiiiiiiiiiiiii",
"iiiiiiiiiiii+=uuuuuuuu1 iiiiiiiiiiiiiiii",
"iiiiiiiiiiiii&3tuuuuu5;iiiiiiiiiiiiiiiii",
"iiiiiiiiiiiiii#5ruuy8*iiiiiiiiiiiiiiiiii",
"iiiiiiiiiiiiiiiO5ee0%iiiiiiiiiiiiiiiiiii",
"iiiiiiiiiiiiiiii#%%%iiiiiiiiiiiiiiiiiiii",
"iiiiiiiiiiiiiiii :1 iiiiiiiiiiiiiiiiiiii",
"iiiiiiiiiiiiiiii 39oiiiiiiiiiiiiiiiiiiii",
"iiiiiiiiiiiiiiii :1oiiiiiiiiiiiiiiiiiiii",
"iiiiiiiiiiiiiiii XX iiiiiiiiiiiiiiiiiiii"
};
