/* XPM */
static char *result[] = {
/* columns rows colors chars-per-pixel */
"40 40 39 1 ",
"  c black",
". c #040300",
"X c #050501",
"o c #151201",
"O c #181400",
"+ c #1A1700",
"@ c #1B1700",
"# c #1A180A",
"$ c #1B180A",
"% c #322B01",
"& c #383109",
"* c #473E01",
"= c #433C12",
"- c #584C00",
"; c #594F11",
": c #675800",
"> c #6C5D03",
", c #796800",
"< c #74692B",
"1 c #7C712C",
"2 c #8A7912",
"3 c #B29801",
"4 c #B79E04",
"5 c #A08C18",
"6 c #C4A900",
"7 c #CEB203",
"8 c #E0C107",
"9 c #E9C802",
"0 c #F7D505",
"q c #FCD901",
"w c #FFDB01",
"e c #FFDE14",
"r c #FFE50F",
"t c #DEC73C",
"y c #E3CE4C",
"u c #F5DC43",
"i c #FEE84C",
"p c #FFFA62",
"a c None",
/* pixels */
"aaaaaaaaaaaaaaaaaaaaaaaaaaaaaaaaaaaaaaaa",
"aaaaaaaaaaaaaaaaaaaaaaaaaaaaaaaaaaaaaaaa",
"aaaaaaaaaaaaaaaaaaaaaaaaaaaaaaaaaaaaaaaa",
"aaaaaaaaaaaaaaaaaaaaaaaaaaaaaaaaaaaaaaaa",
"aaaaaaaaaaaaaaaaaaaaaaaaaaaaaaaaaaaaaaaa",
"aaaaaaaaaaaaaaaaaaaaaaaaaaaaaaaaaaaaaaaa",
"aaaaaaaaaaaaaaaaaaX aaaaaaaaaaaaaaaaaaaa",
"aaaaaaaaaaaaaaaaa;1<$aaaaaaaaaaaaaaaaaaa",
"aaaaaaaaaaaaaaaaX1py#aaaaaaaaaaaaaaaaaaa",
"aaaaaaaaaaaaaaaaX2iy&aaaaaaaaaaaaaaaaaaa",
"aaaaaaaaaaaaaaaX5uiut=aaaaaaaaaaaaaaaaaa",
"aaaaaaaaaaaaaaa.4rree* aaaaaaaaaaaaaaaaa",
"aaaaaaaaaaaaaaa.465wq* aaaaaaaaaaaaaaaaa",
"aaaaaaaaaaaaaaa.4,&qq* aaaaaaaaaaaaaaaaa",
"aaaaaaaaaaaaaaa.42-qq* aaaaaaaaaaaaaaaaa",
"aaaaaaaaaaaaaaa.309wq* aaaaaaaaaaaaaaaaa",
"aaaaaaaaaaaaaaa.3rq0q* aaaaaaaaaaaaaaaaa",
"aaaaaaaaaaaaaaaa;4082%aaaaaaaaaaaaaaaaaa",
"aaaaaaaaaaaaaaaaX>07oaaaaaaaaaaaaaaaaaaa",
"aaaaaaaaaaaaaaaa :73+aaaaaaaaaaaaaaaaaaa",
"aaaaaaaaaaaaaaaaaO@+aaaaaaaaaaaaaaaaaaaa",
"aaaaaaaaaaaaaaaaaaaaaaaaaaaaaaaaaaaaaaaa",
"aaaaaaaaaaaaaaaaaaaaaaaaaaaaaaaaaaaaaaaa",
"aaaaaaaaaaaaaaaaaaaaaaaaaaaaaaaaaaaaaaaa",
"aaaaaaaaaaaaaaaaaaaaaaaaaaaaaaaaaaaaaaaa",
"aaaaaaaaaaaaaaaaaaaaaaaaaaaaaaaaaaaaaaaa",
"aaaaaaaaaaaaaaaaaaaaaaaaaaaaaaaaaaaaaaaa",
"aaaaaaaaaaaaaaaaaaaaaaaaaaaaaaaaaaaaaaaa",
"aaaaaaaaaaaaaaaaaaaaaaaaaaaaaaaaaaaaaaaa",
"aaaaaaaaaaaaaaaaaaaaaaaaaaaaaaaaaaaaaaaa",
"aaaaaaaaaaaaaaaaaaaaaaaaaaaaaaaaaaaaaaaa",
"aaaaaaaaaaaaaaaaaaaaaaaaaaaaaaaaaaaaaaaa",
"aaaaaaaaaaaaaaaaaaaaaaaaaaaaaaaaaaaaaaaa",
"aaaaaaaaaaaaaaaaaaaaaaaaaaaaaaaaaaaaaaaa",
"aaaaaaaaaaaaaaaaaaaaaaaaaaaaaaaaaaaaaaaa",
"aaaaaaaaaaaaaaaaaaaaaaaaaaaaaaaaaaaaaaaa",
"aaaaaaaaaaaaaaaaaaaaaaaaaaaaaaaaaaaaaaaa",
"aaaaaaaaaaaaaaaaaaaaaaaaaaaaaaaaaaaaaaaa",
"aaaaaaaaaaaaaaaaaaaaaaaaaaaaaaaaaaaaaaaa",
"aaaaaaaaaaaaaaaaaaaaaaaaaaaaaaaaaaaaaaaa"
};
