/* XPM */
static char *result[] = {
/* columns rows colors chars-per-pixel */
"40 40 32 1 ",
"  c black",
". c #141205",
"X c #1D1900",
"o c #1E1A00",
"O c #372F00",
"+ c #393100",
"@ c #4B4312",
"# c #5B5218",
"$ c #6F6000",
"% c #7B6A00",
"& c #7C6B03",
"* c #73692C",
"= c #7F7331",
"- c #877400",
"; c #A38D00",
": c #BBA100",
"> c #A49221",
", c #C9AE00",
"< c #D9BB00",
"1 c #E1C200",
"2 c #E9C900",
"3 c #EFCE00",
"4 c #FAD800",
"5 c #FFDC00",
"6 c #FFDE00",
"7 c #FFDF04",
"8 c #FFE200",
"9 c #FFE807",
"0 c #F0D73F",
"q c #F9E047",
"w c #FFF448",
"e c None",
/* pixels */
"eeeeeeeeeeeeeeeeeeeeeeeeeeeeeeeeeeeeeeee",
"eeeeeeeeeeeeeeeeeeeeeeeeeeeeeeeeeeeeeeee",
"eeeeeeeeeeeeeeeeeeeeeeeeeeeeeeeeeeeeeeee",
"eeeeeeeeeeeeeeeeeeeeeeeeeeeeeeeeeeeeeeee",
"eeeeeeeeeeeeeeeeeeeeeeeeeeeeeeeeeeeeeeee",
"eeeeeeeeeeeeeeeeeeeeeeeeeeeeeeeeeeeeeeee",
"eeeeeeeeeeeeeeeeee  eeeeeeeeeeeeeeeeeeee",
"eeeeeeeeeeeeeeeee@=*.eeeeeeeeeeeeeeeeeee",
"eeeeeeeeeeeeeeeeO>w0#.eeeeeeeeeeeeeeeeee",
"eeeeeeeeeeeeeeeo:857q#.eeeeeeeeeeeeeeeee",
"eeeeeeeeeeeeeeo,455570* eeeeeeeeeeeeeeee",
"eeeeeeeeeeeeeeX1878559& eeeeeeeeeeeeeeee",
"eeeeeeeeeeeeeeo18:;558& eeeeeeeeeeeeeeee",
"eeeeeeeeeeeeeeo19$+458& eeeeeeeeeeeeeeee",
"eeeeeeeeeeeeeeo19-#458& eeeeeeeeeeeeeeee",
"eeeeeeeeeeeeeeo1832558& eeeeeeeeeeeeeeee",
"eeeeeeeeeeeeeeX1777559& eeeeeeeeeeeeeeee",
"eeeeeeeeeeeeee.$<8568;@eeeeeeeeeeeeeeeee",
"eeeeeeeeeeeeeee %<74:Oeeeeeeeeeeeeeeeeee",
"eeeeeeeeeeeeeeee $<:oeeeeeeeeeeeeeeeeeee",
"eeeeeeeeeeeeeeeee.Xoeeeeeeeeeeeeeeeeeeee",
"eeeeeeeeeeeeeeeeeeeeeeeeeeeeeeeeeeeeeeee",
"eeeeeeeeeeeeeeeeeeeeeeeeeeeeeeeeeeeeeeee",
"eeeeeeeeeeeeeeeeeeeeeeeeeeeeeeeeeeeeeeee",
"eeeeeeeeeeeeeeeeeeeeeeeeeeeeeeeeeeeeeeee",
"eeeeeeeeeeeeeeeeeeeeeeeeeeeeeeeeeeeeeeee",
"eeeeeeeeeeeeeeeeeeeeeeeeeeeeeeeeeeeeeeee",
"eeeeeeeeeeeeeeeeeeeeeeeeeeeeeeeeeeeeeeee",
"eeeeeeeeeeeeeeeeeeeeeeeeeeeeeeeeeeeeeeee",
"eeeeeeeeeeeeeeeeeeeeeeeeeeeeeeeeeeeeeeee",
"eeeeeeeeeeeeeeeeeeeeeeeeeeeeeeeeeeeeeeee",
"eeeeeeeeeeeeeeeeeeeeeeeeeeeeeeeeeeeeeeee",
"eeeeeeeeeeeeeeeeeeeeeeeeeeeeeeeeeeeeeeee",
"eeeeeeeeeeeeeeeeeeeeeeeeeeeeeeeeeeeeeeee",
"eeeeeeeeeeeeeeeeeeeeeeeeeeeeeeeeeeeeeeee",
"eeeeeeeeeeeeeeeeeeeeeeeeeeeeeeeeeeeeeeee",
"eeeeeeeeeeeeeeeeeeeeeeeeeeeeeeeeeeeeeeee",
"eeeeeeeeeeeeeeeeeeeeeeeeeeeeeeeeeeeeeeee",
"eeeeeeeeeeeeeeeeeeeeeeeeeeeeeeeeeeeeeeee",
"eeeeeeeeeeeeeeeeeeeeeeeeeeeeeeeeeeeeeeee"
};
