/* XPM */
static char *result[] = {
/* columns rows colors chars-per-pixel */
"40 40 34 1 ",
"  c black",
". c #141205",
"X c #1C1800",
"o c #1D1800",
"O c #201B00",
"+ c #372F00",
"@ c #373000",
"# c #3B3300",
"$ c #4B4312",
"% c #6E5F00",
"& c #7C6B03",
"* c #5D5520",
"= c #73692C",
"- c #7F7331",
"; c #907C00",
": c #AC9500",
"> c #A49013",
", c #BAA100",
"< c #C9AE00",
"1 c #D7BA00",
"2 c #E0C100",
"3 c #E5C600",
"4 c #F4D300",
"5 c #FBD900",
"6 c #FFDD00",
"7 c #FFDE06",
"8 c #FFE100",
"9 c #FFE400",
"0 c #FFE700",
"q c #FFE815",
"w c #F0D73F",
"e c #F9E047",
"r c #FFF448",
"t c None",
/* pixels */
"tttttttttttttttttttttttttttttttttttttttt",
"tttttttttttttttttttttttttttttttttttttttt",
"tttttttttttttttttttttttttttttttttttttttt",
"tttttttttttttttttttttttttttttttttttttttt",
"tttttttttttttttttttttttttttttttttttttttt",
"tttttttttttttttttttttttttttttttttttttttt",
"tttttttttttttttttt  tttttttttttttttttttt",
"ttttttttttttttttt$-=.ttttttttttttttttttt",
"tttttttttttttttt+>rw*.tttttttttttttttttt",
"tttttttttttttttO,867e*.ttttttttttttttttt",
"tttttttttttttto<56667w= tttttttttttttttt",
"ttttttttttttttX386786q& tttttttttttttttt",
"ttttttttttttttX2881;49& tttttttttttttttt",
"ttttttttttttttX289:X20& tttttttttttttttt",
"ttttttttttttttX289,#30& tttttttttttttttt",
"ttttttttttttttX2864359& tttttttttttttttt",
"ttttttttttttttX2866860& tttttttttttttttt",
"tttttttttttttt.%18678>$ttttttttttttttttt",
"ttttttttttttttt &184,@tttttttttttttttttt",
"tttttttttttttttt %2,Ottttttttttttttttttt",
"ttttttttttttttttt.Xotttttttttttttttttttt",
"tttttttttttttttttttttttttttttttttttttttt",
"tttttttttttttttttttttttttttttttttttttttt",
"tttttttttttttttttttttttttttttttttttttttt",
"tttttttttttttttttttttttttttttttttttttttt",
"tttttttttttttttttttttttttttttttttttttttt",
"tttttttttttttttttttttttttttttttttttttttt",
"tttttttttttttttttttttttttttttttttttttttt",
"tttttttttttttttttttttttttttttttttttttttt",
"tttttttttttttttttttttttttttttttttttttttt",
"tttttttttttttttttttttttttttttttttttttttt",
"tttttttttttttttttttttttttttttttttttttttt",
"tttttttttttttttttttttttttttttttttttttttt",
"tttttttttttttttttttttttttttttttttttttttt",
"tttttttttttttttttttttttttttttttttttttttt",
"tttttttttttttttttttttttttttttttttttttttt",
"tttttttttttttttttttttttttttttttttttttttt",
"tttttttttttttttttttttttttttttttttttttttt",
"tttttttttttttttttttttttttttttttttttttttt",
"tttttttttttttttttttttttttttttttttttttttt"
};
