/* XPM */
static char *result[] = {
/* columns rows colors chars-per-pixel */
"40 40 34 1 ",
"  c black",
". c #040300",
"X c #050500",
"o c #100E02",
"O c #161200",
"+ c #1D1900",
"@ c #2D270A",
"# c #383000",
"$ c #383100",
"% c #292610",
"& c #463C00",
"* c #5E5100",
"= c #625400",
"- c #7A6900",
"; c #7C6B04",
": c #7B7026",
"> c #8F7B00",
", c #8A7E32",
"< c #B39A04",
"1 c #BCA413",
"2 c #A1933C",
"3 c #CFB300",
"4 c #DEBF00",
"5 c #E5C500",
"6 c #F2D000",
"7 c #FCD900",
"8 c #FFDD01",
"9 c #FFE000",
"0 c #FFE300",
"q c #FFE604",
"w c #FFE627",
"e c #F7DE47",
"r c #FFEA4D",
"t c None",
/* pixels */
"tttttttttttttttttttttttttttttttttttttttt",
"tttttttttttttttttttttttttttttttttttttttt",
"tttttttttttttttttttttttttttttttttttttttt",
"tttttttttttttttttttttttttttttttttttttttt",
"tttttttttttttttttttttttttttttttttttttttt",
"tttttttttttttttttttttttttttttttttttttttt",
"tttttttttttttttt o   ttttttttttttttttttt",
"tttttttttttttttt=;;::@tttttttttttttttttt",
"ttttttttttttttt&3q0wr:%ttttttttttttttttt",
"tttttttttttttt$59888wr,otttttttttttttttt",
"ttttttttttttt&5788888we2Xttttttttttttttt",
"tttttttttttt &88890088w1.ttttttttttttttt",
"tttttttttttt &7891->68q<.ttttttttttttttt",
"tttttttttttt &780- O490<.ttttttttttttttt",
"tttttttttttt &780>O#590<.ttttttttttttttt",
"tttttttttttt &688645780<.ttttttttttttttt",
"tttttttttttt &56799988q<.ttttttttttttttt",
"ttttttttttttt@-477888q1=tttttttttttttttt",
"tttttttttttttto>478993* tttttttttttttttt",
"tttttttttttttttX>3444&tttttttttttttttttt",
"ttttttttttttttttoO+++ttttttttttttttttttt",
"tttttttttttttttttttttttttttttttttttttttt",
"tttttttttttttttttttttttttttttttttttttttt",
"tttttttttttttttttttttttttttttttttttttttt",
"tttttttttttttttttttttttttttttttttttttttt",
"tttttttttttttttttttttttttttttttttttttttt",
"tttttttttttttttttttttttttttttttttttttttt",
"tttttttttttttttttttttttttttttttttttttttt",
"tttttttttttttttttttttttttttttttttttttttt",
"tttttttttttttttttttttttttttttttttttttttt",
"tttttttttttttttttttttttttttttttttttttttt",
"tttttttttttttttttttttttttttttttttttttttt",
"tttttttttttttttttttttttttttttttttttttttt",
"tttttttttttttttttttttttttttttttttttttttt",
"tttttttttttttttttttttttttttttttttttttttt",
"tttttttttttttttttttttttttttttttttttttttt",
"tttttttttttttttttttttttttttttttttttttttt",
"tttttttttttttttttttttttttttttttttttttttt",
"tttttttttttttttttttttttttttttttttttttttt",
"tttttttttttttttttttttttttttttttttttttttt"
};
