/* XPM */
static char *result[] = {
/* columns rows colors chars-per-pixel */
"40 40 20 1 ",
"  c black",
". c #040300",
"X c #1B1701",
"o c #191605",
"O c #1D1A01",
"+ c #393100",
"@ c #453C01",
"# c #50491C",
"$ c #695A02",
"% c #7C6A01",
"& c #726828",
"* c #7C7024",
"= c #B29A04",
"- c #DDBD03",
"; c #E1C102",
": c #EED01F",
"> c #FFE602",
", c #FFEA02",
"< c #FFF440",
"1 c None",
/* pixels */
"1111111111111111111111111111111111111111",
"1111111111111111111111111111111111111111",
"1111111111111111111111111111111111111111",
"1111111111111111111111111111111111111111",
"1111111111111111111111111111111111111111",
"1111111111111111111111111111111111111111",
"111111111111111111  11111111111111111111",
"11111111111111111#*&o1111111111111111111",
"1111111111111111 *<:O1111111111111111111",
"1111111111111111 %>;O1111111111111111111",
"1111111111111111 %>;O1111111111111111111",
"1111111111111111 %,;O1111111111111111111",
"1111111111111111 +=-O1111111111111111111",
"1111111111111111 .@-O1111111111111111111",
"1111111111111111 .$-O1111111111111111111",
"1111111111111111 $:;O1111111111111111111",
"1111111111111111 %,;O1111111111111111111",
"1111111111111111 %>;O1111111111111111111",
"1111111111111111 %>-O1111111111111111111",
"1111111111111111 $-=X1111111111111111111",
"11111111111111111oOX11111111111111111111",
"1111111111111111111111111111111111111111",
"1111111111111111111111111111111111111111",
"1111111111111111111111111111111111111111",
"1111111111111111111111111111111111111111",
"1111111111111111111111111111111111111111",
"1111111111111111111111111111111111111111",
"1111111111111111111111111111111111111111",
"1111111111111111111111111111111111111111",
"1111111111111111111111111111111111111111",
"1111111111111111111111111111111111111111",
"1111111111111111111111111111111111111111",
"1111111111111111111111111111111111111111",
"1111111111111111111111111111111111111111",
"1111111111111111111111111111111111111111",
"1111111111111111111111111111111111111111",
"1111111111111111111111111111111111111111",
"1111111111111111111111111111111111111111",
"1111111111111111111111111111111111111111",
"1111111111111111111111111111111111111111"
};
