/* XPM */
static char *result[] = {
/* columns rows colors chars-per-pixel */
"40 40 21 1 ",
"  c black",
". c #010000",
"X c #0F0D00",
"o c #1B1701",
"O c #191605",
"+ c #1D1901",
"@ c #50491C",
"# c #6D5E02",
"$ c #7B6A01",
"% c #796D25",
"& c #827001",
"* c #B89F04",
"= c #C7AB02",
"- c #D5B808",
"; c #E3C302",
": c #FFDE02",
"> c #FFE702",
", c #FFE404",
"< c #E5CC36",
"1 c #FFF440",
"2 c None",
/* pixels */
"2222222222222222222222222222222222222222",
"2222222222222222222222222222222222222222",
"2222222222222222222222222222222222222222",
"2222222222222222222222222222222222222222",
"2222222222222222222222222222222222222222",
"2222222222222222222222222222222222222222",
"222222222222222222  22222222222222222222",
"22222222222222222@%%O2222222222222222222",
"2222222222222222 %1<+2222222222222222222",
"2222222222222222 $>;+2222222222222222222",
"2222222222222222 $>;+2222222222222222222",
"2222222222222222 $>;+2222222222222222222",
"2222222222222222 &;#X2222222222222222222",
"2222222222222222 &*..2222222222222222222",
"2222222222222222 &=+.2222222222222222222",
"2222222222222222 $:=+2222222222222222222",
"2222222222222222 $>;+2222222222222222222",
"2222222222222222 $>;+2222222222222222222",
"2222222222222222 $,;+2222222222222222222",
"2222222222222222 #-*o2222222222222222222",
"22222222222222222O+o22222222222222222222",
"2222222222222222222222222222222222222222",
"2222222222222222222222222222222222222222",
"2222222222222222222222222222222222222222",
"2222222222222222222222222222222222222222",
"2222222222222222222222222222222222222222",
"2222222222222222222222222222222222222222",
"2222222222222222222222222222222222222222",
"2222222222222222222222222222222222222222",
"2222222222222222222222222222222222222222",
"2222222222222222222222222222222222222222",
"2222222222222222222222222222222222222222",
"2222222222222222222222222222222222222222",
"2222222222222222222222222222222222222222",
"2222222222222222222222222222222222222222",
"2222222222222222222222222222222222222222",
"2222222222222222222222222222222222222222",
"2222222222222222222222222222222222222222",
"2222222222222222222222222222222222222222",
"2222222222222222222222222222222222222222"
};
