/* XPM */
static char *elf_side01_walk61740972316[] = {
/* columns rows colors chars-per-pixel */
"40 40 187 2 ",
"   c #170126",
".  c #170227",
"X  c #190027",
"o  c #1A0127",
"O  c #1A0227",
"+  c #1D0327",
"@  c #190128",
"#  c #1D0328",
"$  c #1E0428",
"%  c #1F0428",
"&  c #1E0429",
"*  c #210629",
"=  c #220629",
"-  c #240829",
";  c #24082A",
":  c #26082A",
">  c #250B2C",
",  c #280B2A",
"<  c #2D0C2A",
"1  c #2B0D2E",
"2  c #340F2B",
"3  c #320E2C",
"4  c #320F2C",
"5  c #34112D",
"6  c #3A142B",
"7  c #3B152F",
"8  c #321230",
"9  c #3C1633",
"0  c #381434",
"q  c #361F34",
"w  c #3F1C30",
"e  c #3D273A",
"r  c #401A2C",
"t  c #431A2D",
"y  c #451B2F",
"u  c #4A1D2B",
"i  c #401830",
"p  c #431A32",
"a  c #411A3E",
"s  c #53232C",
"d  c #59262A",
"f  c #5C292D",
"g  c #432135",
"h  c #47213B",
"j  c #4A203B",
"k  c #4C2B38",
"l  c #482F3D",
"z  c #522232",
"x  c #5E2732",
"c  c #5C2734",
"v  c #592836",
"b  c #5E2A37",
"n  c #5B3032",
"m  c #5A353D",
"M  c #543A3F",
"N  c #5C383D",
"B  c #5E393D",
"V  c #622C2C",
"C  c #6B312E",
"Z  c #612A34",
"A  c #612C37",
"S  c #623434",
"D  c #6C3237",
"F  c #663039",
"G  c #6C333A",
"H  c #6A373A",
"J  c #783735",
"K  c #71363B",
"L  c #783E3C",
"P  c #502644",
"I  c #502447",
"U  c #502A41",
"Y  c #542944",
"T  c #56264B",
"R  c #5D3145",
"E  c #6E3B44",
"W  c #642F54",
"Q  c #713953",
"!  c #793D61",
"~  c #5C4144",
"^  c #504248",
"/  c #55454A",
"(  c #584A4C",
")  c #594D4E",
"_  c #644141",
"`  c #6B4441",
"'  c #774F46",
"]  c #7B4947",
"[  c #7D5447",
"{  c #7B5349",
"}  c #634F50",
"|  c #7F4165",
" . c #863E37",
".. c #8A423B",
"X. c #91483F",
"o. c #9A493C",
"O. c #8F4E4E",
"+. c #954C42",
"@. c #9C4F43",
"#. c #965246",
"$. c #9F5244",
"%. c #8D5E55",
"&. c #885058",
"*. c #91565B",
"=. c #A65747",
"-. c #B05C4C",
";. c #9D6F52",
":. c #BC644C",
">. c #A46352",
",. c #BC6858",
"<. c #AC7C57",
"1. c #824365",
"2. c #8D496D",
"3. c #A25779",
"4. c #A16166",
"5. c #BB6F63",
"6. c #B36F6B",
"7. c #B37C61",
"8. c #B8736E",
"9. c #A96173",
"0. c #B46879",
"q. c #C6694D",
"w. c #C26F50",
"e. c #CF6F50",
"r. c #CC7352",
"t. c #D67556",
"y. c #DF7A55",
"u. c #E67D55",
"i. c #CA7C70",
"p. c #BD845A",
"a. c #BE8B5C",
"s. c #E48056",
"d. c #EB8056",
"f. c #EA8357",
"g. c #EC8156",
"h. c #EE8256",
"j. c #EB8659",
"k. c #EA8759",
"l. c #F18357",
"z. c #F38558",
"x. c #F28C5B",
"c. c #F18D5C",
"v. c #E1905D",
"b. c #EA925E",
"n. c #EB945F",
"m. c #C79160",
"M. c #D49B63",
"N. c #CD8472",
"B. c #CF847D",
"V. c #DC8775",
"C. c #D4887D",
"Z. c #DB8C7D",
"A. c #D89475",
"S. c #DD9B74",
"D. c #DF927B",
"F. c #EA9D62",
"G. c #F09961",
"H. c #F19D62",
"J. c #E09F72",
"K. c #E0957A",
"L. c #D8A165",
"P. c #EAA667",
"I. c #E6A76F",
"U. c #E5AB69",
"Y. c #E7AA6E",
"T. c #EAAC69",
"R. c #EAAD6B",
"E. c #EAAE6A",
"W. c #EAAF6B",
"Q. c #F0A364",
"!. c #F6A465",
"~. c #F1AD69",
"^. c #EAB06B",
"/. c #EBB26B",
"(. c #EBB36B",
"). c #EDB069",
"_. c #EEB36C",
"`. c #F0B56D",
"'. c #F2B76D",
"]. c #F5B96E",
"[. c #E4A273",
"{. c #B26183",
"}. c #C67780",
"|. c #CA7E80",
" X c #E29181",
".X c #EC9886",
"XX c None",
/* pixels */
"XXXXXXXXXXXXXXXXXXXXXXXXXX@ o o o o o   o   @ o o   @ o   XXXXXXXXXXXXXXXXXXXXXX",
"XXXXXXXXXXXXXXXXXXXXXXXXXX7 p p p p p p p p g g g g g g w XXXXXXXXXXXXXXXXXXXXXX",
"XXXXXXXXXXXXXXXXXXXXXXXX3 K @.$.$.$.+.$.$.$.>.;.;.;.;.;.[ w XXXXXXXXXXXXXXXXXXXX",
"XXXXXXXXXXXXXXXXXXXXXX: j @.u.u.u.s.s.u.s.j.F.U.E.U.^.U.<.m , XXXXXXXXXXXXXXXXXX",
"XXXXXXXXXXXXXXXXXXXX7 G +.q.h.z.l.x.F.H.H.Q.~.`.'.`.].`.M.;.' k XXXXXXXXXXXXXXXX",
"XXXXXXXXXXXXXXXXXX, z =.u.u.h.u.f.b.P.E.R.R.^.^.^.^.^.^.E.U.p.N + XXXXXXXXXXXXXX",
"XXXXXXXXXXXXXXXX7 F +.q.l.l.f.j.b.F.E.(.(.R.(.^.^.^.R.^.`.].a.N * XXXXXXXXXXXXXX",
"XXXXXXXXXXXXXX, v =.t.u.h.u.f.b.P.E.R.R.R.(.E.R.^.^././.`.`.a.N * XXXXXXXXXXXXXX",
"XXXXXXXXXXXXXX* b :.z.l.s.j.b.F./.^.^.^.^.^.^.^.^.^.^./.`.`.a.N * XXXXXXXXXXXXXX",
"XXXXXXXXXXXXXX* b :.l.h.j.G.P.E.E.^.^.^.^.^.^.^.^.^.^./.`.`.a.H * XXXXXXXXXXXXXX",
"XXXXXXXXXXXXXX* b :.h.h.j.F.E.(.^.^.^.^.^.^.^.^.^.^.Y.[.[.[.7.M * XXXXXXXXXXXXXX",
"XXXXXXXXXXXXXX* b :.h.h.j.F.R.(.^.^.^.^.^.^.^.E.(.^.S.B.|.|.4.Y * XXXXXXXXXXXXXX",
"XXXXXXXXXXXXXX* b :.h.h.j.F.E.(.^.E.R.R.U././.E.).P.N.3.{.{.3.I * XXXXXXXXXXXXXX",
"XXXXXXXXXXXXXX* b :.h.h.j.F.E.(.^.I.J.[.Y././.E.Q.v.>.Q 1.0.9.Y * XXXXXXXXXXXXXX",
"XXXXXXXXXXXXXX* b :.h.h.j.F.E.(./.[.D.D.I.E.(.T.H.s.+.p R 6.6.R * XXXXXXXXXXXXXX",
"XXXXXXXXXXXXXX* b :.h.h.j.F.E.(./.[.D.D.Y./.(.).n.u...3 U 6.8.R * XXXXXXXXXXXXXX",
"XXXXXXXXXXXXXX* b :.h.h.k.F.E././.[.D.D.I.^.(.E.H.s.+.p R 6.6.R * XXXXXXXXXXXXXX",
"XXXXXXXXXXXXXX* b :.h.h.k.F.E./.E.S.B.C.[.^.^.R.Q.v.:.L O.i.8.R * XXXXXXXXXXXXXX",
"XXXXXXXXXXXXXX* b :.h.h.k.F.E./.^.A.i.}.S.R./.^.E.P.v.r.t.V.6.R ; XXXXXXXXXXXXXX",
"XXXXXXXXXXXXXX* b :.l.l.k.F./.(.(.J.{. X[././.`.`.(.Q.x.y.5.*.P % XXXXXXXXXXXXXX",
"XXXXXXXXXXXXXX* b :.z.l.k.F././.^.I.S.J.Y.(.(.`.]./.!.x.:.E a 9 XXXXXXXXXXXXXXXX",
"XXXXXXXXXXXXXX: v =.e.u.k.G.P.E.^.(.(.`.(.Y.M.m.m.m.p.w.+.t * XXXXXXXXXXXXXXXXXX",
"XXXXXXXXXXXXXXXXi c  .q.z.x.n.Q.(.'.'.].].L.;.` _ ` E D A 0 XXXXXXXXXXXXXXXXXXXX",
"XXXXXXXXXXXXXXXXXX; z $.t.u.k.v.M.L.L.L.L.p.` 8 ; ; > * + XXXXXXXXXXXXXXXXXXXXXX",
"XXXXXXXXXXXXXXXXXXXXp A X.q.u.:.%.{ { { { ] H s 2 o o . XXXXXXXXXXXXXXXXXXXXXXXX",
"XXXXXXXXXXXXXXXXXXXXXX: y +.t.+.p 1 8 8 8 p J ..x 5 % XXXXXXXXXXXXXXXXXXXXXXXXXX",
"XXXXXXXXXXXXXXXXXXXXXX  : b ..D 6 < 2 6 p x  .o.J z p XXXXXXXXXXXXXXXXXXXXXXXXXX",
"XXXXXXXXXXXXXXXXXXXXXX# : 1 6 u s s s V J ..o.o.o...x 5 @ XXXXXXXXXXXXXXXXXXXXXX",
"XXXXXXXXXXXXXXXXXXXXXXP j 1 % 6 d V V C  .X.o.@.-.-.O.R Y XXXXXXXXXXXXXXXXXXXXXX",
"XXXXXXXXXXXXXXXXXX+ 9 ! 1.I ; 6 d V V V C J ..$.,.i.i.6.&.h + XXXXXXXXXXXXXXXXXX",
"XXXXXXXXXXXXXXXXXX+ p 2.3.W 1 6 n S n n n S L #.5.Z..X X4.j + XXXXXXXXXXXXXXXXXX",
"XXXXXXXXXXXXXXXXXX+ p 2.3.W 1 q M ~ ~ ~ ~ ~ _ { 6.Z..X X4.j + XXXXXXXXXXXXXXXXXX",
"XXXXXXXXXXXXXXXXXXo a | 2.T 1 q ^ ) ( ( ( ( ( } %.8.N.i.*.g O XXXXXXXXXXXXXXXXXX",
"XXXXXXXXXXXXXXXXXXXX0 P T 8 : q ^ ) ) ) ) ) ) ) ~ E ] O.E 6 O XXXXXXXXXXXXXXXXXX",
"XXXXXXXXXXXXXXXXXXXXXX: ; ; 1 e / ( / / / / / ^ e 8 p f s < O XXXXXXXXXXXXXXXXXX",
"XXXXXXXXXXXXXXXXXXXXXX  ; p b L ] _ l e e e e e e 6 u d u < % XXXXXXXXXXXXXXXXXX",
"XXXXXXXXXXXXXXXXXXXXXX@ < x ..o.X.D 5 : > > > > 6 s f f u < % XXXXXXXXXXXXXXXXXX",
"XXXXXXXXXXXXXXXXXXXXXX% < u D J D b 2 o + + + % 9 t u u t : XXXXXXXXXXXXXXXXXXXX",
"XXXXXXXXXXXXXXXXXXXXXX% ; < 2 6 5 3 XXXXXXXXXXXX+ - < < < XXXXXXXXXXXXXXXXXXXXXX",
"XXXXXXXXXXXXXXXXXXXXXX@ % % # o o + XXXXXXXXXXXX  ; + +   XXXXXXXXXXXXXXXXXXXXXX"
};
