/* XPM */
static char *elf_side01_walk71740972316[] = {
/* columns rows colors chars-per-pixel */
"40 40 179 2 ",
"   c #140024",
".  c #170027",
"X  c #190127",
"o  c #1B0127",
"O  c #1A0327",
"+  c #1C0227",
"@  c #1D0328",
"#  c #1E0328",
"$  c #1F0528",
"%  c #1F0529",
"&  c #210629",
"*  c #220628",
"=  c #220629",
"-  c #230629",
";  c #250A2B",
":  c #2A0B29",
">  c #290A2B",
",  c #2D0D2C",
"<  c #320F2C",
"1  c #31112C",
"2  c #33112D",
"3  c #31112F",
"4  c #30122F",
"5  c #36112C",
"6  c #39122A",
"7  c #39152E",
"8  c #3B142E",
"9  c #3A142F",
"0  c #3F172F",
"q  c #3A1735",
"w  c #3E1F33",
"e  c #3A2338",
"r  c #41192F",
"t  c #471C2C",
"y  c #401930",
"u  c #4E1E30",
"i  c #54242B",
"p  c #59272B",
"a  c #432133",
"s  c #4D2033",
"d  c #492533",
"f  c #45203A",
"g  c #4A233C",
"h  c #422A3B",
"j  c #562332",
"k  c #5A2532",
"l  c #5D2631",
"z  c #592C30",
"x  c #592836",
"c  c #5E2A37",
"v  c #5E2B37",
"b  c #502A3E",
"n  c #4D323C",
"m  c #5E3233",
"M  c #59353C",
"N  c #543A3F",
"B  c #5D393D",
"V  c #612B2C",
"C  c #622B36",
"Z  c #6B2E34",
"A  c #683139",
"S  c #68343A",
"D  c #723232",
"F  c #783837",
"G  c #71363B",
"H  c #522743",
"J  c #542A41",
"K  c #5A2F43",
"L  c #5D3045",
"P  c #613344",
"I  c #713E4E",
"U  c #5C4142",
"Y  c #554449",
"T  c #57484B",
"R  c #584B4D",
"E  c #694241",
"W  c #6A4442",
"Q  c #604F4E",
"!  c #754843",
"~  c #774F46",
"^  c #7D5447",
"/  c #7B5548",
"(  c #7B4652",
")  c #6D5454",
"_  c #7F4162",
"`  c #86413B",
"'  c #914439",
"]  c #8A4743",
"[  c #944C41",
"{  c #9D4F42",
"}  c #9A4F44",
"|  c #845045",
" . c #89594A",
".. c #9E5345",
"X. c #814B55",
"o. c #815454",
"O. c #8D545A",
"+. c #A95443",
"@. c #A25648",
"#. c #AA5A4C",
"$. c #B05C4C",
"%. c #98634D",
"&. c #83605D",
"*. c #9D6F52",
"=. c #BC644C",
"-. c #BE654C",
";. c #B07C5C",
":. c #985371",
">. c #A35F6D",
",. c #B36E6C",
"<. c #A77363",
"1. c #B7716C",
"2. c #BB766E",
"3. c #B06578",
"4. c #C0664C",
"5. c #C6694D",
"6. c #CC6F50",
"7. c #C26F59",
"8. c #C57C55",
"9. c #D87552",
"0. c #DF7953",
"q. c #D5785F",
"w. c #E77D55",
"e. c #C77870",
"r. c #C87F76",
"t. c #B6845A",
"y. c #C08B5C",
"u. c #E58157",
"i. c #EA8257",
"p. c #EE8156",
"a. c #EB8759",
"s. c #F28457",
"d. c #F18D5B",
"f. c #E1925E",
"g. c #EB925D",
"h. c #EC955E",
"j. c #DF8264",
"k. c #CF9962",
"l. c #D79D63",
"z. c #CB8A71",
"x. c #D1857C",
"c. c #DA8B7E",
"v. c #DA9473",
"b. c #DE9C72",
"n. c #DF917D",
"m. c #ED8A69",
"M. c #E69F66",
"N. c #EF9960",
"B. c #EA9C62",
"V. c #E49968",
"C. c #F19E63",
"Z. c #E58F7C",
"A. c #E0957A",
"S. c #D8A165",
"D. c #E1A667",
"F. c #EDA164",
"G. c #EBA666",
"H. c #E5AC6A",
"J. c #E7A96E",
"K. c #EAAC6A",
"L. c #EAAE6A",
"P. c #EAAF6B",
"I. c #F3AA67",
"U. c #F1AD69",
"Y. c #EAB06B",
"T. c #EBB26B",
"R. c #EBB36B",
"E. c #ECB56B",
"W. c #F1B16B",
"Q. c #F1B56C",
"!. c #F3B86E",
"~. c #E3A173",
"^. c #E5A273",
"/. c #E6A670",
"(. c #AB5C80",
"). c #B86685",
"_. c #C87B81",
"`. c #ED9887",
"'. c None",
/* pixels */
"'.'.'.'.'.'.'.'.'.'.'.'.'.. + X X X X X X X X X X X X X * '.'.'.'.'.'.'.'.'.'.'.",
"'.'.'.'.'.'.'.'.'.'.'.'.'.9 y r r r r r r r a a a a a a w '.'.'.'.'.'.'.'.'.'.'.",
"'.'.'.'.'.'.'.'.'.'.'.'., G } ....{ { { { @.%.*.*.*.*.*.^ w '.'.'.'.'.'.'.'.'.'.",
"'.'.'.'.'.'.'.'.'.'.'.< s } 0.p.w.u.u.u.u.a.M.H.H.H.Y.H.;.M 2 '.'.'.'.'.'.'.'.'.",
"'.'.'.'.'.'.'.'.'.'.9 A [ 5.p.s.s.d.B.C.C.F.U.Q.!.Q.!.Q.k.*.~ b '.'.'.'.'.'.'.'.",
"'.'.'.'.'.'.'.'.'.@ s @.w.w.i.p.i.g.G.K.K.P.P.P.Y.Y.Y.Y.Y.H.t.B + '.'.'.'.'.'.'.",
"'.'.'.'.'.'.'.'.0 C ] 5.p.s.i.a.g.F.K.R.R.P.P.P.Y.Y.Y.Y.Q.!.y.B & '.'.'.'.'.'.'.",
"'.'.'.'.'.'.'.$ x #.9.w.p.p.i.h.G.K.K.T.P.P.R.P.Y.Y.Y.Y.Q.Q.y.B & '.'.'.'.'.'.'.",
"'.'.'.'.'.'.'.& v 4.s.s.p.a.g.F.K.R.Y.Y.Y.Y.Y.Y.Y.Y.Y.R.Q.Q.y.B & '.'.'.'.'.'.'.",
"'.'.'.'.'.'.'.& v -.s.p.a.h.G.K.Y.Y.Y.Y.Y.Y.Y.Y.Y.Y.Y.Y.Q.Q.y.B & '.'.'.'.'.'.'.",
"'.'.'.'.'.'.'.& v =.p.p.a.B.P.P.Y.Y.Y.Y.Y.Y.Y.Y.Y.Y.J.^.^.~.;.M & '.'.'.'.'.'.'.",
"'.'.'.'.'.'.'.& v -.p.p.a.B.P.R.Y.Y.Y.Y.Y.Y.Y.Y.Y.K.b.x._._.>.H & '.'.'.'.'.'.'.",
"'.'.'.'.'.'.'.& v =.s.w.s.B.P.R.Y.K.K.K.Y.Y.Y.Y.Y.H.z.3.(.).:.H & '.'.'.'.'.'.'.",
"'.'.'.'.'.'.'.& v =.s.w.a.B.P.R.Y.J.~.^.J.Y.Y.Y.E.H.<.I _ 3.>.H & '.'.'.'.'.'.'.",
"'.'.'.'.'.'.'.& c =.w.s.a.B.P.R.Y.^.A.A.J.Y.Y.Y.Q.D.%.a L ,.1.L & '.'.'.'.'.'.'.",
"'.'.'.'.'.'.'.& c =.s.w.a.B.P.R.Y.^.n.A.^.Y.R.Y.I.f.| 1 H ,.1.L & '.'.'.'.'.'.'.",
"'.'.'.'.'.'.'.& v =.p.p.a.B.P.R.K.~.n.A./.Y.R.K.C.u.[ r L 1.1.L & '.'.'.'.'.'.'.",
"'.'.'.'.'.'.'.& v =.p.p.a.h.P.R.Y.b.x.c.~.Y.R.K.B.u.$.I O.r.1.L & '.'.'.'.'.'.'.",
"'.'.'.'.'.'.'.& v =.p.p.a.B.P.E.K.v._._.b.Y.R.K.h.p.q.e.r.c.,.K & '.'.'.'.'.'.'.",
"'.'.'.'.'.'.'.& v =.s.s.a.B.P.R.Y.v.e.e.b.R.E.K.N.a.m.Z.x.1.O.J @ '.'.'.'.'.'.'.",
"'.'.'.'.'.'.'.& v 4.s.p.a.B.P.R.Y.V.j.j.F.Y.!.Q.C.a.m.Z.,.I g 2 '.'.'.'.'.'.'.'.",
"'.'.'.'.'.'.'.@ x @.5.w.a.B.G.P.Y.F.g.h.G.H.S.t.8.6.7.1.O.f @ '.'.'.'.'.'.'.'.'.",
"'.'.'.'.'.'.'.'.0 C ` 5.s.d.h.G.W.W.I.I.E.S.*.E A A S P J 3 '.'.'.'.'.'.'.'.'.'.",
"'.'.'.'.'.'.'.'.'.+ s ..9.w.i.f.l.S.l.S.S.t.W 2 - & @ & $ '.'.'.'.'.'.'.'.'.'.'.",
"'.'.'.'.'.'.'.'.'.'.r A ] 5.w.7. ./ / / / ! S j 6 $ X . '.'.'.'.'.'.'.'.'.'.'.'.",
"'.'.'.'.'.'.'.'.'.'.'.& s { 6.[ a : 1 1 2 t F ` k ; $ '.'.'.'.'.'.'.'.'.'.'.'.'.",
"'.'.'.'.'.'.'.'.'.'.'.'., G ] S 6 : 1 6 0 l ` ' k - . '.'.'.'.'.'.'.'.'.'.'.'.'.",
"'.'.'.'.'.'.'.'.'.'.'.'.'.9 y t i i i V F ' { ' k ; X '.'.'.'.'.'.'.'.'.'.'.'.'.",
"'.'.'.'.'.'.'.'.'.'.'.'.'.. + 6 p V V D ' +.$.#.] P b '.'.'.'.'.'.'.'.'.'.'.'.'.",
"'.'.'.'.'.'.'.'.'.'.'.'.'.+ - 6 p V V D ' +.7.e.e.,.( 2 . '.'.'.'.'.'.'.'.'.'.'.",
"'.'.'.'.'.'.'.'.'.'.'.'.'.X & r z m m S ` @.e.c.`.c.O.q $ '.'.'.'.'.'.'.'.'.'.'.",
"'.'.'.'.'.'.'.'.'.'.'.'.'.+ ; e N U U U W o.2.n.`.c.O.q $ '.'.'.'.'.'.'.'.'.'.'.",
"'.'.'.'.'.'.'.'.'.'.'.'.'.X ; e Y R R T T ) <.r.x.2.X.9 X '.'.'.'.'.'.'.'.'.'.'.",
"'.'.'.'.'.'.'.'.'.'.'.'.'.+ ; e Y R R R R Q &.&.o.I b '.'.'.'.'.'.'.'.'.'.'.'.'.",
"'.'.'.'.'.'.'.'.'.'.'.'.'.X ; e Y Q R T Y T R Y h 1 , '.'.'.'.'.'.'.'.'.'.'.'.'.",
"'.'.'.'.'.'.'.'.'.'.'.'.'.& : d ! | | W n h n M d y 2 2 '.'.'.'.'.'.'.'.'.'.'.'.",
"'.'.'.'.'.'.'.'.'.'.'.'.'.X : j ` { [ F r 1 a z V i r & & '.'.'.'.'.'.'.'.'.'.'.",
"'.'.'.'.'.'.'.'.'.'.'.'.'.'.$ u Z D D C < * 9 t t t 8 - @ '.'.'.'.'.'.'.'.'.'.'.",
"'.'.'.'.'.'.'.'.'.'.'.'.'.'.'.q 5 6 6 2 '.'.& : : : - - & '.'.'.'.'.'.'.'.'.'.'.",
"'.'.'.'.'.'.'.'.'.'.'.'.'.'.'.'.& X X @ '.'.+ @ & & - - * '.'.'.'.'.'.'.'.'.'.'."
};
