/* XPM */
static char *elf_side01_walk21740972282[] = {
/* columns rows colors chars-per-pixel */
"40 40 200 2 ",
"   c #160024",
".  c #190027",
"X  c #1A0127",
"o  c #1B0127",
"O  c #1C0327",
"+  c #1D0327",
"@  c #1D0427",
"#  c #1C0328",
"$  c #1E0428",
"%  c #1E0429",
"&  c #210629",
"*  c #230629",
"=  c #220729",
"-  c #22092B",
";  c #24082A",
":  c #25082A",
">  c #2A0B2B",
",  c #2D0C2B",
"<  c #2D0D2B",
"1  c #33122D",
"2  c #31112E",
"3  c #30122E",
"4  c #34102C",
"5  c #36122D",
"6  c #3A1428",
"7  c #3D162A",
"8  c #38122C",
"9  c #3A152E",
"0  c #3C162F",
"q  c #381535",
"w  c #391536",
"e  c #3E1F33",
"r  c #3C293C",
"t  c #4A1C2C",
"y  c #501F2F",
"u  c #421A30",
"i  c #421A31",
"p  c #441B31",
"a  c #401E32",
"s  c #421C36",
"d  c #411A3E",
"f  c #431B3F",
"g  c #451E3C",
"h  c #49212E",
"j  c #55252C",
"k  c #58262B",
"l  c #5E2B2C",
"z  c #412235",
"x  c #4F2133",
"c  c #4A2734",
"v  c #45203A",
"b  c #422B3B",
"n  c #4C2B38",
"m  c #592431",
"M  c #5A2733",
"N  c #5F2F30",
"B  c #5E2A36",
"V  c #532538",
"C  c #52353A",
"Z  c #59363D",
"A  c #5D393D",
"S  c #692F2D",
"D  c #622D38",
"F  c #6E3135",
"G  c #61303F",
"H  c #683139",
"J  c #6C3138",
"K  c #6F353A",
"L  c #733435",
"P  c #793835",
"I  c #713E3D",
"U  c #481E44",
"Y  c #522843",
"T  c #572A46",
"R  c #592E43",
"E  c #5B2F43",
"W  c #55264B",
"Q  c #5C3044",
"!  c #573E41",
"~  c #663748",
"^  c #733D4C",
"/  c #642F55",
"(  c #723A55",
")  c #783C61",
"_  c #574549",
"`  c #604242",
"'  c #7A5146",
"]  c #7A5247",
"[  c #794552",
"{  c #7F5258",
"}  c #853E37",
"|  c #84433F",
" . c #8D423A",
".. c #90473E",
"X. c #9C4A3C",
"o. c #82464A",
"O. c #954D43",
"+. c #994F44",
"@. c #82594F",
"#. c #9D5044",
"$. c #814B55",
"%. c #8D535A",
"&. c #8F545B",
"*. c #A35445",
"=. c #AA5847",
"-. c #AF5D4D",
";. c #9D634D",
":. c #8A625F",
">. c #9D6F52",
",. c #B9634B",
"<. c #BD644C",
"1. c #A8655A",
"2. c #BE6F51",
"3. c #AC7C57",
"4. c #804265",
"5. c #8D4A6D",
"6. c #985371",
"7. c #A55C75",
"8. c #AC5F7C",
"9. c #BE6E60",
"0. c #B26D6B",
"q. c #B37C61",
"w. c #B5706C",
"e. c #B6677C",
"r. c #BB7470",
"t. c #C2674D",
"y. c #C76B4F",
"u. c #CF6F50",
"i. c #D87552",
"p. c #DF7953",
"a. c #DE7E59",
"s. c #E67D55",
"d. c #E57D5B",
"f. c #CE6E6E",
"g. c #C37466",
"h. c #C57873",
"j. c #CA7E74",
"k. c #D77670",
"l. c #B38259",
"z. c #BE8B5C",
"x. c #D48157",
"c. c #DA8358",
"v. c #E58157",
"b. c #EB8056",
"n. c #EA8357",
"m. c #EF8256",
"M. c #EA8659",
"N. c #EE855A",
"B. c #E8825C",
"V. c #E5895A",
"C. c #F28457",
"Z. c #F18D5B",
"A. c #E8915D",
"S. c #EC945D",
"D. c #EF985F",
"F. c #D49761",
"G. c #D79F64",
"H. c #CE8577",
"J. c #D5877E",
"K. c #DC8C7E",
"L. c #DB9471",
"P. c #D89476",
"I. c #DE9D73",
"U. c #DF937A",
"Y. c #DF927B",
"T. c #E18468",
"R. c #E89663",
"E. c #E59E63",
"W. c #EA9C62",
"Q. c #EA9D62",
"!. c #E49968",
"~. c #F39D62",
"^. c #E0957A",
"/. c #ECA164",
"(. c #EBA566",
"). c #EDA967",
"_. c #E6AB6B",
"`. c #EAAD6A",
"'. c #E8AE6B",
"]. c #EAAE6A",
"[. c #EAAF6B",
"{. c #F3A263",
"}. c #F1AD69",
"|. c #EAB06B",
" X c #EBB16B",
".X c #EBB46B",
"XX c #EAB36C",
"oX c #F1B26B",
"OX c #F0B56D",
"+X c #F4B96E",
"@X c #E4A272",
"#X c #E7A770",
"$X c #B76484",
"%X c #C67482",
"&X c #C87B80",
"*X c #CF7E85",
"=X c #E08E83",
"-X c #E29082",
";X c #ED9987",
":X c None",
/* pixels */
":X:X:X:X:X:X:X:X:X:X:X:X:X< o o o o   . o o   . . . . . # :X:X:X:X:X:X:X:X:X:X:X",
":X:X:X:X:X:X:X:X:X:X:X:X:Xs p u u u i i i i a z z z z z e :X:X:X:X:X:X:X:X:X:X:X",
":X:X:X:X:X:X:X:X:X:X:X:X5 K +.*.#.#.#.#.#.*.;.>.>.>.>.>.' e :X:X:X:X:X:X:X:X:X:X",
":X:X:X:X:X:X:X:X:X:X:X: x +.s.s.s.v.v.v.v.V.E._.'._. X_.3.Z 1 :X:X:X:X:X:X:X:X:X",
":X:X:X:X:X:X:X:X:X:X0 H O.y.m.C.C.Z.D.~.~.{.}.OXOXOX+XOXF.>.' n :X:X:X:X:X:X:X:X",
":X:X:X:X:X:X:X:X:X@ x *.s.m.s.s.n.A.(.`.`.`.`.|. X X'. X X_.l.A & :X:X:X:X:X:X:X",
":X:X:X:X:X:X:X:X0 D ..y.s.C.n.M.S./.`.XXXX|..X|.'. X'. XOX+Xz.A & :X:X:X:X:X:X:X",
":X:X:X:X:X:X:X% M =.i.s.s.m.n.S.(.`.`.|.|.|.|.|.'. X X XOX.Xz.A & :X:X:X:X:X:X:X",
":X:X:X:X:X:X:X& B t.C.C.n.M.A./.'. X X X X X X'. X X X XOXOXz.A & :X:X:X:X:X:X:X",
":X:X:X:X:X:X:X& B <.m.C.M.S.(.`. X X'. X'.'. X X X'. X XOXOXz.A & :X:X:X:X:X:X:X",
":X:X:X:X:X:X:X& B <.m.m.M.Q.|.XX X X X'. X X'. X X X_.@X@X@Xq.Z & :X:X:X:X:X:X:X",
":X:X:X:X:X:X:X& B <.m.m.M.Q.|.XX'. X X X X'. X X X XI.H.*X&X7.Y & :X:X:X:X:X:X:X",
":X:X:X:X:X:X:X& B <.m.m.M.W.`.XX X_._.'.'. X X X X(.H.8.8.$X6.Y & :X:X:X:X:X:X:X",
":X:X:X:X:X:X:X& B <.m.m.M.W.`.XX X#X@X@X_. X X'.).V.1.( 4.e.7.Y & :X:X:X:X:X:X:X",
":X:X:X:X:X:X:X& B <.m.m.M.W.`.XX'.@X^.^.#X'.`.).W.d.O.u Q w.0.E & :X:X:X:X:X:X:X",
":X:X:X:X:X:X:X& B <.m.m.M.W.`.XX'.@XY.^._.`.(.R.T.f.^ , Y w.w.Q & :X:X:X:X:X:X:X",
":X:X:X:X:X:X:X& B <.m.m.M.Q.`.XX[.#XU.U.#X).D.B.k.e.( w Q w.w.Q & :X:X:X:X:X:X:X",
":X:X:X:X:X:X:X& B <.m.m.M.Q.|. X[.^.J.J.@X).S.d.f.$X5.( %.j.w.Q & :X:X:X:X:X:X:X",
":X:X:X:X:X:X:X& B <.m.m.M.W.`..X_.P.%X&XI.).S.d.f.$Xe.r.j.K.0.Q & :X:X:X:X:X:X:X",
":X:X:X:X:X:X:X& B <.C.C.M.W. X.X`.L.h.H.I.).D.B.k.%X*X=XJ.w.&.V & :X:X:X:X:X:X:X",
":X:X:X:X:X:X:X& B t.C.m.M.Q.`..X|.!.T.T.@X).D.M.T.J.=X-Xw.^ g w :X:X:X:X:X:X:X:X",
":X:X:X:X:X:X:X@ m *.u.p.n.~.(.'.|./.A.S./.E.x.y.2.r.h.r.&.v & :X:X:X:X:X:X:X:X:X",
":X:X:X:X:X:X:X:Xu D o.t.M.Z.S.(.oXoX).{.~.c.#.J Q ~ ~ ~ T w :X:X:X:X:X:X:X:X:X:X",
":X:X:X:X:X:X:X:X:X: y *.i.s.n.A.G.G.G.F.c.,.J 1 : : : : : :X:X:X:X:X:X:X:X:X:X:X",
":X:X:X:X:X:X:X:X:X:X< H ..t.s.2.@.] ] ] | P J m q # o   o :X:X:X:X:X:X:X:X:X:X:X",
":X:X:X:X:X:X:X:X:X:X:X@ p #.u.O.e 3 1 1 1 i L } m > # : : :X:X:X:X:X:X:X:X:X:X:X",
":X:X:X:X:X:X:X:X:X:X:X:X< K | L y t t t y m P P y > w W T w :X:X:X:X:X:X:X:X:X:X",
":X:X:X:X:X:X:X:X:X:X:X:X:X0 p B }  . . . .} P l 6 > W 5.) d @ :X:X:X:X:X:X:X:X:X",
":X:X:X:X:X:X:X:X:X:X:X:X:Xe Q o.-.-.*.X...} L k 6 > / 7.5.g # :X:X:X:X:X:X:X:X:X",
":X:X:X:X:X:X:X:X:X:X:Xo 2 [ 0.h.j.9.=. .P S S k 6 > / 7.5.U % :X:X:X:X:X:X:X:X:X",
":X:X:X:X:X:X:X:X:X:X:X# w &.=X-X=Xg.#.} S l l k 6 > W 4.) g o :X:X:X:X:X:X:X:X:X",
":X:X:X:X:X:X:X:X:X:X:X# w &.=X;X=X2.| F l l l j 6 : 1 d U :X:X:X:X:X:X:X:X:X:X:X",
":X:X:X:X:X:X:X:X:X:X:Xo 9 $.r.H.j.1.I l N N N l i & : , 5 :X:X:X:X:X:X:X:X:X:X:X",
":X:X:X:X:X:X:X:X:X:X:X:X:XR [ $.:.@.` ! ! ` ` Z a : 8 m m 5 :X:X:X:X:X:X:X:X:X:X",
":X:X:X:X:X:X:X:X:X:X:X:X:X= 3 r _ _ _ _ _ _ _ ! z 1 m  .L 7 % :X:X:X:X:X:X:X:X:X",
":X:X:X:X:X:X:X:X:X:X:X:X@ 1 7 c C C b r r r r r c B } X.P 6 # :X:X:X:X:X:X:X:X:X",
":X:X:X:X:X:X:X:X:X:X:Xo & 7 j l l h 1 - - - - 1 B } X.X.L 6 % :X:X:X:X:X:X:X:X:X",
":X:X:X:X:X:X:X:X:X:X:X@ : 8 t t t 9 & # o # . & V F L J M 5 :X:X:X:X:X:X:X:X:X:X",
":X:X:X:X:X:X:X:X:X:X:X: : : > > < : :X:X:X:X:X:X, 5 5 8 4 :X:X:X:X:X:X:X:X:X:X:X",
":X:X:X:X:X:X:X:X:X:X:X@ % @ % @ - o :X:X:X:X:X:X% o o   . :X:X:X:X:X:X:X:X:X:X:X"
};
