/* XPM */
static char *elf_side02_walk11740972529[] = {
/* columns rows colors chars-per-pixel */
"40 40 177 2 ",
"   c #150024",
".  c #190027",
"X  c #190227",
"o  c #1B0327",
"O  c #190128",
"+  c #1A0128",
"@  c #1D0328",
"#  c #1F0429",
"$  c #200529",
"%  c #210529",
"&  c #220529",
"*  c #210629",
"=  c #24082B",
"-  c #27092A",
";  c #290C2A",
":  c #2B0C2A",
">  c #2D0C2A",
",  c #2D0E2E",
"<  c #300F2D",
"1  c #320E2C",
"2  c #37102B",
"3  c #31122D",
"4  c #3B152A",
"5  c #3E1629",
"6  c #39142F",
"7  c #341330",
"8  c #381B31",
"9  c #3E1932",
"0  c #3E1F33",
"q  c #461A2B",
"w  c #41192E",
"e  c #4D1D2E",
"r  c #401830",
"t  c #431B31",
"y  c #4D1E30",
"u  c #58262E",
"i  c #5E2E2F",
"p  c #422335",
"a  c #4C2132",
"s  c #4D2033",
"d  c #422D3B",
"f  c #4C2B38",
"g  c #522336",
"h  c #592836",
"j  c #5A2836",
"k  c #5C2B35",
"l  c #5E2936",
"z  c #47303E",
"x  c #51353B",
"c  c #5B373C",
"v  c #5A3D3D",
"b  c #612A33",
"n  c #662D30",
"m  c #652F38",
"M  c #6E3131",
"N  c #69323A",
"B  c #60393C",
"V  c #71363B",
"C  c #743838",
"Z  c #502445",
"A  c #542B41",
"S  c #552843",
"D  c #563341",
"F  c #5D3046",
"G  c #683847",
"H  c #713F4D",
"J  c #713D55",
"K  c #574448",
"L  c #5E4A4B",
"P  c #654143",
"I  c #6E4441",
"U  c #694949",
"Y  c #7C4543",
"T  c #774B44",
"R  c #774F46",
"E  c #7D5447",
"W  c #7A5448",
"Q  c #7B4357",
"!  c #813C36",
"~  c #89403A",
"^  c #8E463D",
"/  c #964A3F",
"(  c #9D4F43",
")  c #994F44",
"_  c #8A5646",
"`  c #9F5345",
"'  c #8E545B",
"]  c #835C5A",
"[  c #A75646",
"{  c #B05D4D",
"}  c #A25750",
"|  c #99634D",
" . c #9D6E51",
".. c #9E7052",
"X. c #BC644C",
"o. c #BF654C",
"O. c #AC7C57",
"+. c #AC775F",
"@. c #9F5F6B",
"#. c #9C5472",
"$. c #AD5A63",
"%. c #926964",
"&. c #B26E69",
"*. c #B37C61",
"=. c #B6706D",
"-. c #AA6274",
";. c #B86979",
":. c #BB7570",
">. c #C5694E",
",. c #CA6F50",
"<. c #D87552",
"1. c #DE7853",
"2. c #E57C55",
"3. c #CC7364",
"4. c #C26A7B",
"5. c #CA7A70",
"6. c #CF7F70",
"7. c #C97F75",
"8. c #C7757C",
"9. c #D27170",
"0. c #B38259",
"q. c #BD8A5C",
"w. c #E48157",
"e. c #EA8057",
"r. c #EE8156",
"t. c #EF8257",
"y. c #EA8258",
"u. c #EA8659",
"i. c #E5885F",
"p. c #F28457",
"a. c #F18D5B",
"s. c #E2935D",
"d. c #EB915D",
"f. c #EB945E",
"g. c #F0965C",
"h. c #DC8460",
"j. c #D49B62",
"k. c #CB8A71",
"l. c #CE8378",
"z. c #D1857F",
"x. c #D4897C",
"c. c #DA9473",
"v. c #DE9C73",
"b. c #DF937A",
"n. c #E69B65",
"m. c #EE9960",
"M. c #EC9D62",
"N. c #E09679",
"B. c #E0957A",
"V. c #D8A065",
"C. c #E3A666",
"Z. c #E9A066",
"A. c #ECA465",
"S. c #EDA966",
"D. c #E7A76F",
"F. c #E6AC6B",
"G. c #EAAD6A",
"H. c #EAAE6A",
"J. c #EAAF6B",
"K. c #F4AC67",
"L. c #F1AD69",
"P. c #EAB06B",
"I. c #EBB06B",
"U. c #EBB16B",
"Y. c #EBB36B",
"T. c #EBB56B",
"R. c #F1B36C",
"E. c #F1B66C",
"W. c #F4B96E",
"Q. c #E4A273",
"!. c #AB5C80",
"~. c #BC6886",
"^. c #CB7B85",
"/. c #DD8B81",
"(. c #E19180",
"). c #EA9686",
"_. c None",
/* pixels */
"_._._._._._._._._._._.* o o . . . . . . + o o   + * + _._._._._._._._._._._._._.",
"_._._._._._._._._._._.0 p p p p p t t t t t t t t w 6 _._._._._._._._._._._._._.",
"_._._._._._._._._._.0 W  ... ... .| ` ( ( ( ( ( ` ( N 1 _._._._._._._._._._._._.",
"_._._._._._._._._.; c O.F.G.F.F.F.n.i.w.w.w.w.2.r.1.` s * _._._._._._._._._._._.",
"_._._._._._._._.f R O.j.E.W.E.E.T.L.A.M.M.m.a.p.p.r.>./ m 6 _._._._._._._._._._.",
"_._._._._._._.o c 0.C.F.P.P.P.P.P.I.G.G.Y.A.d.y.2.y.2.2.[ s * _._._._._._._._._.",
"_._._._._._._.* B q.W.E.P.P.P.P.P.I.I.I.I.G.Z.f.u.e.p.t.>.^ m t _._._._._._._._.",
"_._._._._._._.* c q.R.E.P.P.P.P.P.P.P.P.P.P.G.A.m.e.e.2.2.<.[ h ; _._._._._._._.",
"_._._._._._._.* B q.E.E.Y.Y.F.P.P.P.P.P.P.P.Y.G.Z.d.u.y.p.p.>.j * _._._._._._._.",
"_._._._._._._.* B q.E.E.G.Y.Y.G.P.P.P.P.P.G.Y.G.G.A.f.u.t.t.o.j * _._._._._._._.",
"_._._._._._._.* D *.Q.Q.v.D.G.Y.P.P.P.P.P.P.G.Y.I.J.M.u.2.r.o.k * _._._._._._._.",
"_._._._._._._.* S @.^.^./.v.G.Y.P.P.P.P.I.P.Y.G.I.I.M.u.p.p.X.k * _._._._._._._.",
"_._._._._._._.* Z #.~.!.-.k.F.Y.P.P.P.P.G.F.G.Y.I.J.M.u.p.p.X.b * _._._._._._._.",
"_._._._._._._.* S -.;.Q J +.F.E.P.P.P.F.Q.Q.Q.Y.I.I.M.u.2.p.X.l * _._._._._._._.",
"_._._._._._._.* F &.=.F p | C.R.P.I.P.D.B.B.Q.I.T.J.M.u.t.t.X.l * _._._._._._._.",
"_._._._._._._.* F =.&.S 3 _ s.K.I.T.I.D.B.B.Q.I.I.G.M.p.2.e.X.l * _._._._._._._.",
"_._._._._._._.* F =.&.G t ( w.M.G.I.P.D.b.b.Q.P.Y.J.M.u.r.p.X.k * _._._._._._._.",
"_._._._._._._.* F =.7.' H } 3.i.n.S.Y.Q.l./.v.F.Y.G.M.u.r.u.X.l * _._._._._._._.",
"_._._._._._._.* F &./.7.:.;.4.9.i.m.S.v.^.8.c.G.Y.G.M.u.p.2.X.l * _._._._._._._.",
"_._._._._._._.@ S ' &.z./.^.~.9.e.g.S.v.5.8.c.J.Y.P.M.u.2.p.>.k * _._._._._._._.",
"_._._._._._._._.7 g H &./.^.~.9.y.g.S.Z.h.h.n.G.I.J.M.u.p.p.>.k * _._._._._._._.",
"_._._._._._._._._.@ 9 ' &.-.#.$.>.h.C.S.f.d.A.Y.J.S.m.u.2.,.[ h * _._._._._._._.",
"_._._._._._._._._._.7 S F F S S N | V.E.K.S.R.R.A.m.a.t.,.! m r _._._._._._._._.",
"_._._._._._._._._._._.= * * = - 3 I q.V.V.V.V.j.n.2.2.<.[ y * _._._._._._._._._.",
"_._._._._._._._._._._._.o o $ 1 u B T W W W W _ >.2.>.^ m t _._._._._._._._._._.",
"_._._._._._._._._._._._._.+ - u ! C t 3 3 3 ; t / ,.( s * _._._._._._._._._._._.",
"_._._._._._._._._._._._._.o - k ( ! k e e q 2 4 n ^ V 1 _._._._._._._._._._._._.",
"_._._._._._._._._._._._._.+ - u ^ ( ^ ~ ^ ! M u q w 6 _._._._._._._._._._._._._.",
"_._._._._._._._._._._._._.. - e ! ( ( [ { { } Y a * o _._._._._._._._._._._._._.",
"_._._._._._._._._._._._._.. - q n ! / { 3.6.6.&.G ,   _._._._._._._._._._._._._.",
"_._._._._._._._._._._._._.@ - 5 u M ! } 5.(.).l.Q ,   _._._._._._._._._._._._._.",
"_._._._._._._._._._._._._.+ - 2 u n M ) 5.(.).l.Q ,   _._._._._._._._._._._._._.",
"_._._._._._._._._._._._._.+ - 4 h i i Y =.l.x.:.U 1   _._._._._._._._._._._._._.",
"_._._._._._._._._._._._._.+ * 8 x v v U W %.%.] D - + _._._._._._._._._._._._._.",
"_._._._._._._._._._._._._.* , p K U K K L L L K p - + _._._._._._._._._._._._._.",
"_._._._._._._._._._._._.7 y b C T P z d D K v x 8 * * _._._._._._._._._._._._._.",
"_._._._._._._._._._._.+ > b ~ ) ^ N 8 3 s i i u 4 - + _._._._._._._._._._._._._.",
"_._._._._._._._._._._.* ; e M C M g 1 * 5 q q w r * _._._._._._._._._._._._._._.",
"_._._._._._._._._._._.* - ; 1 2 1 1 _._.; > ; > + _._._._._._._._._._._._._._._.",
"_._._._._._._._._._._.- . $ $ o *   _._.* # # * _._._._._._._._._._._._._._._._."
};
