/* XPM */
static char *result[] = {
/* columns rows colors chars-per-pixel */
"40 40 194 2 ",
"   c #160025",
".  c #1A0127",
"X  c #190326",
"o  c #1B0226",
"O  c #1C0327",
"+  c #1D0327",
"@  c #1E0227",
"#  c #1D0328",
"$  c #1E0428",
"%  c #1F0428",
"&  c #200428",
"*  c #200528",
"=  c #200529",
"-  c #230729",
";  c #22072C",
":  c #22082B",
">  c #27092A",
",  c #2C0C2B",
"<  c #2A0C2E",
"1  c #300E2B",
"2  c #2F102F",
"3  c #2E122F",
"4  c #35122B",
"5  c #301331",
"6  c #321033",
"7  c #361432",
"8  c #381530",
"9  c #391431",
"0  c #3B1632",
"q  c #3C1632",
"w  c #311A34",
"e  c #341F36",
"r  c #391E37",
"t  c #3A2438",
"y  c #3E273A",
"u  c #3F2E3F",
"i  c #431929",
"p  c #461A2E",
"a  c #4B1D2F",
"s  c #4C1F2D",
"d  c #411931",
"f  c #421931",
"g  c #451A33",
"h  c #441D3B",
"j  c #53222C",
"k  c #5C292C",
"l  c #4E283E",
"z  c #502233",
"x  c #542334",
"c  c #502435",
"v  c #5C2630",
"b  c #512D36",
"n  c #572C3E",
"m  c #592838",
"M  c #5A2938",
"N  c #5D3233",
"B  c #602B2B",
"V  c #662E2E",
"C  c #6D312F",
"Z  c #672B32",
"A  c #612C3A",
"S  c #613A38",
"D  c #753533",
"F  c #713234",
"G  c #7E3B34",
"H  c #773B3E",
"J  c #481E42",
"K  c #4B2046",
"L  c #5A2E43",
"P  c #5C2F42",
"I  c #54254A",
"U  c #4B3741",
"Y  c #4F3F46",
"T  c #5D3245",
"R  c #5D3B47",
"E  c #663041",
"W  c #613347",
"Q  c #663847",
"!  c #643749",
"~  c #622F55",
"^  c #673256",
"/  c #71385C",
"(  c #783D60",
")  c #5B4143",
"_  c #584749",
"`  c #574A4D",
"'  c #5B5251",
"]  c #77414E",
"[  c #6C524D",
"{  c #794551",
"}  c #655D57",
"|  c #60615C",
" . c #6C6D63",
".. c #6F7568",
"X. c #707B6D",
"o. c #843F37",
"O. c #8B4137",
"+. c #84423F",
"@. c #92453B",
"#. c #96473C",
"$. c #99493C",
"%. c #A04D3D",
"&. c #A5503E",
"*. c #8A4742",
"=. c #8C4540",
"-. c #9D4F43",
";. c #9C4F44",
":. c #9C534A",
">. c #804A53",
",. c #804955",
"<. c #844D5A",
"1. c #894F58",
"2. c #944C5D",
"3. c #805D51",
"4. c #8B5259",
"5. c #AC5A47",
"6. c #B35E4B",
"7. c #8D6756",
"8. c #AE644C",
"9. c #B6694E",
"0. c #B46457",
"q. c #AA7353",
"w. c #AB7353",
"e. c #AE7D58",
"r. c #844365",
"t. c #8C496D",
"y. c #9C5160",
"u. c #985B60",
"i. c #9B5473",
"p. c #A6587E",
"a. c #A26264",
"s. c #AE6B69",
"d. c #B16C6A",
"f. c #B5706D",
"g. c #BB746F",
"h. c #B0667B",
"j. c #BC7471",
"k. c #C36D52",
"l. c #CA6B58",
"z. c #CE6F5A",
"x. c #D07452",
"c. c #D27656",
"v. c #E47C5C",
"b. c #CC7C6F",
"n. c #DC7763",
"m. c #D3746C",
"M. c #DC7C6C",
"N. c #CA6C72",
"B. c #CB6D72",
"V. c #C36A7C",
"C. c #CF7077",
"Z. c #C07872",
"A. c #C77D76",
"S. c #C0727D",
"D. c #E68257",
"F. c #EA8457",
"G. c #E7805B",
"H. c #E6925E",
"J. c #ED905B",
"K. c #ED975F",
"L. c #C78E69",
"P. c #DE8C62",
"I. c #CB8075",
"U. c #D6867C",
"Y. c #D9897C",
"T. c #D89672",
"R. c #E18562",
"E. c #E6876E",
"W. c #E79964",
"Q. c #F19D63",
"!. c #E08F7F",
"~. c #E6917E",
"^. c #EBA666",
"/. c #EBA867",
"(. c #EAAD6A",
"). c #ECAF6A",
"_. c #F3A063",
"`. c #F3A866",
"'. c #EAB06B",
"]. c #EAB16B",
"[. c #EAB26C",
"{. c #F2B46C",
"}. c #AF5E81",
"|. c #B26083",
" X c #B56382",
".X c #BA6684",
"XX c #BE6F81",
"oX c #C87583",
"OX c #CB7784",
"+X c #D48285",
"@X c #DB8A80",
"#X c #DD8C81",
"$X c #E49181",
"%X c None",
/* pixels */
"%X%X%X%X%X%X%X%X%X%X%X%XX . . . . . . . . . . . . . . X %X%X%X%X%X%X%X%X%X%X%X%X",
"%X%X%X%X%X%X%X%X%X%X%Xq g f f f f f f f f f f f f f f g q %X%X%X%X%X%X%X%X%X%X%X",
"%X%X%X%X%X%X%X%X%X%X& x =.-.-.-.-.-.-.-.-.-.-.-.-.-.-.=.x & %X%X%X%X%X%X%X%X%X%X",
"%X%X%X%X%X%X%X%X%X> 9 H k.F.F.D.D.D.D.D.D.D.D.D.D.F.F.k.H 9 > %X%X%X%X%X%X%X%X%X",
"%X%X%X%X%X%X%X%X> M +.8.P._._.Q.Q.Q.Q.Q.Q.Q.Q.Q.Q._._.P.8.+.M > %X%X%X%X%X%X%X%X",
"%X%X%X%X%X%X%X* d *.x.H.^.(.(.(.(.(.(.(.(.(.(.(.(.(.(.^.H.x.*.d * %X%X%X%X%X%X%X",
"%X%X%X%X%X%X0 m +.9.H.`.).[.[.[.[.[.[.[.[.[.[.[.[.[.[.).`.H.9.+.m 0 %X%X%X%X%X%X",
"%X%X%X%X%X+ z ;.c.H.^.).'.'.'.'.'.'.'.'.'.'.'.'.'.'.'.'.).^.H.c.;.z + %X%X%X%X%X",
"%X%X%X%X%X$ c 8.K.`.).[.].].].].].].].].].].].].].].].].[.).`.K.8.c $ %X%X%X%X%X",
"%X%X%X%X%X% b w./.{.'.].].].].].].].].].].].].].].].].].].'.{./.w.b % %X%X%X%X%X",
"%X%X%X%X  = b e.'.{.'.(./.^.^.^.^.^.^.^.^.^.^.^.^.^.^./.(.'.{.^.q.b =   %X%X%X%X",
"# # # + X O b e.'.{.'.^.K.J.J.J.J.J.J.J.J.J.J.J.J.J.J.K.^.(.`.H.8.c O X + # # # ",
". - 2 8 6 6 R e.(.{./.W.R.v.v.v.v.v.v.v.v.v.v.v.v.v.v.R.W.^.Q.F.6.A 6 6 6 < - . ",
". 2 T 1.<.( u.L.(.`.K.R.m.B.C.C.C.B.N.N.N.N.B.C.C.C.B.m.R.J.J.D.l.2.( ( / I < . ",
"O r >.j.S. XS.T.^.K.D.m.V. X|.}. X.X.X.X.X.X.X X}.|. XV.m.G.F.G.n.V.}.}.i./ 5 O ",
"%X0 Q <.i..XOXP.H.R.m.C.oXh.t.( i.XXOXoXoXOXXXi.( t.h.oXC.m.n.G.M.C.|.t./ K 0 %X",
"%X%X> 9 ^ i.V.M.G.m.V.OX+Xd.W h ,.A.#X@X@X#XA.,.h W d.+XOXV.m.v.n.V.i.~ 9 > %X%X",
"%X%X%X$ K ( y.l.v.M.OX+X@Xs.l 2 ] I.$X!.!.$XI.] 2 l s.@X+XOXM.G.z.y./ K $ %X%X%X",
"%X%X%X%X; 7 E 6.G.E.U.#X#Xs.n 8 { I.$X!.!.$XI.{ 8 n s.#X#XU.E.G.6.E 7 ; %X%X%X%X",
"%X%X%X%X%X% c 5.v.c.d.Z.Y.Z.,.! u.U.$X!.!.$XU.u.! ,.Z.Y.Z.s.0.6.=.a $ %X%X%X%X%X",
"%X%X%X%X%X$ c 6.c.:.W <.A.Y.Z.f.A.#X$X$X$X$X#XA.f.Z.Y.A.1.n c c x %X%X%X%X%X%X%X",
"%X%X%X%X%X# z ;.6.D 8 P a.Z.Z.g.g.g.g.g.g.g.g.g.g.Z.Z.a.W 1 . - # %X%X%X%X%X%X%X",
"%X%X%X%X%X%Xq M A j i c P ! ! ! ! W W W W W W ! ! ! ! P c i 1 - # %X%X%X%X%X%X%X",
"%X%X%X%X%X%X%X3 8 s k j 4 < 1 1 1 1 1 1 1 1 1 1 1 1 < 4 s v i 1 + %X%X%X%X%X%X%X",
"%X%X%X%X%X%X, g v D G V s i j v v v v v v v v v v j i i j B j i 7 * %X%X%X%X%X%X",
"%X%X%X%X%Xo f D $.%.#.G V V G @.#.#.#.#.#.#.#.#.@.G V k k k B k s 6 o %X%X%X%X%X",
"%X%X%X%X%X$ h *.0.6.%.D j j F O.$.%.&.&.&.&.%.$.O.G C k s s E ] E 8 $ %X%X%X%X%X",
"%X%X%X%X%X% l u.b.k.-.C 8 4 j C o.$.%.%.%.%.$.o.C V B j 4 4 ^ i.r.h % %X%X%X%X%X",
"%X%X%X%X%X$ l a.Y.M.0.H 8 - i B D o.O.O.O.O.o.D B B B j 1 < ^ p.t.J $ %X%X%X%X%X",
"%X%X%X%X%X% l a.#X~.b.1.f - i k V C C C C C C V B B B j 1 < ^ p.t.J % %X%X%X%X%X",
"%X%X%X%X%X* m 4.d.g.d.<.l t b S S S S N N N N N N N N b 4 < I r.( g * %X%X%X%X%X",
"%X%X%X%X%X%Xq M L P T R ` ' } } } } [ _ ) ) ) ) ) ) ) U 8 - 6 J K q %X%X%X%X%X%X",
"%X%X%X%X%X%X%X$ = @ < u | ........ .} ` Y Y Y _ ` ` ` Y e - @ = $ %X%X%X%X%X%X%X",
"%X%X%X%X%X%X%X%X%Xo O u | X.X... .| ` u e e t U ` ' ' Y e - o %X%X%X%X%X%X%X%X%X",
"%X%X%X%X%X%X%X%X%X> : u } .... .} ` u 5 : : : y Y _ _ U e $ ; %X%X%X%X%X%X%X%X%X",
"%X%X%X%X%X%X%X%X%X  O y [ 7.7.3.) u 7 , ; %X> w y y y r 3 %X%X%X%X%X%X%X%X%X%X%X",
"%X%X%X%X%X%X%X%X%X  = s o.-.-.*.A 5 * %X%X%X%X; = < < X %X%X%X%X%X%X%X%X%X%X%X%X",
"%X%X%X%X%X%X%X%X%X%X& p Z F F Z a , %X%X%X%X%X%X  * * %X%X%X%X%X%X%X%X%X%X%X%X%X",
"%X%X%X%X%X%X%X%X%X%X%X%X7 4 4 9 > %X%X%X%X%X%X%X%X%X%X%X%X%X%X%X%X%X%X%X%X%X%X%X",
"%X%X%X%X%X%X%X%X%X%X%X%XX . . = %X%X%X%X%X%X%X%X%X%X%X%X%X%X%X%X%X%X%X%X%X%X%X%X"
};
