/* XPM */
static char *result[] = {
/* columns rows colors chars-per-pixel */
"40 40 193 2 ",
"   c #170024",
".  c #190025",
"X  c #190127",
"o  c #1A0127",
"O  c #190326",
"+  c #1B0327",
"@  c #1D0327",
"#  c #1E0428",
"$  c #1F0428",
"%  c #1E0528",
"&  c #1F0429",
"*  c #1F0529",
"=  c #1F052A",
"-  c #200528",
";  c #200529",
":  c #240729",
">  c #22082B",
",  c #250829",
"<  c #2D0D2A",
"1  c #2A0A2C",
"2  c #2A0C2E",
"3  c #300F2D",
"4  c #341129",
"5  c #2F1530",
"6  c #301331",
"7  c #321033",
"8  c #371530",
"9  c #361432",
"0  c #391532",
"q  c #3E1731",
"w  c #321D35",
"e  c #341F36",
"r  c #3E1835",
"t  c #3A2539",
"y  c #3F273A",
"u  c #3F2E3F",
"i  c #421829",
"p  c #441A29",
"a  c #451A2F",
"s  c #461A2E",
"d  c #4C1F2D",
"f  c #411931",
"g  c #421931",
"h  c #441E39",
"j  c #491D3C",
"k  c #52222C",
"l  c #5C262F",
"z  c #5F2A2B",
"x  c #4F2133",
"c  c #4F2434",
"v  c #4B213B",
"b  c #522636",
"n  c #512D37",
"m  c #5E2C36",
"M  c #54243A",
"N  c #5A2938",
"B  c #5D3233",
"V  c #652E2E",
"C  c #672B32",
"Z  c #602A36",
"A  c #652F3F",
"S  c #6E3130",
"D  c #623A3A",
"F  c #763532",
"G  c #723538",
"H  c #7B3B38",
"J  c #471D41",
"K  c #502740",
"L  c #562A44",
"P  c #493642",
"I  c #4B3A44",
"U  c #4F3F46",
"Y  c #5A3043",
"T  c #533C42",
"R  c #603243",
"E  c #673146",
"W  c #663847",
"Q  c #603348",
"!  c #643749",
"~  c #653053",
"^  c #6A3359",
"/  c #73395D",
"(  c #763B5F",
")  c #793E61",
"_  c #5A4142",
"`  c #5F4647",
"'  c #55464A",
"]  c #574A4C",
"[  c #5D5150",
"{  c #78434F",
"}  c #64544F",
"|  c #74514C",
" . c #7F4955",
".. c #685E56",
"X. c #60605C",
"o. c #6C6D63",
"O. c #6F7568",
"+. c #6E7A6D",
"@. c #863E35",
"#. c #8B4137",
"$. c #81403E",
"%. c #95473B",
"&. c #99493C",
"*. c #A04D3D",
"=. c #A5503E",
"-. c #884440",
";. c #8B4540",
":. c #8E4740",
">. c #8B4A4A",
",. c #9E4F44",
"<. c #9D5145",
"1. c #9C5244",
"2. c #804A53",
"3. c #884E59",
"4. c #994F5F",
"5. c #805D51",
"6. c #8B5259",
"7. c #B25E4A",
"8. c #8D6756",
"9. c #AE644C",
"0. c #B56653",
"q. c #AB7353",
"w. c #AE7D58",
"e. c #854567",
"r. c #9A5D60",
"t. c #995969",
"y. c #8F4A70",
"u. c #9B5374",
"i. c #A6587E",
"p. c #A36365",
"a. c #AF6B69",
"s. c #B5706D",
"d. c #BB746F",
"f. c #B0667B",
"g. c #C46D4F",
"h. c #C16C5A",
"j. c #CA6B58",
"k. c #CE6F5A",
"l. c #D27553",
"z. c #E57E5A",
"x. c #E47C5D",
"c. c #CE7760",
"v. c #CC7C6F",
"b. c #D97666",
"n. c #DE7B66",
"m. c #D2736D",
"M. c #DA7D6F",
"N. c #CB6C72",
"B. c #C46B7B",
"V. c #C1697C",
"C. c #CF7077",
"Z. c #C07872",
"A. c #C77D76",
"S. c #C0727D",
"D. c #EA8457",
"F. c #E68258",
"G. c #E5845E",
"H. c #E6925E",
"J. c #ED905B",
"K. c #ED975F",
"L. c #C78E69",
"P. c #DF8565",
"I. c #DE8C62",
"U. c #CB8075",
"Y. c #D6867C",
"T. c #D9897C",
"R. c #D89672",
"E. c #E6876E",
"W. c #E79964",
"Q. c #F19D63",
"!. c #E08F7F",
"~. c #E6917E",
"^. c #EBA666",
"/. c #EBA867",
"(. c #EAAD6A",
"). c #ECAF6A",
"_. c #F3A063",
"`. c #F3A866",
"'. c #EAB06B",
"]. c #EAB16B",
"[. c #EAB26C",
"{. c #F2B46C",
"}. c #B05F81",
"|. c #B56383",
" X c #BA6684",
".X c #BE6F81",
"XX c #C87583",
"oX c #CB7784",
"OX c #D48285",
"+X c #DB8A80",
"@X c #DD8C81",
"#X c #E49181",
"$X c None",
/* pixels */
"$X$X$X$X$X$X$X$X$X$X$X$XO o o o o o o o o o o o o o o O $X$X$X$X$X$X$X$X$X$X$X$X",
"$X$X$X$X$X$X$X$X$X$X$X$Xa g g g g g g g g g g g g g g a $X$X$X$X$X$X$X$X$X$X$X$X",
"$X$X$X$X$X$X$X$X$X$X& M ;.,.,.,.,.,.,.,.,.,.,.,.,.,.,.;.M & $X$X$X$X$X$X$X$X$X$X",
"$X$X$X$X$X$X$X$X$X1 0 H g.D.D.F.F.F.F.F.F.F.F.F.F.D.D.g.H 0 1 $X$X$X$X$X$X$X$X$X",
"$X$X$X$X$X$X$X$X1 N -.9.I._._.Q.Q.Q.Q.Q.Q.Q.Q.Q.Q._._.I.9.-.N 1 $X$X$X$X$X$X$X$X",
"$X$X$X$X$X$X$X- f -.l.H.^.(.(.(.(.(.(.(.(.(.(.(.(.(.(.^.H.l.-.f - $X$X$X$X$X$X$X",
"$X$X$X$X$X$Xq Z $.0.H.`.).[.[.[.[.[.[.[.[.[.[.[.[.[.[.).`.H.0.$.Z q $X$X$X$X$X$X",
"$X$X$X$X$X@ x ,.l.H.^.).'.'.'.'.'.'.'.'.'.'.'.'.'.'.'.'.).^.H.l.,.x @ $X$X$X$X$X",
"$X$X$X$X$X# b 9.K.`.).[.].].].].].].].].].].].].].].].].[.).`.K.9.b # $X$X$X$X$X",
"$X$X$X$X$X$ n q./.{.'.].].].].].].].].].].].].].].].].].].'.{./.q.n $ $X$X$X$X$X",
"$X$X$X$X  * n q.^.{.'.(./.^.^.^.^.^.^.^.^.^.^.^.^.^.^./.(.'.{.'.w.n *   $X$X$X$X",
"$ $ X @ O % c 9.H.`.(.^.K.J.J.J.J.J.J.J.J.J.J.J.J.J.J.K.^.'.{.'.w.n % O @ X $ $ ",
"o : 2 7 7 7 A 7.D.Q.^.W.G.x.x.x.x.x.x.x.x.x.x.x.x.x.x.G.W./.{.(.w.D 7 7 8 7 : o ",
"o 2 K / ) ) 4.j.F.J.J.P.m.N.C.C.C.N.N.N.N.N.N.C.C.C.N.m.P.K.`.(.L.t.) 3.3.R 3 o ",
". 6 ^ u.}.}.V.b.F.D.z.b.B.|.}.}.|. X X X X X X|.}.}.|.B.b.G.K.^.R.S.|.S.d.2.0 . ",
"+ 1 M / y.|.C.n.z.b.m.C.XXf.e.) u..XoXXXXXoX.Xu.) e.f.XXC.m.P.H.I.oX Xt.3.W q + ",
"$X$X1 0 ~ u.B.n.x.m.V.oXOXa.Q h  .A.@X+X+X@XA. .h Q a.OXoXV.m.F.n.B.u.~ 0 1 $X$X",
"$X$X$X, j / 4.k.F.M.oXOX+Xa.K 3 { U.#X!.!.#XU.{ 3 K a.+XOXoXM.x.j.4.( j , $X$X$X",
"$X$X$X$X= 9 A 7.F.E.Y.@X@Xa.L 8 { U.#X!.!.#XU.{ 8 L a.@X@XY.E.z.7.A 9 = $X$X$X$X",
"$X$X$X$X$X, j :.7.0.a.Z.T.Z. .! r.Y.#X!.!.#XY.r.!  .Z.T.Z.a.c.z.7.c # $X$X$X$X$X",
"$X$X$X$X$X$X$XM b c L 3.A.T.Z.s.A.@X#X#X#X#X@XA.s.Z.T.A.3.R 1.l.7.c # $X$X$X$X$X",
"$X$X$X$X$X$X$X$ : o < R p.Z.Z.d.d.d.d.d.d.d.d.d.d.Z.Z.r.Y 8 G 7.<.v $ $X$X$X$X$X",
"$X$X$X$X$X$X$XX $ < i c Y ! ! ! ! Q Q Q Q Q Q ! ! ! ! Y c p k m N r $X$X$X$X$X$X",
"$X$X$X$X$X$X$X@ < p l d 4 2 < 3 3 3 3 3 3 3 3 3 3 < 2 4 k z d 8 5 $X$X$X$X$X$X$X",
"$X$X$X$X$X$X- 9 p k z k i i k l l l l l l l l l l k i d V H F l a , $X$X$X$X$X$X",
"$X$X$X$X$X* 7 d z z z l l V H %.%.%.%.%.%.%.%.%.%.H V V H %.*.&.G g * $X$X$X$X$X",
"$X$X$X$X$X* 8 E { A d d z S H #.&.*.=.=.=.=.*.&.#.S k k F *.7.0.>.h * $X$X$X$X$X",
"$X$X$X$X$X$ J e.u.~ 8 4 k V V S @.&.*.*.*.*.&.@.S k 4 8 S ,.h.v.r.K $ $X$X$X$X$X",
"$X$X$X$X$X# J y.i.^ 2 4 k z z z F @.#.#.#.#.@.F z i : 8 H 0.M.T.p.K # $X$X$X$X$X",
"$X$X$X$X$X# J y.i.^ 2 4 k z z z V S S S S S S V z p : g 3.v.~.@Xp.K # $X$X$X$X$X",
"$X$X$X$X$X- v ( e.L 2 8 n D D D D D D B B B B B B c 8 y  .a.d.a.6.v - $X$X$X$X$X",
"$X$X$X$X$X$Xr j J 7 2 y ] ..........} ` _ _ _ _ _ T P P Y Y Y Y N r $X$X$X$X$X$X",
"$X$X$X$X$X$X$X& * $ $ u X.O.O.O.O.o.X.] U U U ' ] ] ] U e : $ * & $X$X$X$X$X$X$X",
"$X$X$X$X$X$X$X$X+   % u X.+.+.O.o.X.] u e e y P ] [ [ U w $   + $X$X$X$X$X$X$X$X",
"$X$X$X$X$X$X$X$X$X  > u ..O.O.o...] u 6 > > > t U ] ' I e # = $X$X$X$X$X$X$X$X$X",
"$X$X$X$X$X$X$X$X$X  % y | 8.8.5.` u 9 , = + 1 5 t y y t 5 + $X$X$X$X$X$X$X$X$X$X",
"$X$X$X$X$X$X$X$X$X= ; d $.1.1.-.m 6 - $X$X$X$X= * 2 2 O $X$X$X$X$X$X$X$X$X$X$X$X",
"$X$X$X$X$X$X$X$X$X$X1 s C S S C j , $X$X$X$X$X$X  - - + $X$X$X$X$X$X$X$X$X$X$X$X",
"$X$X$X$X$X$X$X$X$X$X$X$X9 4 4 0 1 $X$X$X$X$X$X$X$X$X$X$X$X$X$X$X$X$X$X$X$X$X$X$X",
"$X$X$X$X$X$X$X$X$X$X$X$XO o o ; $X$X$X$X$X$X$X$X$X$X$X$X$X$X$X$X$X$X$X$X$X$X$X$X"
};
