/* XPM */
static char *result[] = {
/* columns rows colors chars-per-pixel */
"40 40 165 2 ",
"   c #160025",
".  c #170026",
"X  c #1B0025",
"o  c #190225",
"O  c #190026",
"+  c #1A0127",
"@  c #1B0327",
"#  c #1E0328",
"$  c #1F0429",
"%  c #200428",
"&  c #210629",
"*  c #220628",
"=  c #240729",
"-  c #20062C",
";  c #23092B",
":  c #270929",
">  c #26092A",
",  c #280A2A",
"<  c #290E2D",
"1  c #310F2C",
"2  c #34102A",
"3  c #38142F",
"4  c #311032",
"5  c #3C1732",
"6  c #3D1732",
"7  c #391A32",
"8  c #3C1F32",
"9  c #381439",
"0  c #3F2A3B",
"q  c #3E2E3F",
"w  c #441929",
"e  c #41182C",
"r  c #4A1D2A",
"t  c #4D1D2E",
"y  c #421931",
"u  c #411A33",
"i  c #471B3A",
"p  c #451E38",
"a  c #4F212E",
"s  c #54232E",
"d  c #5F292B",
"f  c #4F2133",
"g  c #492436",
"h  c #4B243D",
"j  c #4E283D",
"k  c #522434",
"l  c #5D2631",
"z  c #502E37",
"x  c #5A2E32",
"c  c #592838",
"v  c #652C2F",
"b  c #692F2E",
"n  c #662A33",
"m  c #602A36",
"M  c #612C36",
"N  c #6E3130",
"B  c #613937",
"V  c #753534",
"C  c #7E3B34",
"Z  c #773C3C",
"A  c #582D42",
"S  c #5E3043",
"D  c #513C42",
"F  c #5D3B47",
"G  c #663847",
"H  c #613349",
"J  c #643749",
"K  c #72395D",
"L  c #7A3F60",
"P  c #56484C",
"I  c #5A5555",
"U  c #654E4A",
"Y  c #63534E",
"T  c #75514C",
"R  c #7A4551",
"E  c #6D5D54",
"W  c #625C58",
"Q  c #60615C",
"!  c #6B6D63",
"~  c #6F7669",
"^  c #707367",
"/  c #717C6D",
"(  c #894036",
")  c #81413D",
"_  c #93473C",
"`  c #98493C",
"'  c #9F4C3D",
"]  c #A44F3E",
"[  c #884440",
"{  c #85474A",
"}  c #8B4A4A",
"|  c #9E4F43",
" . c #9D5044",
".. c #9C534A",
"X. c #854D58",
"o. c #8B5259",
"O. c #AC5A47",
"+. c #B35D4A",
"@. c #856254",
"#. c #AF644C",
"$. c #B6694E",
"%. c #B66455",
"&. c #AB7855",
"*. c #874869",
"=. c #985761",
"-. c #9E5E60",
";. c #9C5672",
":. c #A46466",
">. c #B06C6A",
",. c #B5706D",
"<. c #BB746F",
"1. c #B0667B",
"2. c #C46D4F",
"3. c #C16C5A",
"4. c #CC6D59",
"5. c #D37553",
"6. c #E57E59",
"7. c #E47C5D",
"8. c #CE7760",
"9. c #D3746C",
"0. c #DA7D6C",
"q. c #CB6C72",
"w. c #C46B7B",
"e. c #C16A7F",
"r. c #CF7075",
"t. c #C07872",
"y. c #C97D73",
"u. c #C0727D",
"i. c #B3805B",
"p. c #DD8C5C",
"a. c #E58259",
"s. c #E8855A",
"d. c #E6925F",
"f. c #EC905B",
"g. c #C78E69",
"h. c #DF8464",
"j. c #CB8075",
"k. c #D6877C",
"l. c #DB8A7F",
"z. c #DD8D7F",
"x. c #D89672",
"c. c #E28A6E",
"v. c #EB9760",
"b. c #F19D63",
"n. c #E08F7F",
"m. c #EBA666",
"M. c #EAAD6A",
"N. c #ECAF6A",
"B. c #F3A063",
"V. c #F4A766",
"C. c #F0A863",
"Z. c #EAB06B",
"A. c #EAB16B",
"S. c #EAB26C",
"D. c #F1B36B",
"F. c #F1B86E",
"G. c #B15F80",
"H. c #B66483",
"J. c #BB6784",
"K. c #BE6F81",
"L. c #CA7684",
"P. c #D48385",
"I. c #DE8C83",
"U. c #E49181",
"Y. c None",
/* pixels */
"Y.Y.Y.Y.Y.Y.Y.Y.Y.Y.Y.Y.. + + + + + + + + + + + + + + . Y.Y.Y.Y.Y.Y.Y.Y.Y.Y.Y.Y.",
"Y.Y.Y.Y.Y.Y.Y.Y.Y.Y.Y.Y.7 y y y y y y y y y y y y y y 7 Y.Y.Y.Y.Y.Y.Y.Y.Y.Y.Y.Y.",
"Y.Y.Y.Y.Y.Y.Y.Y.Y.Y.$ c { | | | | | | | | | | | | | | { c $ Y.Y.Y.Y.Y.Y.Y.Y.Y.Y.",
"Y.Y.Y.Y.Y.Y.Y.Y.Y., 5 Z 2.s.s.a.a.a.a.a.a.a.a.a.a.s.s.2.Z 5 , Y.Y.Y.Y.Y.Y.Y.Y.Y.",
"Y.Y.Y.Y.Y.Y.Y.Y., c [ #.p.B.B.b.b.b.b.b.b.b.b.b.b.B.B.p.#.[ c , Y.Y.Y.Y.Y.Y.Y.Y.",
"Y.Y.Y.Y.Y.Y.Y.% 5 [ 5.d.m.M.M.M.M.M.M.M.M.M.M.M.M.M.M.m.d.5.[ 5 % Y.Y.Y.Y.Y.Y.Y.",
"Y.Y.Y.Y.Y.Y.6 m ) $.d.V.N.S.S.S.S.S.S.S.S.S.S.S.S.S.S.N.V.d.$.) m 6 Y.Y.Y.Y.Y.Y.",
"Y.Y.Y.Y.Y.* f  .5.d.m.N.Z.Z.Z.Z.Z.Z.Z.Z.Z.Z.Z.Z.Z.Z.Z.Z.N.m.d.5. .f * Y.Y.Y.Y.Y.",
"Y.Y.Y.Y.Y.# j #.v.V.N.S.A.A.A.A.A.A.A.A.A.A.A.A.A.A.A.A.S.N.V.v.#.j # Y.Y.Y.Y.Y.",
"Y.Y.Y.Y.Y.# z &.m.D.Z.A.A.A.A.A.A.A.A.A.A.A.A.A.A.A.A.A.A.Z.D.m.&.z # Y.Y.Y.Y.Y.",
"Y.Y.Y.Y.  # z &.Z.F.Z.M.m.m.m.m.m.m.m.m.m.m.m.m.m.m.m.m.M.Z.F.Z.&.z #   Y.Y.Y.Y.",
"# # # * . @ z &.Z.F.Z.m.v.f.f.f.f.f.f.f.f.f.f.f.f.f.f.v.m.Z.F.Z.&.z @ . * # # # ",
"+ : 4 3 4 4 F i.M.D.m.v.s.7.7.7.7.7.7.7.7.7.7.7.7.7.7.s.v.m.D.M.i.F 4 4 3 4 : + ",
"+ 4 S X.X.L =.g.M.C.v.h.9.q.r.r.r.q.q.q.q.q.q.r.r.r.q.9.h.v.C.M.g.=.L X.X.S 4 + ",
"O 5 { <.u.H.u.x.m.v.a.9.w.H.G.G.H.J.J.J.J.J.J.H.G.G.H.w.9.a.v.m.x.u.H.u.<.{ 5 O ",
"- 6 G X.;.H.L.c.d.h.9.r.L.1.*.L ;.K.L.L.L.L.K.;.L *.1.L.r.9.h.d.c.L.H.;.X.G 6 - ",
"Y.Y., 5 H ;.w.0.a.9.e.L.P.>.H p X.y.I.l.l.I.y.X.p H >.P.L.e.9.a.0.w.;.H 5 , Y.Y.",
"Y.Y.Y.> i K =.4.7.0.L.P.l.>.j 4 R j.U.n.n.U.j.R 4 j >.l.P.L.0.7.4.=.K i > Y.Y.Y.",
"Y.Y.Y.Y.- 9 S +.6.c.k.I.z.>.A 3 R j.U.z.z.U.j.R 3 A >.z.I.k.c.6.+.S 9 - Y.Y.Y.Y.",
"Y.Y.Y.Y.Y.# a O.6.8.>.t.k.t.R J =.k.U.n.n.U.k.=.J R t.k.t.>.8.6.O.a # Y.Y.Y.Y.Y.",
"Y.Y.Y.Y.Y.# s +.5...H X.y.k.t.,.y.z.U.U.U.U.z.y.,.t.k.y.X.H ..5.+.s # Y.Y.Y.Y.Y.",
"Y.Y.Y.Y.Y.# k  .+.V 3 S -.t.t.<.<.<.<.<.<.<.<.<.<.t.t.-.S 3 V +. .k # Y.Y.Y.Y.Y.",
"Y.Y.Y.Y.Y.Y.u c M s w g S J J J J H H H H H H J J J J S g w s M c u Y.Y.Y.Y.Y.Y.",
"Y.Y.Y.Y.Y.Y.Y.* 3 a d a 3 : 1 1 1 1 1 1 1 1 1 1 1 1 : 3 a d a 3 * Y.Y.Y.Y.Y.Y.Y.",
"Y.Y.Y.Y.Y.Y.> t l V C b r w a l l l l l l l l l l a w r b C V l t > Y.Y.Y.Y.Y.Y.",
"Y.Y.Y.Y.Y.o e V ` ' ` C v v C _ _ _ _ _ _ _ _ _ _ C v v C ` ' ` V e o Y.Y.Y.Y.Y.",
"Y.Y.Y.Y.Y.# p } %.+.' V s s N ( ` ] ] ] ] ] ] ` ( N s s V ' +.%.} p # Y.Y.Y.Y.Y.",
"Y.Y.Y.Y.Y.# j -.y.3.| N 3 1 a N ( ` ' ' ' ' ` ( N a 1 3 N | 3.y.-.j # Y.Y.Y.Y.Y.",
"Y.Y.Y.Y.Y.# j :.l.0.%.Z 3 : w d V ( ( ( ( ( ( V d w : 3 Z %.0.l.:.j # Y.Y.Y.Y.Y.",
"Y.Y.Y.Y.Y.# j :.z.U.y.X.y : w d b b N N N N b b d w : y X.y.U.z.:.j # Y.Y.Y.Y.Y.",
"Y.Y.Y.Y.Y.% h o.>.<.>.X.j 8 z B B B B B B B B B B z 8 j X.>.<.>.o.h % Y.Y.Y.Y.Y.",
"Y.Y.Y.Y.Y.Y.u c A S S F P I W E E E Y P P Y E E E W I P F S S A c u Y.Y.Y.Y.Y.Y.",
"Y.Y.Y.Y.Y.Y.Y.$ # & & q Q ~ ~ ^ ^ ! W P P W ! ^ ^ ~ ~ Q q & & # $ Y.Y.Y.Y.Y.Y.Y.",
"Y.Y.Y.Y.Y.Y.Y.Y.Y.o @ q Q / / ~ ! Q P q q P Q ! ~ / / Q q @ o Y.Y.Y.Y.Y.Y.Y.Y.Y.",
"Y.Y.Y.Y.Y.Y.Y.Y.Y.X ; q W ^ ^ ! W P q < < q P W ! ^ ^ W q ; X Y.Y.Y.Y.Y.Y.Y.Y.Y.",
"Y.Y.Y.Y.Y.Y.Y.Y.Y.  < g T @.E U D 0 7 > > 7 0 D U E @.T g <   Y.Y.Y.Y.Y.Y.Y.Y.Y.",
"Y.Y.Y.Y.Y.Y.Y.Y.Y.  = a ) _ Z x 8 < > Y.Y.> < 8 x Z _ ) a =   Y.Y.Y.Y.Y.Y.Y.Y.Y.",
"Y.Y.Y.Y.Y.Y.Y.Y.Y.Y., i n v s e 2 > Y.Y.Y.Y.> 2 e s v n i , Y.Y.Y.Y.Y.Y.Y.Y.Y.Y.",
"Y.Y.Y.Y.Y.Y.Y.Y.Y.Y.Y.Y.2 1 1 = , Y.Y.Y.Y.Y.Y., = 1 1 2 Y.Y.Y.Y.Y.Y.Y.Y.Y.Y.Y.Y.",
"Y.Y.Y.Y.Y.Y.Y.Y.Y.Y.Y.Y.. + + = Y.Y.Y.Y.Y.Y.Y.Y.= + + . Y.Y.Y.Y.Y.Y.Y.Y.Y.Y.Y.Y."
};
