/* XPM */
static char *result[] = {
/* columns rows colors chars-per-pixel */
"40 40 200 2 ",
"   c #170024",
".  c #160025",
"X  c #190025",
"o  c #190027",
"O  c #1A0027",
"+  c #1B0226",
"@  c #1C0126",
"#  c #1C0327",
"$  c #1D0327",
"%  c #1D0328",
"&  c #1E0328",
"*  c #1E0428",
"=  c #1F0429",
"-  c #210528",
";  c #240729",
":  c #25092B",
">  c #27092A",
",  c #240A2B",
"<  c #250B2C",
"1  c #2A0B2A",
"2  c #2F0D28",
"3  c #2F0E2A",
"4  c #2C0C2E",
"5  c #310F2D",
"6  c #2E122F",
"7  c #37142C",
"8  c #270B30",
"9  c #341133",
"0  c #371332",
"q  c #301433",
"w  c #3B1632",
"e  c #3A1633",
"r  c #341E36",
"t  c #3B1932",
"y  c #3C1A31",
"u  c #3E1835",
"i  c #3A2539",
"p  c #3C273A",
"a  c #421929",
"s  c #461B2A",
"d  c #42192E",
"f  c #431931",
"g  c #411B34",
"h  c #461D3E",
"j  c #481E3F",
"k  c #4D202D",
"l  c #51212D",
"z  c #55242C",
"x  c #5B282B",
"c  c #5F2A2C",
"v  c #4F2133",
"b  c #4A2438",
"n  c #512535",
"m  c #572737",
"M  c #5C2631",
"N  c #5E2730",
"B  c #512D37",
"V  c #54243A",
"C  c #5A2938",
"Z  c #5C3133",
"A  c #5E3333",
"S  c #652D2F",
"D  c #6C312F",
"F  c #662A33",
"G  c #6F3331",
"H  c #603837",
"J  c #623B39",
"K  c #643C39",
"L  c #753531",
"P  c #7D3A34",
"I  c #723538",
"U  c #3D2E40",
"Y  c #512742",
"T  c #562C41",
"R  c #473441",
"E  c #4F3E45",
"W  c #5A3043",
"Q  c #652F40",
"!  c #603346",
"~  c #663847",
"^  c #633649",
"/  c #653748",
"(  c #783C40",
")  c #653053",
"_  c #6A3359",
"`  c #73395D",
"'  c #763B5F",
"]  c #793E61",
"[  c #5A4142",
"{  c #584749",
"}  c #55494C",
"|  c #5A4C4D",
" . c #5F524F",
".. c #654E4A",
"X. c #75514C",
"o. c #774450",
"O. c #7F4955",
"+. c #6C5E55",
"@. c #625D59",
"#. c #60615D",
"$. c #6B6D63",
"%. c #6F7568",
"&. c #6F7B6D",
"*. c #843F39",
"=. c #8B4137",
"-. c #95473B",
";. c #99493C",
":. c #A04D3D",
">. c #A5503E",
",. c #884440",
"<. c #8C4540",
"1. c #8C4A44",
"2. c #9C4F44",
"3. c #9D4F44",
"4. c #9F5044",
"5. c #9C534A",
"6. c #804A53",
"7. c #884E59",
"8. c #994F5F",
"9. c #8B5259",
"0. c #AF5C48",
"q. c #B45E4C",
"w. c #856254",
"e. c #AF6450",
"r. c #B76850",
"t. c #AB7353",
"y. c #AE7D58",
"u. c #854567",
"i. c #965A60",
"p. c #9E5F61",
"a. c #8F4A70",
"s. c #9B5473",
"d. c #A6587E",
"f. c #A46466",
"g. c #AF6B69",
"h. c #B5706D",
"j. c #BB746F",
"k. c #B0667B",
"l. c #BC7471",
"z. c #BF7771",
"x. c #C46D4F",
"c. c #C46B59",
"v. c #CD6E59",
"b. c #D27553",
"n. c #E57E5A",
"m. c #E47C5D",
"M. c #CC7C6F",
"N. c #D57666",
"B. c #DE7862",
"V. c #D2736D",
"C. c #DC7C6C",
"Z. c #CB6C72",
"A. c #CF6F75",
"S. c #C46B7B",
"D. c #C1697C",
"F. c #C17972",
"G. c #C77D76",
"H. c #C0727D",
"J. c #CE727A",
"K. c #E58258",
"L. c #E5845E",
"P. c #EA8158",
"I. c #E98558",
"U. c #E6925E",
"Y. c #ED905B",
"T. c #ED975F",
"R. c #C78E69",
"E. c #DF8565",
"W. c #DE8C62",
"Q. c #CB8075",
"!. c #D6867C",
"~. c #D9897C",
"^. c #DD8D7F",
"/. c #D89672",
"(. c #E6876E",
"). c #E79964",
"_. c #F19D63",
"`. c #E18F7F",
"'. c #E6917E",
"]. c #EBA666",
"[. c #EBA867",
"{. c #EAAD6A",
"}. c #ECAF6A",
"|. c #F3A063",
" X c #F3A866",
".X c #EAB06B",
"XX c #EAB16B",
"oX c #EAB26C",
"OX c #F2B46C",
"+X c #B05F81",
"@X c #B56383",
"#X c #BA6684",
"$X c #BE6F81",
"%X c #C87583",
"&X c #CB7784",
"*X c #D48285",
"=X c #DB8A80",
"-X c #DE8C83",
";X c #E49181",
":X c None",
/* pixels */
":X:X:X:X:X:X:X:X:X:X:X:X. o o o o o o o o o o o o o o . :X:X:X:X:X:X:X:X:X:X:X:X",
":X:X:X:X:X:X:X:X:X:X:X:Xg f f f f f f f f f f f f f f g :X:X:X:X:X:X:X:X:X:X:X:X",
":X:X:X:X:X:X:X:X:X:X= V <.4.4.3.3.3.3.3.3.3.3.3.3.4.4.<.V = :X:X:X:X:X:X:X:X:X:X",
":X:X:X:X:X:X:X:X:X> e ( x.I.I.K.K.K.K.K.K.K.K.K.K.I.I.x.( e > :X:X:X:X:X:X:X:X:X",
":X:X:X:X:X:X:X:X> C ,.e.W.|.|._._._._._._._._._._.|.|.W.e.,.C > :X:X:X:X:X:X:X:X",
":X:X:X:X:X:X:X- d ,.b.U.].{.{.{.{.{.{.{.{.{.{.{.{.{.{.].U.b.,.d - :X:X:X:X:X:X:X",
":X:X:X:X:X:Xw m *.r.U. X}.oXoXoXoXoXoXoXoXoXoXoXoXoXoX}. XU.r.*.m w :X:X:X:X:X:X",
":X:X:X:X:X$ v 2.b.U.].}..X.X.X.X.X.X.X.X.X.X.X.X.X.X.X.X}.].U.b.2.v $ :X:X:X:X:X",
":X:X:X:X:X& n e.T. X}.oXXXXXXXXXXXXXXXXXXXXXXXXXXXXXXXXXoX}. XT.e.n & :X:X:X:X:X",
":X:X:X:X:X& B t.[.OX.XXXXXXXXXXXXXXXXXXXXXXXXXXXXXXXXXXXXX.XOX[.t.B & :X:X:X:X:X",
":X:X:X:X  * B t.].OX.X{.[.].].].].].].].].].].].].].].[.{..XOX.Xy.B *   :X:X:X:X",
"% % % $ . @ n e.U. X{.].T.Y.Y.Y.Y.Y.Y.Y.Y.Y.Y.Y.Y.Y.Y.T.]..XOX.Xy.B @ . $ % % % ",
"& : 4 9 9 9 Q q.I._.].).L.m.m.m.m.m.m.m.m.m.m.m.m.m.m.L.).[.OX{.y./ 9 9 t 5 : & ",
"& 4 Y ` ] ] 8.c.P.Y.Y.E.V.Z.A.A.A.Z.Z.Z.Z.Z.Z.A.A.A.Z.V.E.T. X{.R.i.] 7.7.! 5 o ",
"# q _ s.+X+XD.N.P.P.n.N.S.@X+X+X@X#X#X#X#X#X#X@X+X+X@XS.N.L.T.]./.H.@XH.l.6.e # ",
"X w V ` a.@XJ.C.n.B.V.J.%Xk.u.] s.$X&X%X%X&X$Xs.] u.k.%XJ.V.E.U.W.&X#Xs.7.~ w X ",
":X:X> e ) s.S.B.m.V.D.&X*Xg.! h O.G.-X=X=X-XG.O.h ! g.*X&XD.V.K.C.S.s.) e > :X:X",
":X:X:X$ j ` 8.v.P.C.&X*X=Xg.Y 5 o.Q.;X`.`.;XQ.o.5 Y g.=X*X&XC.m.v.8.' j $ :X:X:X",
":X:X:X:X8 0 Q q.K.(.!.-X^.g.T 9 o.Q.;X^.^.;XQ.o.9 T g.^.-X!.(.n.q.Q 0 8 :X:X:X:X",
":X:X:X:X:X$ j <.q.e.g.F.~.z.O./ i.!.;X`.`.;X!.i./ O.z.~.F.g.N.n.0.l & :X:X:X:X:X",
":X:X:X:X:X:X:XV n n T 7.G.~.F.h.G.^.;X`.`.;X^.G.h.F.~.G.7.! 5.b.0.n & :X:X:X:X:X",
":X:X:X:X:X:X:X% & & 2 ! p.z.z.j.j.j.j.j.j.j.j.j.j.z.z.p.W 7 I 0.2.m % :X:X:X:X:X",
":X:X:X:X:X:X:X% & 2 a n W ^ / / ^ ! ! ! ! ! ! ^ / / ^ W b s l S C u :X:X:X:X:X:X",
":X:X:X:X:X:X:X$ 2 s z k 7 4 4 5 5 5 5 5 5 5 5 5 5 4 4 7 l c k 7 6 :X:X:X:X:X:X:X",
":X:X:X:X:X:X- 0 a z c z a a l N N M M M M M M N N l a s D P L N g 1 :X:X:X:X:X:X",
":X:X:X:X:X+ 9 k c c x x x S P -.-.-.-.-.-.-.-.-.-.P S S P -.:.;.I f + :X:X:X:X:X",
":X:X:X:X:X* t Q ( Q k k x D P =.;.:.>.>.>.>.:.;.=.G z z P :.q.r.1.h * :X:X:X:X:X",
":X:X:X:X:X& h u.s.) 9 7 z S S G *.;.:.:.:.:.;.*.D l 5 t D 3.c.M.p.b & :X:X:X:X:X",
":X:X:X:X:X& h a.d._ 4 2 l c x c L *.=.=.=.=.*.L c a : 7 ( e.C.~.f.Y & :X:X:X:X:X",
":X:X:X:X:X& h a.d._ 4 2 l c c c S D D D D D D S c s : t 7.M.'.^.f.Y & :X:X:X:X:X",
":X:X:X:X:X- g ' u.Y 4 7 B K K J J J H A Z Z Z A Z b t b O.g.j.g.9.m - :X:X:X:X:X",
":X:X:X:X:X:Xu j h 9 : p | +.+.+.+.+. .{ [ [ [ [ [ E R R W W W W C u :X:X:X:X:X:X",
":X:X:X:X:X:X:X= * @ : U #.%.%.%.%.$.@.} E E E { } | | E r : @ * = :X:X:X:X:X:X:X",
":X:X:X:X:X:X:X:X:X+ < U #.&.&.%.$.#.} U r r p R }  . .E r & + :X:X:X:X:X:X:X:X:X",
":X:X:X:X:X:X:X:X:X  # U @.%.%.$.@.} R q # # < i E { { E r , O :X:X:X:X:X:X:X:X:X",
":X:X:X:X:X:X:X:X:X  < b X.w.+...E p g 1 X :X> y p p p i 6 :X:X:X:X:X:X:X:X:X:X:X",
":X:X:X:X:X:X:X:X:XO ; k *.1.( Z f < - :X:X:X:X8 , : : 3 :X:X:X:X:X:X:X:X:X:X:X:X",
":X:X:X:X:X:X:X:X:X:X> y F S z d 3 1 :X:X:X:X:X:X  - - :X:X:X:X:X:X:X:X:X:X:X:X:X",
":X:X:X:X:X:X:X:X:X:X:X:X3 5 2 ; > :X:X:X:X:X:X:X:X:X:X:X:X:X:X:X:X:X:X:X:X:X:X:X",
":X:X:X:X:X:X:X:X:X:X:X:X. o & ; :X:X:X:X:X:X:X:X:X:X:X:X:X:X:X:X:X:X:X:X:X:X:X:X"
};
