/* XPM */
static char *result[] = {
/* columns rows colors chars-per-pixel */
"40 40 193 2 ",
"   c #170024",
".  c #190025",
"X  c #190127",
"o  c #1A0127",
"O  c #190326",
"+  c #1B0327",
"@  c #1D0327",
"#  c #1E0428",
"$  c #1F0428",
"%  c #1E0528",
"&  c #1F0429",
"*  c #1F0529",
"=  c #1F052A",
"-  c #200528",
";  c #200529",
":  c #240729",
">  c #22082B",
",  c #250829",
"<  c #2D0D2A",
"1  c #2A0A2C",
"2  c #2A0C2E",
"3  c #300F2D",
"4  c #341129",
"5  c #2F1530",
"6  c #301331",
"7  c #321033",
"8  c #371530",
"9  c #361432",
"0  c #391532",
"q  c #3E1731",
"w  c #321D35",
"e  c #341F36",
"r  c #3E1835",
"t  c #3A2539",
"y  c #3F273A",
"u  c #3F2E3F",
"i  c #421829",
"p  c #441A29",
"a  c #451A2F",
"s  c #461A2E",
"d  c #4C1F2D",
"f  c #411931",
"g  c #421931",
"h  c #441E39",
"j  c #491D3C",
"k  c #52222C",
"l  c #5C262F",
"z  c #5F2A2B",
"x  c #4F2133",
"c  c #4F2434",
"v  c #4B213B",
"b  c #522636",
"n  c #512D37",
"m  c #5E2C36",
"M  c #54243A",
"N  c #5A2939",
"B  c #5D3233",
"V  c #652E2E",
"C  c #672B32",
"Z  c #602A36",
"A  c #652F3F",
"S  c #6E3130",
"D  c #623A3A",
"F  c #763532",
"G  c #723538",
"H  c #7B3B38",
"J  c #471D41",
"K  c #502740",
"L  c #562A44",
"P  c #493642",
"I  c #4B3A44",
"U  c #4F3F46",
"Y  c #5A3043",
"T  c #533C42",
"R  c #603243",
"E  c #673146",
"W  c #663847",
"Q  c #603348",
"!  c #643749",
"~  c #653053",
"^  c #6A3359",
"/  c #73395D",
"(  c #763B5F",
")  c #793E61",
"_  c #5A4142",
"`  c #5F4647",
"'  c #55464A",
"]  c #574A4C",
"[  c #5D5150",
"{  c #78434F",
"}  c #64544F",
"|  c #74514C",
" . c #7F4955",
".. c #685E56",
"X. c #60605C",
"o. c #6C6D63",
"O. c #6F7568",
"+. c #6E7A6D",
"@. c #863E35",
"#. c #8B4137",
"$. c #81403E",
"%. c #95473B",
"&. c #99493C",
"*. c #A04D3D",
"=. c #A5503E",
"-. c #884440",
";. c #8B4540",
":. c #8E4740",
">. c #8B4A4A",
",. c #9E4F44",
"<. c #9D5145",
"1. c #9C5244",
"2. c #804A53",
"3. c #884E59",
"4. c #994F5F",
"5. c #805D51",
"6. c #8B5259",
"7. c #B25E4A",
"8. c #8D6756",
"9. c #AE644C",
"0. c #B56653",
"q. c #AB7353",
"w. c #AE7D58",
"e. c #854667",
"r. c #9A5D60",
"t. c #995969",
"y. c #8F4A70",
"u. c #9B5374",
"i. c #A6587E",
"p. c #A36365",
"a. c #AF6B69",
"s. c #B5706D",
"d. c #BB746F",
"f. c #B0667B",
"g. c #C46D4F",
"h. c #C16C5A",
"j. c #CA6B58",
"k. c #CE6F5A",
"l. c #D27553",
"z. c #E57E5A",
"x. c #E47C5D",
"c. c #CE7760",
"v. c #CC7C6F",
"b. c #D97666",
"n. c #DE7B66",
"m. c #D2736D",
"M. c #DA7D6F",
"N. c #CB6C72",
"B. c #C46B7B",
"V. c #C1697C",
"C. c #CF7077",
"Z. c #C07872",
"A. c #C77D76",
"S. c #C0727D",
"D. c #EA8457",
"F. c #E68258",
"G. c #E5845E",
"H. c #E6925E",
"J. c #ED905B",
"K. c #ED975F",
"L. c #C78E69",
"P. c #DF8565",
"I. c #DE8C62",
"U. c #CB8075",
"Y. c #D6867C",
"T. c #D9897C",
"R. c #D89672",
"E. c #E6876E",
"W. c #E79964",
"Q. c #F19D63",
"!. c #E08F7F",
"~. c #E6917E",
"^. c #EBA666",
"/. c #EBA867",
"(. c #EAAD6A",
"). c #ECAF6A",
"_. c #F3A063",
"`. c #F3A866",
"'. c #EAB06B",
"]. c #EAB16B",
"[. c #EAB26C",
"{. c #F2B46C",
"}. c #B05F81",
"|. c #B56383",
" X c #BA6684",
".X c #BE6F81",
"XX c #C87583",
"oX c #CB7784",
"OX c #D48285",
"+X c #DB8A80",
"@X c #DD8C81",
"#X c #E49181",
"$X c None",
/* pixels */
"$X$X$X$X$X$X$X$X$X$X$X$XO o o o o o o o o o o o o o o O $X$X$X$X$X$X$X$X$X$X$X$X",
"$X$X$X$X$X$X$X$X$X$X$X$Xa g g g g g g g g g g g g g g a $X$X$X$X$X$X$X$X$X$X$X$X",
"$X$X$X$X$X$X$X$X$X$X& M ;.,.,.,.,.,.,.,.,.,.,.,.,.,.,.;.M & $X$X$X$X$X$X$X$X$X$X",
"$X$X$X$X$X$X$X$X$X1 0 H g.D.D.F.F.F.F.F.F.F.F.F.F.D.D.g.H 0 1 $X$X$X$X$X$X$X$X$X",
"$X$X$X$X$X$X$X$X1 N -.9.I._._.Q.Q.Q.Q.Q.Q.Q.Q.Q.Q._._.I.9.-.N 1 $X$X$X$X$X$X$X$X",
"$X$X$X$X$X$X$X- f -.l.H.^.(.(.(.(.(.(.(.(.(.(.(.(.(.(.^.H.l.-.f - $X$X$X$X$X$X$X",
"$X$X$X$X$X$Xq Z $.0.H.`.).[.[.[.[.[.[.[.[.[.[.[.[.[.[.).`.H.0.$.Z q $X$X$X$X$X$X",
"$X$X$X$X$X@ x ,.l.H.^.).'.'.'.'.'.'.'.'.'.'.'.'.'.'.'.'.).^.H.l.,.x @ $X$X$X$X$X",
"$X$X$X$X$X# b 9.K.`.).[.].].].].].].].].].].].].].].].].[.).`.K.9.b # $X$X$X$X$X",
"$X$X$X$X$X$ n q./.{.'.].].].].].].].].].].].].].].].].].].'.{./.q.n $ $X$X$X$X$X",
"$X$X$X$X  * n w.'.{.'.(./.^.^.^.^.^.^.^.^.^.^.^.^.^.^./.(.'.{.^.q.n *   $X$X$X$X",
"$ $ X @ O % n w.'.{.'.^.K.J.J.J.J.J.J.J.J.J.J.J.J.J.J.K.^.(.`.H.9.c % O @ X $ $ ",
"o : 7 8 7 7 D w.(.{./.W.G.x.x.x.x.x.x.x.x.x.x.x.x.x.x.G.W.^.Q.D.7.A 7 7 7 2 : o ",
"o 3 R 3.3.) t.L.(.`.K.P.m.N.C.C.C.N.N.N.N.N.N.C.C.C.N.m.P.J.J.F.j.4.) ) / K 2 o ",
". 0 2.d.S.|.S.R.^.K.G.b.B.|.}.}.|. X X X X X X|.}.}.|.B.b.z.D.F.b.V.}.}.u.^ 6 . ",
"+ q W 3.t. XoXI.H.P.m.C.XXf.e.) u..XoXXXXXoX.Xu.) e.f.XXC.m.b.z.n.C.|.y./ M 1 + ",
"$X$X1 0 ~ u.B.n.F.m.V.oXOXa.Q h  .A.@X+X+X@XA. .h Q a.OXoXV.m.x.n.B.u.~ 0 1 $X$X",
"$X$X$X, j ( 4.j.x.M.oXOX+Xa.K 3 { U.#X!.!.#XU.{ 3 K a.+XOXoXM.F.k.4./ j , $X$X$X",
"$X$X$X$X= 9 A 7.z.E.Y.@X@Xa.L 8 { U.#X!.!.#XU.{ 8 L a.@X@XY.E.F.7.A 9 = $X$X$X$X",
"$X$X$X$X$X# c 7.z.c.a.Z.T.Z. .! r.Y.#X!.!.#XY.r.!  .Z.T.Z.a.0.7.:.j , $X$X$X$X$X",
"$X$X$X$X$X# c 7.l.1.R 3.A.T.Z.s.A.@X#X#X#X#X@XA.s.Z.T.A.3.L c b M $X$X$X$X$X$X$X",
"$X$X$X$X$X$ v <.7.G 8 Y r.Z.Z.d.d.d.d.d.d.d.d.d.d.Z.Z.p.R < o : $ $X$X$X$X$X$X$X",
"$X$X$X$X$X$Xr N m k p c Y ! ! ! ! Q Q Q Q Q Q ! ! ! ! Y c i < $ X $X$X$X$X$X$X$X",
"$X$X$X$X$X$X$X5 8 d z k 4 2 < 3 3 3 3 3 3 3 3 3 3 < 2 4 d l p < @ $X$X$X$X$X$X$X",
"$X$X$X$X$X$X, a l F H V d i k l l l l l l l l l l k i i k z k p 9 - $X$X$X$X$X$X",
"$X$X$X$X$X* g G &.*.%.H V V H %.%.%.%.%.%.%.%.%.%.H V l l z z z d 7 * $X$X$X$X$X",
"$X$X$X$X$X* h >.0.7.*.F k k S #.&.*.=.=.=.=.*.&.#.H S z d d A { E 8 * $X$X$X$X$X",
"$X$X$X$X$X$ K r.v.h.,.S 8 4 k S @.&.*.*.*.*.&.@.S V V k 4 8 ~ u.e.J $ $X$X$X$X$X",
"$X$X$X$X$X# K p.T.M.0.H 8 : i z F @.#.#.#.#.@.F z z z k 4 2 ^ i.y.J # $X$X$X$X$X",
"$X$X$X$X$X# K p.@X~.v.3.g : p z V S S S S S S V z z z k 4 2 ^ i.y.J # $X$X$X$X$X",
"$X$X$X$X$X- v 6.a.d.a. .y 8 c B B B B B B D D D D D D n 8 2 L e.( v - $X$X$X$X$X",
"$X$X$X$X$X$Xr N Y Y Y Y P P T _ _ _ _ _ ` } ..........] y 2 7 J j r $X$X$X$X$X$X",
"$X$X$X$X$X$X$X& * $ : e U ] ] ] ' U U U ] X.o.O.O.O.O.X.u $ $ * & $X$X$X$X$X$X$X",
"$X$X$X$X$X$X$X$X+   $ w U [ [ ] P y e e u ] X.o.O.+.+.X.u %   + $X$X$X$X$X$X$X$X",
"$X$X$X$X$X$X$X$X$X= # e I ' ] U t > > > 6 u ] ..o.O.O...u >   $X$X$X$X$X$X$X$X$X",
"$X$X$X$X$X$X$X$X$X$X+ 5 t y y t 5 1 + = , 9 u ` 5.8.8.| y %   $X$X$X$X$X$X$X$X$X",
"$X$X$X$X$X$X$X$X$X$X$X$XO 2 2 * = $X$X$X$X- 6 m -.1.1.$.d ; = $X$X$X$X$X$X$X$X$X",
"$X$X$X$X$X$X$X$X$X$X$X$X+ - -   $X$X$X$X$X$X, j C S S C s 1 $X$X$X$X$X$X$X$X$X$X",
"$X$X$X$X$X$X$X$X$X$X$X$X$X$X$X$X$X$X$X$X$X$X$X1 0 4 4 9 $X$X$X$X$X$X$X$X$X$X$X$X",
"$X$X$X$X$X$X$X$X$X$X$X$X$X$X$X$X$X$X$X$X$X$X$X$X; o o O $X$X$X$X$X$X$X$X$X$X$X$X"
};
