/* XPM */
static char *elf_side02_walk61740972529[] = {
/* columns rows colors chars-per-pixel */
"40 40 184 2 ",
"   c #170126",
".  c #170227",
"X  c #190027",
"o  c #1A0127",
"O  c #1A0227",
"+  c #1D0327",
"@  c #190128",
"#  c #1D0328",
"$  c #1E0428",
"%  c #1F0428",
"&  c #1E0429",
"*  c #210629",
"=  c #220629",
"-  c #240829",
";  c #24082A",
":  c #26082A",
">  c #250B2C",
",  c #280B2A",
"<  c #2D0C2A",
"1  c #2B0D2E",
"2  c #340F2B",
"3  c #320E2C",
"4  c #320F2C",
"5  c #34112D",
"6  c #3A142B",
"7  c #3B152F",
"8  c #321230",
"9  c #381434",
"0  c #3C1634",
"q  c #361F34",
"w  c #3F1C30",
"e  c #3D273A",
"r  c #401A2C",
"t  c #431A2D",
"y  c #451B2F",
"u  c #4A1D2B",
"i  c #401830",
"p  c #431A32",
"a  c #411A3E",
"s  c #54232C",
"d  c #59262A",
"f  c #5C292D",
"g  c #432135",
"h  c #47213B",
"j  c #4A203B",
"k  c #4C2B38",
"l  c #482F3D",
"z  c #522232",
"x  c #5E2732",
"c  c #5C2734",
"v  c #592836",
"b  c #5E2A37",
"n  c #5B3032",
"m  c #5A353D",
"M  c #543A3F",
"N  c #5C383D",
"B  c #5E393D",
"V  c #622C2C",
"C  c #6B312E",
"Z  c #612A34",
"A  c #612C37",
"S  c #623434",
"D  c #6C3237",
"F  c #6C333A",
"G  c #6A373A",
"H  c #783735",
"J  c #783E3C",
"K  c #502644",
"L  c #502447",
"P  c #502A41",
"I  c #542944",
"U  c #56264B",
"Y  c #5D3145",
"T  c #6E3C44",
"R  c #642F54",
"E  c #713953",
"W  c #793D61",
"Q  c #5C4144",
"!  c #504248",
"~  c #55454A",
"^  c #584A4C",
"/  c #594D4E",
"(  c #644141",
")  c #6B4441",
"_  c #774F46",
"`  c #7B4947",
"'  c #7D5447",
"]  c #7B5349",
"[  c #634F50",
"{  c #7F4165",
"}  c #863E37",
"|  c #8A423B",
" . c #91483F",
".. c #9A493C",
"X. c #8F4E4E",
"o. c #954C42",
"O. c #9C4F43",
"+. c #965246",
"@. c #9F5244",
"#. c #8D5E55",
"$. c #885058",
"%. c #91565B",
"&. c #A65747",
"*. c #B05C4C",
"=. c #9D6F52",
"-. c #BC644C",
";. c #A46352",
":. c #BC6858",
">. c #AC7C57",
",. c #824365",
"<. c #8D496D",
"1. c #A25779",
"2. c #A16166",
"3. c #BB6F63",
"4. c #B36F6B",
"5. c #B37C61",
"6. c #B8736E",
"7. c #A96174",
"8. c #B46879",
"9. c #C6694D",
"0. c #C26F50",
"q. c #CF6F50",
"w. c #CC7352",
"e. c #D67556",
"r. c #DF7A55",
"t. c #E67D55",
"y. c #CA7C70",
"u. c #B6845A",
"i. c #BD8A5C",
"p. c #CA8459",
"a. c #C08D5D",
"s. c #DB8D5B",
"d. c #C7905F",
"f. c #E48056",
"g. c #EB8056",
"h. c #EA8357",
"j. c #EC8156",
"k. c #EE8256",
"l. c #EB8659",
"z. c #EA8759",
"x. c #F18357",
"c. c #F38558",
"v. c #F28C5B",
"b. c #E3905E",
"n. c #EB935E",
"m. c #C69260",
"M. c #D49B63",
"N. c #CF8479",
"B. c #DA8A7B",
"V. c #D89475",
"C. c #DD9B74",
"Z. c #DF927B",
"A. c #DF947A",
"S. c #EA9C62",
"D. c #ED9F64",
"F. c #F19B61",
"G. c #E09F72",
"H. c #E09679",
"J. c #D8A165",
"K. c #EAA667",
"L. c #E6A76F",
"P. c #E5AB69",
"I. c #E7AA6E",
"U. c #EAAD6A",
"Y. c #EAAE6A",
"T. c #EAAF6B",
"R. c #E9AF6C",
"E. c #F0A364",
"W. c #F6A465",
"Q. c #F1AD69",
"!. c #EAB06B",
"~. c #EBB26B",
"^. c #EBB36B",
"/. c #EEB36C",
"(. c #F0B56D",
"). c #F2B76D",
"_. c #F5B96E",
"`. c #E4A273",
"'. c #B26183",
"]. c #C67780",
"[. c #CA7E80",
"{. c #E29181",
"}. c #EC9886",
"|. c None",
/* pixels */
"|.|.|.|.|.|.|.|.|.|.|.. X X X X X X X X . . X X X X @ |.|.|.|.|.|.|.|.|.|.|.|.|.",
"|.|.|.|.|.|.|.|.|.|.|.w g g g g g g p p p p p p p y 7 |.|.|.|.|.|.|.|.|.|.|.|.|.",
"|.|.|.|.|.|.|.|.|.|.w ' =.=.=.=.=.;.@.@.@.O.O.@.@.O.F 3 |.|.|.|.|.|.|.|.|.|.|.|.",
"|.|.|.|.|.|.|.|.|., m >.P.!.P.!.P.S.z.t.f.f.t.t.j.r.O.j : |.|.|.|.|.|.|.|.|.|.|.",
"|.|.|.|.|.|.|.|.k _ =.M.(._.(.)./.Y.E.F.D.F.v.x.c.k.9.o.F 7 |.|.|.|.|.|.|.|.|.|.",
"|.|.|.|.|.|.|.+ B u.P.!.!.!.!.!.~.~.T.T.T.K.n.j.g.t.j.r.&.z , |.|.|.|.|.|.|.|.|.",
"|.|.|.|.|.|.|.= B a._.(.!.!.!.!.T.!.!.~.~.U.D.n.z.g.x.x.9.| F p |.|.|.|.|.|.|.|.",
"|.|.|.|.|.|.|.= B i.(.(.!.!.!.!.T.!.!.!.T.T.U.K.n.l.k.k.t.e.&.v , |.|.|.|.|.|.|.",
"|.|.|.|.|.|.|.= B i./.(.^.!.!.!.!.!.!.!.!.!.!.Y.D.n.z.h.x.c.-.b = |.|.|.|.|.|.|.",
"|.|.|.|.|.|.|.= B i.(.(.!.!.!.!.!.!.!.!.!.!.!.!.T.K.n.l.k.x.-.b = |.|.|.|.|.|.|.",
"|.|.|.|.|.|.|.= m 5.`.`.`.I.!.!.!.!.!.!.!.!.T.!.!.T.S.z.k.k.-.b = |.|.|.|.|.|.|.",
"|.|.|.|.|.|.|.= I 2.[.[.N.C.!.!.!.!.!.!.!.!.T.T.!.T.S.l.k.k.-.b = |.|.|.|.|.|.|.",
"|.|.|.|.|.|.|.= L 1.'.'.7.N.K.!.!.!.!.T.T.U.T.T.!.T.S.l.k.k.-.b = |.|.|.|.|.|.|.",
"|.|.|.|.|.|.|.= I 7.8.,.E ;.b.E.Y.~.!.I.`.G.L.T.~.T.S.l.k.k.-.b = |.|.|.|.|.|.|.",
"|.|.|.|.|.|.|.= Y 4.4.Y p  .f.F.T.^.!.L.H.Z.`.T.^.T.S.l.k.k.-.b = |.|.|.|.|.|.|.",
"|.|.|.|.|.|.|.= Y 6.4.P 5 | r.F.Y.!.!.L.H.H.`.T.~.T.S.l.k.k.-.b = |.|.|.|.|.|.|.",
"|.|.|.|.|.|.|.= Y 4.4.Y t  .t.F.Y.~.T.L.H.Z.`.T.~.T.S.l.k.k.-.b = |.|.|.|.|.|.|.",
"|.|.|.|.|.|.|.= Y 4.y.X.J -.b.K.Y.~.!.`.B.N.C.T.!.T.S.l.k.k.-.b = |.|.|.|.|.|.|.",
"|.|.|.|.|.|.|.= Y 4.B.e.w.s.U.T.~.~.!.C.].].V.T.!.T.S.l.k.k.-.b = |.|.|.|.|.|.|.",
"|.|.|.|.|.|.|.= L %.3.t.v.E./.).(.~.~.G.N.[.C.T.^.!.S.l.x.x.-.b = |.|.|.|.|.|.|.",
"|.|.|.|.|.|.|.|.9 h T -.v.E./.).(.~.~.I.G.G.L.T.~.T.S.l.x.x.-.b = |.|.|.|.|.|.|.",
"|.|.|.|.|.|.|.|.|.& r o.9.p.m.m.d.M.P././.~.~.~.T.K.F.l.r.q.&.v : |.|.|.|.|.|.|.",
"|.|.|.|.|.|.|.|.|.|.9 A F T ) ( ) =.J._._.(._.~.K.n.v.c.9.| b r |.|.|.|.|.|.|.|.",
"|.|.|.|.|.|.|.|.|.|.|.+ = , - - 5 ) u.J.J.J.J.M.b.k.t.e.@.z : |.|.|.|.|.|.|.|.|.",
"|.|.|.|.|.|.|.|.|.|.|.|.. O X 5 s G ` ] ] ] ' #.9.t.9. .A p |.|.|.|.|.|.|.|.|.|.",
"|.|.|.|.|.|.|.|.|.|.|.|.|.% 5 x | H p 5 8 5 1 g o.w.O.y : |.|.|.|.|.|.|.|.|.|.|.",
"|.|.|.|.|.|.|.|.|.|.|.|.|.w z H ..| x p 6 5 < 6 D | b - . |.|.|.|.|.|.|.|.|.|.|.",
"|.|.|.|.|.|.|.|.|.|.|.@ 5 Z | ......| H f s s s u 6 1 : + |.|.|.|.|.|.|.|.|.|.|.",
"|.|.|.|.|.|.|.|.|.|.|.K Y X.*.*.@...| | C V V d 6 & 1 j K |.|.|.|.|.|.|.|.|.|.|.",
"|.|.|.|.|.|.|.|.|.+ h $.4.y.y.:.@.| H C V V V d 6 ; K ,.W 0 + |.|.|.|.|.|.|.|.|.",
"|.|.|.|.|.|.|.|.|.+ j 2.{.}.B.3.+.J n n n n n n 6 1 R 1.<.p + |.|.|.|.|.|.|.|.|.",
"|.|.|.|.|.|.|.|.|.+ j 2.{.}.B.4.' ( Q Q Q Q Q Y q 1 R 1.<.p + |.|.|.|.|.|.|.|.|.",
"|.|.|.|.|.|.|.|.|.X g %.y.N.6.#.[ ^ ^ ^ ^ ^ / ! e 1 U <.{ a . |.|.|.|.|.|.|.|.|.",
"|.|.|.|.|.|.|.|.|.X 6 T X.` T Q ^ / / / / / / ! q + 5 U K 9 |.|.|.|.|.|.|.|.|.|.",
"|.|.|.|.|.|.|.|.|.O < s f r 8 e ! ~ ~ ~ ~ ~ ^ ~ e 1 - - : |.|.|.|.|.|.|.|.|.|.|.",
"|.|.|.|.|.|.|.|.|.+ < u d u 6 e e e e e e l ( ` J v p - . |.|.|.|.|.|.|.|.|.|.|.",
"|.|.|.|.|.|.|.|.|.% < u f f s w , > > > : 5 D  ...| x < + |.|.|.|.|.|.|.|.|.|.|.",
"|.|.|.|.|.|.|.|.|.|.: t u u y 0 = + O % + 3 v D H F u < % |.|.|.|.|.|.|.|.|.|.|.",
"|.|.|.|.|.|.|.|.|.|.|., < < = + |.|.|.|.|.|.5 5 7 3 < : % |.|.|.|.|.|.|.|.|.|.|.",
"|.|.|.|.|.|.|.|.|.|.|.X + + = X |.|.|.|.|.|.+ X X + + + O |.|.|.|.|.|.|.|.|.|.|."
};
