/* XPM */
static char *result[] = {
/* columns rows colors chars-per-pixel */
"40 40 54 1 ",
"  c black",
". c #040404",
"X c #060606",
"o c #090909",
"O c gray4",
"+ c #0C0C0C",
"@ c gray5",
"# c gray6",
"$ c gray9",
"% c #191919",
"& c #232323",
"* c gray15",
"= c #353535",
"- c gray25",
"; c #494949",
": c gray30",
"> c gray31",
", c gray35",
"< c gray39",
"1 c gray44",
"2 c #727272",
"3 c gray49",
"4 c gray50",
"5 c #818181",
"6 c gray55",
"7 c #989898",
"8 c #9B9B9B",
"9 c #A5A5A5",
"0 c #A9A9A9",
"q c #AAAAAA",
"w c #B2B2B2",
"e c gray70",
"r c gray71",
"t c #BCBCBC",
"y c gray75",
"u c #C1C1C1",
"i c gray79",
"p c gray83",
"a c #D8D8D8",
"s c gray88",
"d c #E4E4E4",
"f c #E7E7E7",
"g c #EAEAEA",
"h c gray92",
"j c gray95",
"k c #F3F3F3",
"l c #F4F4F4",
"z c #F6F6F6",
"x c #F8F8F8",
"c c #F9F9F9",
"v c #FBFBFB",
"b c #FDFDFD",
"n c #FEFEFE",
"m c white",
/* pixels */
" o@@@@@@@@@@@@@@@@@@@@@@@@@X.+@@@@@@@@o ",
"o3eeeeeeeeeeeeeeeeeeeeeeeee,=qeeeeeeee3o",
"@wmmmmmy9xmmmmmmmmmmmmmmmmm4:jmmmmmmmmw@",
"@wmmmvi,=rkmmmmmmmmmmmmfukm4:jmmmmmmmmw@",
"@wmmml1%#>smmmmmmmmmmmh8=tk4:jmmmmmmmmw@",
"@wmmmbd2;pcmmmmmmmmmmm7&O=u4:jmmmmmmmmw@",
"@wmmmmmaivmmmmmmmmmmmma3&8f4:jmmmmmmmmw@",
"@wmmmmmmmmmmmmmmmmmmmmma7hm4:jmmmmmmmmw@",
"@wmmmmmmmmmmmmmmmmmmmmmmmmm4:jmmmmmmmmw@",
"@wmmmmmmmmmmmmmmmmmmmmmmmmm4:jmmmmmmmmw@",
"@wmmmmmmmmmmmmmmmxznmmmmmmm4:jmmmmmmmmw@",
"@wmmmmmmmmmmmmmmm95zmmmmmmm4:jmmmmmmmmw@",
"@wmmmmmmmmmmmmmx9-*6hmmmmmm4:jmmmmmmmmw@",
"@wmmmmmmmmmmmmmz5*$<dmmmmmm4:jmmmmmmmmw@",
"@wmkscmmmmmmmmmnz6<gbmmmmmm4:jmmmmmmmmw@",
"@wxr>pvmmmmmmmmmmhdbmmmmmmm4:jmmmmmmmmw@",
"@w9=#;immmmmmmmmmmmmmmmmmmm4:jmmmmmmmmw@",
"@wy,%2ammmmmmmmmmmmmmmmmmmm4:jmmmmmmmmw@",
"@wmi1dmmmmmmmmmmmmmmmmmmmmm4:jmmmmmmmmw@",
"@wmvlbmmmmmmmmmmmmmmmmmkscm4:jmmmmmmmmw@",
"@wmmmmmmmmmmmmmmmmmmmmxr>pv4:jmmmmmmmmw@",
"@wmmmmmmmmmmmmmmmmmmmm9=#;i4:jmmmmmmmmw@",
"@wmmmmmmmmmmmmmmmmmmmmy,%2a4:jmmmmmmmmw@",
"@wmmmmmmmmmmmfukmmmmmmmi1dm4:jmmmmmmmmw@",
"@wmmmmmmmmmmh8=tkmmmmmmvlbm4:jmmmmmmmmw@",
"@wmmmmmmmmmm7&O=ummmmmmmmmm4:jmmmmmmmmw@",
"@wmmmmmmmmmma3&8fmmmmmmmmmm4:jmmmmmmmmw@",
"@wmmmmmmmmmmma7hmmmmmmmmmmm4:jmmmmmmmmw@",
"@wmmmmmmmmmmmmmmmmmmmmmmmmm4:jmmmmmmmmw@",
"@wmmmmmmmmmmmmmmmmmmmmmmmmm4:jmmmmmmmmw@",
"@wmmmmmmmmmmmmmmmmmmmmmmmmm4:jmmmmmmmmw@",
"@wmmmmmmmmmmmmmmmmmmmmmmmmm4:jmmmmmmmmw@",
"@wma7hmmmmmmmmmmmmmmmmy9xmm4:jmmmmmmmmw@",
"@wa3&8fmmmmmaivmmmmmvi,=rkm4:jmmmmmmmmw@",
"@w7&O=ummmbd2;pcmmmml1%#>sm4:jmmmmmmmmw@",
"@wh8=tkmmml1%#>smmmmbd2;pcm4:jmmmmmmmmw@",
"@wmfukmmmmvi,=rkmmmmmmaivmm4:jmmmmmmmmw@",
"@wmmmmmmmmmmy9xmmmmmmmmmmmm4:jmmmmmmmmw@",
"o3wwwwwwwwwwwwwwwwwwwwwwwww,=0wwwwwwww3o",
" o@@@@@@@@@@@@@@@@@@@@@@@@@X.+@@@@@@@@o "
};
