/* XPM */
static char *elf_side02_walk71740972529[] = {
/* columns rows colors chars-per-pixel */
"40 40 179 2 ",
"   c #140024",
".  c #170027",
"X  c #190127",
"o  c #1B0127",
"O  c #1A0327",
"+  c #1C0227",
"@  c #1D0328",
"#  c #1E0328",
"$  c #1F0528",
"%  c #1F0529",
"&  c #210629",
"*  c #220628",
"=  c #220629",
"-  c #230629",
";  c #250A2B",
":  c #2A0B29",
">  c #290A2B",
",  c #2D0D2C",
"<  c #320F2C",
"1  c #31112C",
"2  c #33112D",
"3  c #31112F",
"4  c #30122F",
"5  c #36112C",
"6  c #39122A",
"7  c #39152E",
"8  c #3B142E",
"9  c #3A142F",
"0  c #3F172F",
"q  c #3A1735",
"w  c #3E1F33",
"e  c #3A2338",
"r  c #41192F",
"t  c #471C2C",
"y  c #401930",
"u  c #4E1E30",
"i  c #54242B",
"p  c #59272B",
"a  c #432133",
"s  c #4D2033",
"d  c #492533",
"f  c #45203A",
"g  c #4A233C",
"h  c #422A3B",
"j  c #562332",
"k  c #5A2532",
"l  c #5D2631",
"z  c #592C30",
"x  c #592836",
"c  c #5E2A37",
"v  c #5E2B37",
"b  c #502A3E",
"n  c #4D323C",
"m  c #5E3233",
"M  c #59353C",
"N  c #543A3F",
"B  c #5D393D",
"V  c #612B2C",
"C  c #622B36",
"Z  c #6B2E34",
"A  c #67353C",
"S  c #683139",
"D  c #703233",
"F  c #783837",
"G  c #71363B",
"H  c #522743",
"J  c #542A41",
"K  c #5A2F43",
"L  c #5D3045",
"P  c #603244",
"I  c #6E3E4D",
"U  c #733E4F",
"Y  c #5C4142",
"T  c #554449",
"R  c #57484B",
"E  c #584B4D",
"W  c #694241",
"Q  c #6A4442",
"!  c #604F4E",
"~  c #754843",
"^  c #7A5146",
"/  c #7B5548",
"(  c #7B4652",
")  c #6D5454",
"_  c #7F4162",
"`  c #86413B",
"'  c #914439",
"]  c #8A4743",
"[  c #944C41",
"{  c #9D4F42",
"}  c #9A4F44",
"|  c #845045",
" . c #89594A",
".. c #9E5345",
"X. c #814B55",
"o. c #815454",
"O. c #8D545A",
"+. c #A95443",
"@. c #A25648",
"#. c #AA5A4C",
"$. c #B05C4C",
"%. c #98634D",
"&. c #83605D",
"*. c #9D6F52",
"=. c #BC644C",
"-. c #BE654C",
";. c #B07C5C",
":. c #985371",
">. c #A35F6D",
",. c #B36E6C",
"<. c #A77363",
"1. c #B7716C",
"2. c #BB766E",
"3. c #B06578",
"4. c #C0664C",
"5. c #C6694D",
"6. c #CC6F50",
"7. c #C26F59",
"8. c #C57C55",
"9. c #D87552",
"0. c #DF7953",
"q. c #D5785F",
"w. c #E77D55",
"e. c #C77870",
"r. c #C87F76",
"t. c #B6845A",
"y. c #C08B5C",
"u. c #E58157",
"i. c #EA8257",
"p. c #EE8156",
"a. c #EB8759",
"s. c #F28457",
"d. c #F18D5B",
"f. c #E1925E",
"g. c #EB925D",
"h. c #EC955E",
"j. c #DF8264",
"k. c #CF9962",
"l. c #D79D63",
"z. c #CB8A71",
"x. c #D1857C",
"c. c #DA8B7E",
"v. c #DA9473",
"b. c #DE9C72",
"n. c #DF917D",
"m. c #ED8A69",
"M. c #E69F66",
"N. c #EF9960",
"B. c #EA9C62",
"V. c #E49968",
"C. c #F19E63",
"Z. c #E58F7C",
"A. c #E0957A",
"S. c #D8A165",
"D. c #E1A667",
"F. c #EDA164",
"G. c #EBA666",
"H. c #E5AC6A",
"J. c #E7A96E",
"K. c #EAAC6A",
"L. c #EAAE6A",
"P. c #EAAF6B",
"I. c #F3AA67",
"U. c #F1AD69",
"Y. c #EAB06B",
"T. c #EBB26B",
"R. c #EBB36B",
"E. c #ECB56B",
"W. c #F1B16B",
"Q. c #F1B56C",
"!. c #F3B86E",
"~. c #E3A173",
"^. c #E5A273",
"/. c #E6A670",
"(. c #AB5C80",
"). c #B86685",
"_. c #C87B81",
"`. c #ED9887",
"'. c None",
/* pixels */
"'.'.'.'.'.'.'.'.'.'.'.* o O O O O O O O O O O O O O . '.'.'.'.'.'.'.'.'.'.'.'.'.",
"'.'.'.'.'.'.'.'.'.'.'.e a y a a y a r 0 r r r r r 0 9 '.'.'.'.'.'.'.'.'.'.'.'.'.",
"'.'.'.'.'.'.'.'.'.'.e ~ *.*.*.*.*.%...{ { { { ....} G , '.'.'.'.'.'.'.'.'.'.'.'.",
"'.'.'.'.'.'.'.'.'.5 M ;.P.T.H.H.H.M.a.u.u.u.u.w.w.w.} u < '.'.'.'.'.'.'.'.'.'.'.",
"'.'.'.'.'.'.'.'.n / *.l.Q.Q.E.!.Q.U.F.B.C.C.d.s.s.p.5.[ S 9 '.'.'.'.'.'.'.'.'.'.",
"'.'.'.'.'.'.'.O Y t.P.Y.T.P.T.Y.T.P.K.K.P.G.g.i.p.i.w.0.@.s $ '.'.'.'.'.'.'.'.'.",
"'.'.'.'.'.'.'.= A t.!.Q.T.P.P.P.P.P.P.T.Y.K.F.g.a.i.s.s.5.] C 0 '.'.'.'.'.'.'.'.",
"'.'.'.'.'.'.'.= P t.Q.Q.T.P.T.P.P.T.T.P.P.P.K.G.h.i.p.p.w.9.#.x $ '.'.'.'.'.'.'.",
"'.'.'.'.'.'.'.= B y.!.!.T.T.P.P.P.T.T.T.T.P.T.P.F.g.a.i.s.s.5.c = '.'.'.'.'.'.'.",
"'.'.'.'.'.'.'.= B t.Q.Q.T.P.P.T.P.P.P.H.P.P.P.T.P.G.h.a.w.s.-.c = '.'.'.'.'.'.'.",
"'.'.'.'.'.'.'.= M ;.^.^.~.J.P.P.T.P.P.T.P.T.P.P.T.P.B.a.p.p.-.c = '.'.'.'.'.'.'.",
"'.'.'.'.'.'.'.= H >._._.x.b.P.T.T.P.P.T.P.P.T.P.T.P.B.a.p.p.=.c = '.'.'.'.'.'.'.",
"'.'.'.'.'.'.'.= H :.).(.3.z.H.T.H.P.P.P.K.K.K.P.T.P.B.a.p.p.=.c = '.'.'.'.'.'.'.",
"'.'.'.'.'.'.'.= H >.3.X.U <.H.Q.T.T.T.J.^.^.H.T.T.P.B.a.p.p.=.c = '.'.'.'.'.'.'.",
"'.'.'.'.'.'.'.= L ,.,.L y %./.Q.P.T.P./.A.A.^.P.T.P.B.a.p.p.=.c = '.'.'.'.'.'.'.",
"'.'.'.'.'.'.'.= L 1.,.H 3 | f.I.P.T.P./.A.c.^.P.T.P.B.a.p.p.=.c = '.'.'.'.'.'.'.",
"'.'.'.'.'.'.'.= L 1.1.K r [ u.C.K.T.P./.A.A.A.T.R.P.B.a.p.p.=.v = '.'.'.'.'.'.'.",
"'.'.'.'.'.'.'.= L 1.r.O.U $.u.N.K.T.T.~.c.x.V.R.T.P.B.a.p.p.=.v = '.'.'.'.'.'.'.",
"'.'.'.'.'.'.'.= K ,.c.r.e.q.i.h.P.R.H.b._._.v.P.R.P.B.a.p.p.=.v = '.'.'.'.'.'.'.",
"'.'.'.'.'.'.'.@ J O.1.x.Z.m.a.C.P.E.T.b.e.e.v.P.R.T.B.a.p.s.=.v = '.'.'.'.'.'.'.",
"'.'.'.'.'.'.'.'.2 g U ,.Z.m.a.h.W.E.Y.F.j.j.V.P.T.P.B.a.p.s.=.v = '.'.'.'.'.'.'.",
"'.'.'.'.'.'.'.'.'.@ f O.1.7.6.8.y.S.H.G.h.g.F.T.P.G.N.a.0.6.@.x @ '.'.'.'.'.'.'.",
"'.'.'.'.'.'.'.'.'.'.3 J A A A A W *.S.Q.I.I.Y.W.G.h.d.s.5.` C 0 '.'.'.'.'.'.'.'.",
"'.'.'.'.'.'.'.'.'.'.'.= = $ - - 1 W t.S.S.l.S.l.f.i.w.9...s @ '.'.'.'.'.'.'.'.'.",
"'.'.'.'.'.'.'.'.'.'.'.'.. O o 6 j A ~ / / / /  .7.w.5.] S 0 '.'.'.'.'.'.'.'.'.'.",
"'.'.'.'.'.'.'.'.'.'.'.'.'.$ ; k ` F t 1 1 1 : a [ 6.{ u = '.'.'.'.'.'.'.'.'.'.'.",
"'.'.'.'.'.'.'.'.'.'.'.'.'.. * k ' ` z t 6 1 : 6 D ] G , '.'.'.'.'.'.'.'.'.'.'.'.",
"'.'.'.'.'.'.'.'.'.'.'.'.'.O ; k ' { ' F V i i i t y q '.'.'.'.'.'.'.'.'.'.'.'.'.",
"'.'.'.'.'.'.'.'.'.'.'.'.'.b P ] #.#.+.' D V V p 6 o O '.'.'.'.'.'.'.'.'.'.'.'.'.",
"'.'.'.'.'.'.'.'.'.'.'.. 2 ( ,.e.e.7.+.' D V V z 6 = O '.'.'.'.'.'.'.'.'.'.'.'.'.",
"'.'.'.'.'.'.'.'.'.'.'.o q O.c.`.c.e.@.` A m m z r - o '.'.'.'.'.'.'.'.'.'.'.'.'.",
"'.'.'.'.'.'.'.'.'.'.'.= q O.c.`.A.2.o.Q Y Y L N e ; O '.'.'.'.'.'.'.'.'.'.'.'.'.",
"'.'.'.'.'.'.'.'.'.'.'.o 9 X.2.x.z.<.) R R E E T e ; o '.'.'.'.'.'.'.'.'.'.'.'.'.",
"'.'.'.'.'.'.'.'.'.'.'.'.'.b I o.&.&.! R E E E T e ; o '.'.'.'.'.'.'.'.'.'.'.'.'.",
"'.'.'.'.'.'.'.'.'.'.'.'.'., 2 h T E R T R E ! T e ; o '.'.'.'.'.'.'.'.'.'.'.'.'.",
"'.'.'.'.'.'.'.'.'.'.'.'.2 < w d M n h n W | | ~ d > % '.'.'.'.'.'.'.'.'.'.'.'.'.",
"'.'.'.'.'.'.'.'.'.'.'.= = y i V z y 2 r F [ { ` j > O '.'.'.'.'.'.'.'.'.'.'.'.'.",
"'.'.'.'.'.'.'.'.'.'.'.o = 6 t t t 7 - 2 C D D Z u % '.'.'.'.'.'.'.'.'.'.'.'.'.'.",
"'.'.'.'.'.'.'.'.'.'.'.= - - : : : * '.'.2 6 6 2 q '.'.'.'.'.'.'.'.'.'.'.'.'.'.'.",
"'.'.'.'.'.'.'.'.'.'.'.= - - - = & o '.'.o O O = '.'.'.'.'.'.'.'.'.'.'.'.'.'.'.'."
};
