/* XPM */
static char *elf_side02_walk41740972529[] = {
/* columns rows colors chars-per-pixel */
"40 40 160 2 ",
"   c #180127",
".  c #190127",
"X  c #1A0127",
"o  c #1B0227",
"O  c #1D0328",
"+  c #1D0428",
"@  c #200528",
"#  c #210629",
"$  c #230729",
"%  c #21072A",
"&  c #26082A",
"*  c #280A2A",
"=  c #280B2C",
"-  c #2E0F2F",
";  c #30102B",
":  c #35122E",
">  c #37132E",
",  c #38132B",
"<  c #3C1A2E",
"1  c #371533",
"2  c #3C1B31",
"3  c #381F35",
"4  c #372238",
"5  c #40182E",
"6  c #44182D",
"7  c #401830",
"8  c #431A30",
"9  c #441D30",
"0  c #54212F",
"q  c #54252C",
"w  c #5B262F",
"e  c #432335",
"r  c #4F2132",
"t  c #47213B",
"y  c #4E293C",
"u  c #582633",
"i  c #582E32",
"p  c #5E2A37",
"a  c #5F2B37",
"s  c #49313C",
"d  c #5D3233",
"f  c #5D393D",
"g  c #612B2B",
"h  c #642B30",
"j  c #673037",
"k  c #683139",
"l  c #703433",
"z  c #773937",
"x  c #71363B",
"c  c #502445",
"v  c #512841",
"b  c #542B40",
"n  c #5B2F44",
"m  c #562948",
"M  c #5C2E49",
"N  c #5D3244",
"B  c #503B43",
"V  c #6C3C4C",
"C  c #723E4E",
"Z  c #5A4144",
"A  c #53454A",
"S  c #674241",
"D  c #624F4F",
"F  c #704440",
"G  c #744A43",
"H  c #774F46",
"J  c #7D5447",
"K  c #7B5548",
"L  c #7A4357",
"P  c #794D50",
"I  c #765958",
"U  c #86403A",
"Y  c #904439",
"T  c #8C4640",
"R  c #944B40",
"E  c #9C4F43",
"W  c #8A5647",
"Q  c #9F5345",
"!  c #8E545B",
"~  c #A65444",
"^  c #A3564A",
"/  c #AE5B4A",
"(  c #93644E",
")  c #9D634D",
"_  c #86615F",
"`  c #9B6E51",
"'  c #9E7052",
"]  c #BC644D",
"[  c #BF654C",
"{  c #AC775F",
"}  c #B07C5C",
"|  c #9C5573",
" . c #A35F6D",
".. c #AE6A60",
"X. c #B36E6D",
"o. c #B5716C",
"O. c #AE6478",
"+. c #C5684D",
"@. c #C86B4E",
"#. c #CF6F50",
"$. c #C27058",
"%. c #D77656",
"&. c #DF7953",
"*. c #E67D55",
"=. c #C2766C",
"-. c #CB7776",
";. c #CC747C",
":. c #B6845A",
">. c #BF8B5D",
",. c #E58156",
"<. c #EB8056",
"1. c #EA8357",
"2. c #EE8256",
"3. c #EA8659",
"4. c #E5895A",
"5. c #F18357",
"6. c #F48558",
"7. c #F18C5B",
"8. c #F18D5C",
"9. c #EB935E",
"0. c #DF8065",
"q. c #DF8465",
"w. c #D49B62",
"e. c #CB8077",
"r. c #D58170",
"t. c #D08A77",
"y. c #D1857C",
"u. c #DA8C79",
"i. c #DA9473",
"p. c #E39361",
"a. c #EF9860",
"s. c #E99D63",
"d. c #EA9C62",
"f. c #F19E63",
"g. c #E28371",
"h. c #E38E7F",
"j. c #E09B70",
"k. c #E0947A",
"l. c #D8A165",
"z. c #EDA164",
"x. c #EBA666",
"c. c #E6A069",
"v. c #E6A76E",
"b. c #E5AC69",
"n. c #EAAC6B",
"m. c #EAAE6A",
"M. c #EAAF6B",
"N. c #F3AB67",
"B. c #EAB06B",
"V. c #EAB16B",
"C. c #EBB16B",
"Z. c #EBB36B",
"A. c #ECB46B",
"S. c #F1B46C",
"D. c #F1B76D",
"F. c #E4A173",
"G. c #B26183",
"H. c #C47681",
"J. c #CD7C81",
"K. c None",
/* pixels */
"K.K.K.K.K.K.K.K.K.K.K.& X X O X X X X X X X X X X +   K.K.K.K.K.K.K.K.K.K.K.K.K.",
"K.K.K.K.K.K.K.K.K.K.K.2 e e e e e 9 8 8 8 8 8 8 8 5 > K.K.K.K.K.K.K.K.K.K.K.K.K.",
"K.K.K.K.K.K.K.K.K.K.2 J ` ` ' ' ` ) Q E E E E E ^ E k , K.K.K.K.K.K.K.K.K.K.K.K.",
"K.K.K.K.K.K.K.K.K.; f } b.A.b.b.b.s.4.,.,.,.,.*.*.*.Q r % K.K.K.K.K.K.K.K.K.K.K.",
"K.K.K.K.K.K.K.K.y H ` w.S.D.D.D.S.N.z.f.f.a.8.5.6.*.+.R k > K.K.K.K.K.K.K.K.K.K.",
"K.K.K.K.K.K.K.% f :.b.M.M.C.M.C.M.M.m.b.m.x.9.1.2.1.*.*.~ r % K.K.K.K.K.K.K.K.K.",
"K.K.K.K.K.K.K.% f >.D.D.C.M.C.M.M.C.C.C.A.m.z.9.3.*.5.5.@.Y a 7 K.K.K.K.K.K.K.K.",
"K.K.K.K.K.K.K.% f >.D.A.M.C.M.C.C.M.C.M.C.M.m.x.a.2.*.1.*.%./ u % K.K.K.K.K.K.K.",
"K.K.K.K.K.K.K.% f >.S.D.M.A.M.M.V.M.V.M.C.C.C.M.s.a.3.1.5.6.+.p % K.K.K.K.K.K.K.",
"K.K.K.K.K.K.K.% f >.S.S.A.A.M.M.M.V.M.V.M.M.C.M.v.x.9.3.2.5.] p % K.K.K.K.K.K.K.",
"K.K.K.K.K.K.K.% N } F.F.F.v.m.C.V.M.V.M.C.M.M.M.C.C.d.3.2.2.] a % K.K.K.K.K.K.K.",
"K.K.K.K.K.K.K.% v  .J.J.t.i.m.C.M.V.M.V.V.C.M.A.C.m.s.3.2.2.] a % K.K.K.K.K.K.K.",
"K.K.K.K.K.K.K.% c | G.G.O.t.b.C.V.M.V.M.M.n.M.M.C.m.d.3.2.2.] a % K.K.K.K.K.K.K.",
"K.K.K.K.K.K.K.% m  .O.L C { b.D.M.V.M.n.F.F.v.M.C.m.d.3.2.2.] p % K.K.K.K.K.K.K.",
"K.K.K.K.K.K.K.% n X.X.M e ( v.S.M.V.V.F.k.k.F.m.C.m.d.3.2.5.] p % K.K.K.K.K.K.K.",
"K.K.K.K.K.K.K.% N o.X.v ; W p.N.M.V.V.n.k.i.F.C.C.m.d.3.2.*.] p % K.K.K.K.K.K.K.",
"K.K.K.K.K.K.K.% N o.o.n 8 R ,.f.n.V.V.F.k.k.F.C.C.m.d.3.2.2.] a % K.K.K.K.K.K.K.",
"K.K.K.K.K.K.K.% n o.e.! C / ,.a.n.V.Z.F.t.y.j.m.A.m.d.3.2.2.] a % K.K.K.K.K.K.K.",
"K.K.K.K.K.K.K.% n X.u.e.=.%.1.a.M.A.Z.i.J.H.i.m.A.m.d.3.2.2.] a % K.K.K.K.K.K.K.",
"K.K.K.K.K.K.K.+ b ! o.y.h.g.0.p.n.D.A.c.-.-.i.m.A.m.d.3.5.5.] a % K.K.K.K.K.K.K.",
"K.K.K.K.K.K.K.K.1 t C o.h.J.;.u.n.A.C.j.q.q.j.m.A.m.d.3.5.6.+.a % K.K.K.K.K.K.K.",
"K.K.K.K.K.K.K.K.K.O t ! X.O.| X.>.l.b.x.9.9.z.C.m.x.a.1.&.@.^ a % K.K.K.K.K.K.K.",
"K.K.K.K.K.K.K.K.K.K.1 b N M m n S ` l.D.N.N.S.S.x.9.7.2.+.U a < K.K.K.K.K.K.K.K.",
"K.K.K.K.K.K.K.K.K.K.K.  * % & & ; F :.l.l.l.l.w.p.3.*.%.^ r % K.K.K.K.K.K.K.K.K.",
"K.K.K.K.K.K.K.K.K.K.K.K.  % & , q l G J K K J W $.*.+.T k 8 K.K.K.K.K.K.K.K.K.K.",
"K.K.K.K.K.K.K.K.K.K.K.K.K.O * w U z 9 ; ; ; ; 6 R #.E r % K.K.K.K.K.K.K.K.K.K.K.",
"K.K.K.K.K.K.K.K.K.K.K.K.K.  * w Y U u 6 , ; ; , h T x > K.K.K.K.K.K.K.K.K.K.K.K.",
"K.K.K.K.K.K.K.K.K.K.K.K.K.  * w Y Q Y z h q q q 9 8 1 K.K.K.K.K.K.K.K.K.K.K.K.K.",
"K.K.K.K.K.K.K.K.K.K.K.K.K.  & j ^ / ~ Y l g g w , @   K.K.K.K.K.K.K.K.K.K.K.K.K.",
"K.K.K.K.K.K.K.K.K.K.K.K.K.  * C X.$.~ Y l g g w , %   K.K.K.K.K.K.K.K.K.K.K.K.K.",
"K.K.K.K.K.K.K.K.K.K.K.K.K.  - L e.r.] E z d d i < @   K.K.K.K.K.K.K.K.K.K.K.K.K.",
"K.K.K.K.K.K.K.K.K.K.K.K.K.O - L y.h.r...P Z Z B 3 &   K.K.K.K.K.K.K.K.K.K.K.K.K.",
"K.K.K.K.K.K.K.K.K.K.K.K.K.+ % V X.e.e.o.I A A B 4 % + K.K.K.K.K.K.K.K.K.K.K.K.K.",
"K.K.K.K.K.K.K.K.K.K.K.K.K.K.K.y V P _ _ D A s 4 2 K.K.K.K.K.K.K.K.K.K.K.K.K.K.K.",
"K.K.K.K.K.K.K.K.K.K.K.K.K.K.K.+ & e Z D D B 4 * + K.K.K.K.K.K.K.K.K.K.K.K.K.K.K.",
"K.K.K.K.K.K.K.K.K.K.K.K.K.K.K.2 p k F G S s , * K.K.K.K.K.K.K.K.K.K.K.K.K.K.K.K.",
"K.K.K.K.K.K.K.K.K.K.K.K.K.O % r U Y R U l q , & K.K.K.K.K.K.K.K.K.K.K.K.K.K.K.K.",
"K.K.K.K.K.K.K.K.K.K.K.K.K.O % 6 j l l h 0 7 ;   K.K.K.K.K.K.K.K.K.K.K.K.K.K.K.K.",
"K.K.K.K.K.K.K.K.K.K.K.K.K.  % & , , , ; ; @ K.K.K.K.K.K.K.K.K.K.K.K.K.K.K.K.K.K.",
"K.K.K.K.K.K.K.K.K.K.K.K.K.  @   O     O   % K.K.K.K.K.K.K.K.K.K.K.K.K.K.K.K.K.K."
};
