/* XPM */
static char *elf_side01_walk41740972316[] = {
/* columns rows colors chars-per-pixel */
"40 40 160 2 ",
"   c #180127",
".  c #190127",
"X  c #1A0127",
"o  c #1B0227",
"O  c #1D0328",
"+  c #1D0428",
"@  c #200528",
"#  c #210629",
"$  c #230729",
"%  c #21072A",
"&  c #26082A",
"*  c #280A2A",
"=  c #280B2C",
"-  c #2E0F2F",
";  c #30102B",
":  c #35122E",
">  c #37132E",
",  c #38132B",
"<  c #3C1A2E",
"1  c #371533",
"2  c #3C1B31",
"3  c #381F35",
"4  c #372238",
"5  c #40182E",
"6  c #44182D",
"7  c #401830",
"8  c #431A30",
"9  c #441D30",
"0  c #54212F",
"q  c #54252C",
"w  c #5B262F",
"e  c #432335",
"r  c #4F2132",
"t  c #47213B",
"y  c #4E293C",
"u  c #582633",
"i  c #582E32",
"p  c #5E2A37",
"a  c #5F2B37",
"s  c #49313C",
"d  c #5D3233",
"f  c #5D393D",
"g  c #612B2B",
"h  c #642B30",
"j  c #673037",
"k  c #683139",
"l  c #703433",
"z  c #773937",
"x  c #71363B",
"c  c #502445",
"v  c #512841",
"b  c #542B40",
"n  c #5B2F44",
"m  c #562948",
"M  c #5C2E49",
"N  c #5D3244",
"B  c #503B43",
"V  c #6C3C4C",
"C  c #723E4E",
"Z  c #5A4144",
"A  c #53454A",
"S  c #674241",
"D  c #624F4F",
"F  c #704440",
"G  c #744A43",
"H  c #774F46",
"J  c #7D5447",
"K  c #7B5548",
"L  c #7A4357",
"P  c #794D50",
"I  c #765958",
"U  c #86403A",
"Y  c #904439",
"T  c #8C4640",
"R  c #944B40",
"E  c #9C4F43",
"W  c #8A5647",
"Q  c #9F5345",
"!  c #8E545B",
"~  c #A65444",
"^  c #A3564A",
"/  c #AE5B4A",
"(  c #93644E",
")  c #9D634D",
"_  c #86615F",
"`  c #9B6E51",
"'  c #9E7052",
"]  c #BC644D",
"[  c #BF654C",
"{  c #AC775F",
"}  c #B07C5C",
"|  c #9C5573",
" . c #A35F6D",
".. c #AE6A60",
"X. c #B36E6D",
"o. c #B5716C",
"O. c #AE6478",
"+. c #C5684D",
"@. c #C86B4E",
"#. c #CF6F50",
"$. c #C27058",
"%. c #D77656",
"&. c #DF7953",
"*. c #E67D55",
"=. c #C2766C",
"-. c #CB7776",
";. c #CC747C",
":. c #B6845A",
">. c #BF8B5D",
",. c #E58156",
"<. c #EB8056",
"1. c #E98357",
"2. c #EA8257",
"3. c #EE8256",
"4. c #EA8659",
"5. c #E5895A",
"6. c #F18357",
"7. c #F48558",
"8. c #F18C5B",
"9. c #F18D5C",
"0. c #EB935E",
"q. c #DF8165",
"w. c #D49B62",
"e. c #CB8077",
"r. c #D58170",
"t. c #D08A77",
"y. c #D1857C",
"u. c #DA8C79",
"i. c #DA9473",
"p. c #E39361",
"a. c #EF9860",
"s. c #E99D63",
"d. c #EA9C62",
"f. c #F19E63",
"g. c #E28371",
"h. c #E38E7F",
"j. c #E09B70",
"k. c #E0947A",
"l. c #D8A165",
"z. c #EDA164",
"x. c #EBA666",
"c. c #E6A069",
"v. c #E6A76E",
"b. c #E5AC69",
"n. c #EAAC6B",
"m. c #EAAE6A",
"M. c #EAAF6B",
"N. c #F3AB67",
"B. c #EAB06B",
"V. c #EAB16B",
"C. c #EBB16B",
"Z. c #EBB36B",
"A. c #ECB46B",
"S. c #F1B46C",
"D. c #F1B76D",
"F. c #E4A173",
"G. c #B26183",
"H. c #C47681",
"J. c #CD7C81",
"K. c None",
/* pixels */
"K.K.K.K.K.K.K.K.K.K.K.K.K.o # o o X X X X X X X X X X X % K.K.K.K.K.K.K.K.K.K.K.",
"K.K.K.K.K.K.K.K.K.K.K.K.K.> < 7 5 8 8 8 7 7 9 e e e e e 2 K.K.K.K.K.K.K.K.K.K.K.",
"K.K.K.K.K.K.K.K.K.K.K.K.> x E ~ E E E E E ~ ) ` ' ' ' ' J 2 K.K.K.K.K.K.K.K.K.K.",
"K.K.K.K.K.K.K.K.K.K.K.& r E *.*.*.,.,.,.,.5.s.b.b.b.B.b.} f ; K.K.K.K.K.K.K.K.K.",
"K.K.K.K.K.K.K.K.K.K.1 k Y @.3.7.6.8.f.f.f.s.N.A.D.D.D.S.w.' H y K.K.K.K.K.K.K.K.",
"K.K.K.K.K.K.K.K.K.@ 9 ~ *.*.1.*.2.0.x.m.m.m.M.m.B.B.B.B.B.b.:.f # K.K.K.K.K.K.K.",
"K.K.K.K.K.K.K.K.< p T #.6.6.3.4.0.z.m.B.C.C.C.C.B.B.B.B.D.D.>.f # K.K.K.K.K.K.K.",
"K.K.K.K.K.K.K.# u / %.*.<.<.,.0.x.m.M.B.C.C.m.C.B.B.B.B.S.S.>.f # K.K.K.K.K.K.K.",
"K.K.K.K.K.K.K.# p [ 7.6.1.4.0.z.C.B.B.B.B.B.B.B.B.B.B.Z.D.S.>.f # K.K.K.K.K.K.K.",
"K.K.K.K.K.K.K.# p [ 6.3.4.0.x.n.C.B.B.B.B.B.B.B.B.B.B.B.S.S.>.f # K.K.K.K.K.K.K.",
"K.K.K.K.K.K.K.# p ] 3.3.4.d.C.C.C.C.B.B.B.B.B.B.B.m.v.F.F.F.} N # K.K.K.K.K.K.K.",
"K.K.K.K.K.K.K.# p [ 3.3.4.s.m.C.B.b.B.B.B.B.B.B.B.C.j.y.J.-.O.v # K.K.K.K.K.K.K.",
"K.K.K.K.K.K.K.# p ] 3.3.4.s.m.C.B.m.M.M.M.B.B.B.V.b.t.O.G.G.| c # K.K.K.K.K.K.K.",
"K.K.K.K.K.K.K.# p ] 3.3.4.s.m.C.B.v.F.j.m.C.B.B.S.b.{ L L O. .m # K.K.K.K.K.K.K.",
"K.K.K.K.K.K.K.# p ] 3.3.4.s.n.C.Z.F.k.k.v.b.C.C.S.b.( 4 M X.X.n # K.K.K.K.K.K.K.",
"K.K.K.K.K.K.K.# p ] 3.3.4.s.m.C.M.F.k.k.v.V.V.C.x.0.W ; v X.o.N # K.K.K.K.K.K.K.",
"K.K.K.K.K.K.K.# p ] 3.3.4.d.m.A.M.F.k.k.v.Z.Z.n.f.,.R 8 M o.o.N # K.K.K.K.K.K.K.",
"K.K.K.K.K.K.K.# p ] 3.3.4.d.m.A.M.j.y.t.j.Z.Z.n.a.,./ C ! e.o.M # K.K.K.K.K.K.K.",
"K.K.K.K.K.K.K.# p ] 3.3.4.d.m.A.M.i.H.J.j.Z.Z.n.a.2.%.=.e.u.X.N # K.K.K.K.K.K.K.",
"K.K.K.K.K.K.K.# p [ 6.6.4.d.B.A.M.i.-.-.j.Z.S.M.p.q.g.h.y.o.! y O K.K.K.K.K.K.K.",
"K.K.K.K.K.K.K.# p [ 6.6.4.d.M.B.M.j.*.r.j.C.S.m.u.;.J.h.o.C t 1 K.K.K.K.K.K.K.K.",
"K.K.K.K.K.K.K.# p ^ #.&.2.f.x.M.M.z.0.a.x.m.l.>.X.| O.X.! t @ K.K.K.K.K.K.K.K.K.",
"K.K.K.K.K.K.K.K.2 a U +.6.9.0.x.S.S.N.N.S.l.` S M m M N b 1 K.K.K.K.K.K.K.K.K.K.",
"K.K.K.K.K.K.K.K.K.# r Q %.*.2.p.w.l.l.l.l.:.F ; & & $ = o K.K.K.K.K.K.K.K.K.K.K.",
"K.K.K.K.K.K.K.K.K.K.7 k T +.*.$.W K K K J G l r , $ # o K.K.K.K.K.K.K.K.K.K.K.K.",
"K.K.K.K.K.K.K.K.K.K.K.# 9 Q #.R 9 ; ; ; ; 9 z U w * o K.K.K.K.K.K.K.K.K.K.K.K.K.",
"K.K.K.K.K.K.K.K.K.K.K.K.> x T j , ; ; , 6 u U Y w * o K.K.K.K.K.K.K.K.K.K.K.K.K.",
"K.K.K.K.K.K.K.K.K.K.K.K.K.> 6 9 q q w g z Y E Y w * o K.K.K.K.K.K.K.K.K.K.K.K.K.",
"K.K.K.K.K.K.K.K.K.K.K.K.K.  # , w g g l Y ~ / ^ j & o K.K.K.K.K.K.K.K.K.K.K.K.K.",
"K.K.K.K.K.K.K.K.K.K.K.K.K.o @ , w g g l Y ~ $.o.C & o K.K.K.K.K.K.K.K.K.K.K.K.K.",
"K.K.K.K.K.K.K.K.K.K.K.K.K.o # < i d d z E ] r.e.L ; o K.K.K.K.K.K.K.K.K.K.K.K.K.",
"K.K.K.K.K.K.K.K.K.K.K.K.K.o # 3 B Z Z P ..r.h.y.L - o K.K.K.K.K.K.K.K.K.K.K.K.K.",
"K.K.K.K.K.K.K.K.K.K.K.K.K.+ # 4 B A A I o.-.e.o.V # + K.K.K.K.K.K.K.K.K.K.K.K.K.",
"K.K.K.K.K.K.K.K.K.K.K.K.K.K.K.2 4 s A D _ _ P V y K.K.K.K.K.K.K.K.K.K.K.K.K.K.K.",
"K.K.K.K.K.K.K.K.K.K.K.K.K.K.K.+ = 3 B D D Z e = + K.K.K.K.K.K.K.K.K.K.K.K.K.K.K.",
"K.K.K.K.K.K.K.K.K.K.K.K.K.K.K.K.* , s S H F j u 2 K.K.K.K.K.K.K.K.K.K.K.K.K.K.K.",
"K.K.K.K.K.K.K.K.K.K.K.K.K.K.K.K.# > q l U R R U r # + K.K.K.K.K.K.K.K.K.K.K.K.K.",
"K.K.K.K.K.K.K.K.K.K.K.K.K.K.K.K.X ; < 0 h l l h 8 % o K.K.K.K.K.K.K.K.K.K.K.K.K.",
"K.K.K.K.K.K.K.K.K.K.K.K.K.K.K.K.K.K.# ; ; > , , & @ o K.K.K.K.K.K.K.K.K.K.K.K.K.",
"K.K.K.K.K.K.K.K.K.K.K.K.K.K.K.K.K.K.% X X O o O o # o K.K.K.K.K.K.K.K.K.K.K.K.K."
};
