/* XPM */
static char *result[] = {
/* columns rows colors chars-per-pixel */
"40 40 66 1 ",
"  c black",
". c #010101",
"X c gray2",
"o c #090909",
"O c #0C0C0C",
"+ c #0E0E0E",
"@ c #131313",
"# c #1B1B1B",
"$ c gray12",
"% c #232323",
"& c gray15",
"* c #2A2A2A",
"= c #323232",
"- c gray21",
"; c gray22",
": c #3A3A3A",
"> c gray23",
", c #3C3C3C",
"< c #434343",
"1 c #464646",
"2 c #4E4E4E",
"3 c #505050",
"4 c #565656",
"5 c gray34",
"6 c #5A5A5A",
"7 c gray37",
"8 c gray39",
"9 c #676767",
"0 c #686868",
"q c DimGray",
"w c #6F6F6F",
"e c #727272",
"r c #777777",
"t c #797979",
"y c gray49",
"u c #838383",
"i c #868686",
"p c #898989",
"a c #929292",
"s c #9A9A9A",
"d c #9D9D9D",
"f c #9F9F9F",
"g c #A4A4A4",
"h c #A7A7A7",
"j c #AEAEAE",
"k c gray72",
"l c gray73",
"z c gray",
"x c #C3C3C3",
"c c #CACACA",
"v c #CECECE",
"b c gray82",
"n c gray83",
"m c gray85",
"M c #DDDDDD",
"N c gray89",
"B c #E4E4E4",
"V c gray93",
"C c #F1F1F1",
"Z c #F4F4F4",
"A c gray97",
"S c gray99",
"D c #FDFDFD",
"F c #FEFEFE",
"G c white",
"H c None",
/* pixels */
"HHHHHHHHHHHHHHHHHHHHHHHHHHHHHHHHHHHHHHHH",
"HHHHHHHHHHHHHHHHH>0kkkkd<-HHHHHHHHHHHHHH",
"HHHHHHHHHHHHHHH3sVAGGGGGZcrHHHHHHHHHHHHH",
"HHHHHHHHHHHHHHgBGGGGGGGGGFSc9HHHHHHHHHHH",
"HHHHHHHHHHHHHgGGGGGGGGGGGGGGN3HHHHHHHHHH",
"HHHHHHHHHHHH3BGGGGGGGGGGGGGGGdHHHHHHHHHH",
"HHHHHHHHHHH:nGGGGGGGGGGGGGGGGSiHHHHHHHHH",
"HHHHHHHHHHH<ZGGGGGGGGGGGGGGGGGhHHHHHHHHH",
"HHHHHHO.HHHgGGGGGGGGGCkcGGGSxzN3HHHHHHHH",
"HHHHHH .HHHkGGGGGGGGGC8fGGGFpeZ4HHHHHHHH",
"HHHHHHH  HHkGGGGGGGGGGADGGGGSAS4HHHHHHHH",
"HHHHHHHH.HHkGGGGGGGGGGGGGGGGGGS4HHHHHHHH",
"HHHHHHHH . iSGGGGGGGGGGGGGGGGGv:HHHHHHHH",
"HHHHHHHHH  =AGGGGGGGGGGGGGGGGGfHHHHHHHHH",
"HHHHHHHHH  +fDGGGGGGGGGGGGGGGB9HHHHHHHHH",
"HHHHHHHHHH.+=nGGGGGGGGGGGGGGGrHHHHHHHHHH",
"HHHHHHHHH.#yaeCGGGGGGGGGGGGGlHHHHHHHHHHH",
"HHHHHHHHHOsy= 2jAGGGGGGGGFMuHHHHHHHHHHHH",
"HHHHHHHHHH4%   %ejcGGGGVks2 OHHHHHHHHHHH",
"HHHHHHHHHHH    #huteeeeethk,$HHHHHHHHHHH",
"HHHHHHHHHHH     uGVzzzzvSGv7=HHHHHHHHHHH",
"HHHHHHHHHHHH5%  XpNGGGGGGGb%HHHHHHHHHHHH",
"HHHHHHHHHHHHt5e+  *cGGGGGGboHHHHHHHHHHHH",
"HHHHHHHHHHHHttFf+  &cGGGGGboHHHHHHHHHHHH",
"HHHHHHHHHHH-tjGG5   %tCGGGboHHHHHHHHHHHH",
"HHHHHHHHHHH1yvGGx*+   5lGGboHHHHHHHHHHHH",
"HHHHHHHHHHH1ycGGv9z7   +fGbOHHHHHHHHHHHH",
"HHHHHHHHHHH1ycGGceSZ7   +thHHHHHHHHHHHHH",
"HHHHHHHHHHH=yMGDtzGGC7    #XHHHHHHHHHHHH",
"HHHHHHHHHHH6pGGS8nGGGC7+   XHHHHHHHHHHHH",
"HHHHHHHHHHHpaGGS9bGGGGAx&  XHHHHHHHHHHHH",
"HHHHHHHHHHHupGGS9bGGGGzvmu%XHHHHHHHHHHHH",
"HHHHHHHHHHH5xGGA9nGGGGVeFGx@HHHHHHHHHHHH",
"HHHHHHHHHHH*AGGjpAGGGGZsSGv@HHHHHHHHHHHH",
"HHHHHHHHHHH,mNDfaGGGGGGFGGb@HHHHHHHHHHHH",
"HHHHHHHHHHqz88p8aGGGGGGGZhyXHHHHHHHHHHHH",
"HHHHHHHHHHwGZZkaMGAbbbc7,2eXHHHHHHHHHHHH",
"HHHHHHHHHH;iiiiiiu7+ooXX.56HHHHHHHHHHHHH",
"HHHHHHHHHHHHHHHHHH HHHX.HHHHHHHHHHHHHHHH",
"HHHHHHHHHHHHHHHHHHHHHH.HHHHHHHHHHHHHHHHH"
};
