/* XPM */
static char *result[] = {
/* columns rows colors chars-per-pixel */
"40 40 65 1 ",
"  c black",
". c #010101",
"X c #040404",
"o c #060606",
"O c gray3",
"+ c gray4",
"@ c gray6",
"# c #151515",
"$ c #1B1B1B",
"% c gray14",
"& c gray17",
"* c gray18",
"= c gray19",
"- c #353535",
"; c #3A3A3A",
": c gray23",
"> c #3C3C3C",
", c gray26",
"< c #434343",
"1 c #464646",
"2 c #4E4E4E",
"3 c #505050",
"4 c #555555",
"5 c #565656",
"6 c gray34",
"7 c #585858",
"8 c #5D5D5D",
"9 c gray38",
"0 c #626262",
"q c #676767",
"w c #686868",
"e c #6F6F6F",
"r c gray45",
"t c #777777",
"y c gray47",
"u c #797979",
"i c gray49",
"p c gray51",
"a c #868686",
"s c gray53",
"d c #888888",
"f c gray57",
"g c #939393",
"h c gray60",
"j c gray62",
"k c #A0A0A0",
"l c gray65",
"z c #AEAEAE",
"x c gray72",
"c c #BBBBBB",
"v c #BCBCBC",
"b c #C0C0C0",
"n c gray78",
"m c gray80",
"M c gray81",
"N c #D2D2D2",
"B c gray85",
"V c #E4E4E4",
"C c #EEEEEE",
"Z c #F1F1F1",
"A c gray97",
"S c gray99",
"D c #FEFEFE",
"F c white",
"G c None",
/* pixels */
"GGGGGGGGGGGGGGGGGGGGGGGGGGGGGGGGGGGGGGGG",
"GGGGGGGGGGGGGGGGG:wxxxxk<=GGGGGGGGGGGGGG",
"GGGGGGGGGGGGGGG3hCAFFFFFZnt#GGGGGGGGGGGG",
"GGGGGGGGGGGGGGkVFFFFFFFFFFSmqGGGGGGGGGGG",
"GGGGGGGGGGGGGkFFFFFFFFFFFFFFV3GGGGGGGGGG",
"GGGGGGGGGGGG3VFFFFFFFFFFFFFFFkGGGGGGGGGG",
"GGGGGGGGGGG;NFFFFFFFFFFFFFFFFSaGGGGGGGGG",
"GGGGGGGGGGG<ZFFFFFFFFFFFFFFFFFlGGGGGGGGG",
"GGGGGG .GGGlFFFFFFFFFZxmFFFSbvV3GGGGGGGG",
"GGGGGG oGGGxFFFFFFFFFZ0jFFFDdrA5GGGGGGGG",
"GGGGGGG  GGxFFFFFFFFFFASFFFFSAS4GGGGGGGG",
"GGGGGGGG.GGxFFFFFFFFFFFFFFFFFFS5GGGGGGGG",
"GGGGGGGG o aSFFFFFFFFFFFFFFFFFm;GGGGGGGG",
"GGGGGGGGGoo*AFFFFFFFFFFFFFFFFFjGGGGGGGGG",
"GGGGGGGGG  @jSFFFFFFFFFFFFFFFVqGGGGGGGGG",
"GGGGGGGGGGo+-BFFFFFFFFFFFFFFFtGGGGGGGGGG",
"GGGGGGGGG.$ufeZFFFFFFFFFFFFFcGGGGGGGGGGG",
"GGGGGGGGG$ji- 2zAFFFFFFFFFBpGGGGGGGGGGGG",
"GGGGGGGGGG7%   %rzmFFFFCxh2  GGGGGGGGGGG",
"GGGGGGGGGGG    $lpurrrrrulx>$GGGGGGGGGGG",
"GGGGGGGGGGG     pFCvvvvMSFM,=GGGGGGGGGGG",
"GGGGGGGGGGGG8%  +dVFFFFFFFNoGGGGGGGGGGGG",
"GGGGGGGGGGGGy6e@  %nFFFFFFNoGGGGGGGGGGGG",
"GGGGGGGGGGGGyuDj@  %nFFFFFNoGGGGGGGGGGGG",
"GGGGGGGGGGGGwpSF6   %uZFFFNoGGGGGGGGGGGG",
"GGGGGGGGGGGG,nFFb-@   6vFFmOGGGGGGGGGGGG",
"GGGGGGGGGGG1imFFMdm8   @jFM#GGGGGGGGGGGG",
"GGGGGGGGGGG1imFFhzFZ8   @ul#GGGGGGGGGGGG",
"GGGGGGGGGGG1imFS0NFFZ8    $XGGGGGGGGGGGG",
"GGGGGGGGGGG$iCFD0MFFFZ0@   XGGGGGGGGGGGG",
"GGGGGGGGGGG iFFBuVFFFFAn%  XGGGGGGGGGGGG",
"GGGGGGGGGGG$pFFjfFFFFFDVBp%XGGGGGGGGGGGG",
"GGGGGGGGGGGifFFjfFFFFFShNFn#GGGGGGGGGGGG",
"GGGGGGGGGGG>VFFjfFFFFFFmfDM#GGGGGGGGGGGG",
"GGGGGGGGGGG%BCZumFFFFFFFmSN#GGGGGGGGGGGG",
"GGGGGGGGGGG-0rd6ZFFFFFFDAzpXGGGGGGGGGGGG",
"GGGGGGGGGGGzABgvFFANNNMr>>8GGGGGGGGGGGGG",
"GGGGGGGGGGG9ssssss9@++o* %&GGGGGGGGGGGGG",
"GGGGGGGGGGGGGGGGGGG   GGOOGGGGGGGGGGGGGG",
"GGGGGGGGGGGGGGGGGGG .GGGGGGGGGGGGGGGGGGG"
};
