/* XPM */
static char *result[] = {
/* columns rows colors chars-per-pixel */
"40 40 62 1 ",
"  c black",
". c #010101",
"X c #040404",
"o c #090909",
"O c gray4",
"+ c #0C0C0C",
"@ c #101010",
"# c #151515",
"$ c gray9",
"% c #222222",
"& c #272727",
"* c gray19",
"= c #323232",
"- c #373737",
"; c gray22",
": c #3A3A3A",
"> c #3F3F3F",
", c gray27",
"< c #494949",
"1 c gray29",
"2 c #515151",
"3 c gray33",
"4 c #565656",
"5 c gray34",
"6 c gray35",
"7 c gray37",
"8 c gray38",
"9 c #646464",
"0 c gray40",
"q c gray43",
"w c gray45",
"e c #797979",
"r c #7C7C7C",
"t c #808080",
"y c #868686",
"u c #898989",
"i c #929292",
"p c #9A9A9A",
"a c #9B9B9B",
"s c gray63",
"d c gray66",
"f c gray69",
"g c #B7B7B7",
"h c #BBBBBB",
"j c #C1C1C1",
"k c gray77",
"l c #CACACA",
"z c #CECECE",
"x c gray82",
"c c #D5D5D5",
"v c gray85",
"b c #E1E1E1",
"n c gray90",
"m c #E9E9E9",
"M c gray93",
"N c gray94",
"B c #F3F3F3",
"V c gray97",
"C c gray98",
"Z c gray99",
"A c white",
"S c None",
/* pixels */
"SSSSSSSSSSSSSSSSSSSSSSSSSSSSSSSSSSSSSSSS",
"SSSSSSSSSSSSSSSSSSS>>>>-SSSSSSSSSSSSSSSS",
"SSSSSSSSSSSSSSSS-tsNNNBcy0SSSSSSSSSSSSSS",
"SSSSSSSSSSSSSS-uvAAAAAAAANh4SSSSSSSSSSSS",
"SSSSSSSSSSSSS6cAAAAAAAAAAAAVpSSSSSSSSSSS",
"SSSSSSSSSSSSSkAAAAAAAAAAAAAAZ0SSSSSSSSSS",
"SSSSSSSSSSSSuBAAAAAAAAAAAAAAAl1SSSSSSSSS",
"SSSSSSSSSSS:MAAAAAAAAAAAAAAAAAaSSSSSSSSS",
"SSSSSSSSSSS0VAAAAAAAAAAAAAAAAAgSSSSSSSSS",
"SSSSSS  SSSgAAAAAAAAAmqaAAACueM4SSSSSSSS",
"SSSSSSS SSSgAAAAAAAAAZszAAAAjfC4SSSSSSSS",
"SSSSSSSS SSgAAAAAAAAAAAAAAAAAAC4SSSSSSSS",
"SSSSSSSS  SgAAAAAAAAAAAAAAAAAAV3SSSSSSSS",
"SSSSSSSSS  3VAAAAAAAAAAAAAAAAAfSSSSSSSSS",
"SSSSSSSSS  &mAAAAAAAAAAAAAAAAAiSSSSSSSSS",
"SSSSSSSSSS  uAAAAAAAAAAAAAAAAhSSSSSSSSSS",
"SSSSSSSSS  &elAAAAAAAAAAAAAAB0SSSSSSSSSS",
"SSSSSSSSS+4at=kAAAAAAAAAAAABuSSSSSSSSSSS",
"SSSSSSSSSSi2o $9kAAAAAAAAna=SSSSSSSSSSSS",
"SSSSSSSSSS-@   %ewibbbnkwe9*SSSSSSSSSSSS",
"SSSSSSSSSSS .  orjd8888ehvz#SSSSSSSSSSSS",
"SSSSSSSSSSSS5%  oubNMMMBAAxOSSSSSSSSSSSS",
"SSSSSSSSSSSSr4q@  &lAAAAAAxOSSSSSSSSSSSS",
"SSSSSSSSSSSS5iAs@  &lAAAAAx+SSSSSSSSSSSS",
"SSSSSSSSSSSSOxAA,   %eNAAAz#SSSSSSSSSSSS",
"SSSSSSSSSSSSOxAA21@   4hAAz#SSSSSSSSSSSS",
"SSSSSSSSSSSS%vAmqvl7   @sAz#SSSSSSSSSSSS",
"SSSSSSSSSSSSrAAsiAAB7   @ed#SSSSSSSSSSSS",
"SSSSSSSSSSS rAAaiAAAN7    $XSSSSSSSSSSSS",
"SSSSSSSSSSS uAAsiAAAAN8@   XSSSSSSSSSSSS",
"SSSSSSSSSSS;nAVygAAAAACk&  XSSSSSSSSSSSS",
"SSSSSSSSSSS>NAb8NAAAAAmNcy&XSSSSSSSSSSSS",
"SSSSSSSSSSS>NAb8MAAAAAjtcja#SSSSSSSSSSSS",
"SSSSSSSSSSS=VAb8MAAAAAAhtfqXSSSSSSSSSSSS",
"SSSSSSSSSSS*vMsaCAAAAAAAlNx#SSSSSSSSSSSS",
"SSSSSSSSSSSe9w1jAAAAAAAZVdtXSSSSSSSSSSSS",
"SSSSSSSSSSSgCvsNAAVxxxzt1  SSSSSSSSSSSSS",
"SSSSSSSSSSS8yyyyyy9ooOO<%  SSSSSSSSSSSSS",
"SSSSSSSSSSSSSSSSSSS  SSSS  SSSSSSSSSSSSS",
"SSSSSSSSSSSSSSSSSSSSSSSSS  XSSSSSSSSSSSS"
};
