/* XPM */
static char *result[] = {
/* columns rows colors chars-per-pixel */
"40 40 70 1 ",
"  c black",
". c #010101",
"X c #040404",
"o c #060606",
"O c #090909",
"+ c #0C0C0C",
"@ c gray6",
"# c gray7",
"$ c #151515",
"% c #202020",
"& c #232323",
"* c #252525",
"= c gray17",
"- c gray18",
"; c gray20",
": c gray21",
"> c #373737",
", c #3A3A3A",
"< c #3F3F3F",
"1 c #444444",
"2 c gray29",
"3 c #505050",
"4 c #555555",
"5 c #565656",
"6 c gray34",
"7 c gray35",
"8 c gray36",
"9 c gray37",
"0 c #606060",
"q c gray39",
"w c #676767",
"e c #686868",
"r c gray42",
"t c #717171",
"y c gray47",
"u c #797979",
"i c #7C7C7C",
"p c #808080",
"a c #818181",
"s c #868686",
"d c #888888",
"f c #898989",
"g c #929292",
"h c #989898",
"j c #9A9A9A",
"k c #9D9D9D",
"l c gray64",
"z c #A7A7A7",
"x c gray69",
"c c #B7B7B7",
"v c #BBBBBB",
"b c #C1C1C1",
"n c #C8C8C8",
"m c gray80",
"M c gray81",
"N c gray82",
"B c #D5D5D5",
"V c gray85",
"C c #DDDDDD",
"Z c #E2E2E2",
"A c gray91",
"S c #EEEEEE",
"D c #F1F1F1",
"F c gray96",
"G c gray97",
"H c #F9F9F9",
"J c gray99",
"K c #FEFEFE",
"L c white",
"P c None",
/* pixels */
"PPPPPPPPPPPPPPPPPPPPPPPPPPPPPPPPPPPPPPPP",
"PPPPPPPPPPPPPPPPPPP<<<<>PPPPPPPPPPPPPPPP",
"PPPPPPPPPPPPPPPP>plDDDDBsePPPPPPPPPPPPPP",
"PPPPPPPPPPPPPP>fVLLLLLLLLDv8PPPPPPPPPPPP",
"PPPPPPPPPPPPP7BLLLLLLLLLLLLGjPPPPPPPPPPP",
"PPPPPPPPPPPPPbLLLLLLLLLLLLLLJwPPPPPPPPPP",
"PPPPPPPPPPPPdFLLLLLLLLLLLLLLLn2PPPPPPPPP",
"PPPPPPPPPPP,SLLLLLLLLLLLLLLLLLhPPPPPPPPP",
"PPPPPPPPPPPeFLLLLLLLLLLLLLLLLLcPPPPPPPPP",
"PPPPPP  PPPcLLLLLLLLLAthLLLJfiS4PPPPPPPP",
"PPPPPPPXPPPcLLLLLLLLLJlMLLLLbxJ4PPPPPPPP",
"PPPPPPPP PPcLLLLLLLLLLLLLLLLLLJ4PPPPPPPP",
"PPPPPPPPX PcLLLLLLLLLLLLLLLLLLG4PPPPPPPP",
"PPPPPPPPP X4FLLLLLLLLLLLLLLLLLxPPPPPPPPP",
"PPPPPPPPP  *ALLLLLLLLLLLLLLLLLgPPPPPPPPP",
"PPPPPPPPPP  fLLLLLLLLLLLLLLLLvPPPPPPPPPP",
"PPPPPPPPPO =umLLLLLLLLLLLLLLF8PPPPPPPPPP",
"PPPPPPPPPX5ka:nKLLLLLLLLLLLDdPPPPPPPPPPP",
"PPPPPPPPPPg3O $qnKLLLLLLLAk=XPPPPPPPPPPP",
"PPPPPPPPPP>$   *utgZZZZbtuq:%PPPPPPPPPPP",
"PPPPPPPPPPP    Oibzqqq0ivVM1-PPPPPPPPPPP",
"PPPPPPPPPPPP6*  OfCSSSSDLLNoPPPPPPPPPPPP",
"PPPPPPPPPPPPy5t@  =mLLLLLLN+PPPPPPPPPPPP",
"PPPPPPPPPPPPyuKl@  *nLLLLLNoPPPPPPPPPPPP",
"PPPPPPPPPPPPraJL5   *uDLLLM#PPPPPPPPPPPP",
"PPPPPPPPPPPP+nLLb=@   5vLLmPPPPPPPPPPPPP",
"PPPPPPPPPPPP+NLLMwb9   @lLMPPPPPPPPPPPPP",
"PPPPPPPPPPPPoNLLhkLD9   @uzPPPPPPPPPPPPP",
"PPPPPPPPPPPP=MLJqNLLD9    $.PPPPPPPPPPPP",
"PPPPPPPPPPP#iSLKwMLLLD0@   .PPPPPPPPPPPP",
"PPPPPPPPPPP iLLBuZLLLLGb*  .PPPPPPPPPPPP",
"PPPPPPPPPPP iLLkgLLLLLLVtw*.PPPPPPPPPPPP",
"PPPPPPPPPPP aLLkgLLLLLLJvDbPPPPPPPPPPPPP",
"PPPPPPPPPPP;CLLkgLLLLLLLLL9.PPPPPPPPPPPP",
"PPPPPPPPPPP=VSFunLLLLLLLLL1.PPPPPPPPPPPP",
"PPPPPPPPPPP:0tf5DLLLLLLLFz=.PPPPPPPPPPPP",
"PPPPPPPPPPPxHVhvLLFNNNm919&PPPPPPPPPPPPP",
"PPPPPPPPPPP0ssssssq++OO oOPPPPPPPPPPPPPP",
"PPPPPPPPPPPPPPPPPPPPP  o PPPPPPPPPPPPPPP",
"PPPPPPPPPPPPPPPPPPPPPPPX PPPPPPPPPPPPPPP"
};
