/* XPM */
static char *result[] = {
/* columns rows colors chars-per-pixel */
"40 40 70 1 ",
"  c black",
". c #010101",
"X c #040404",
"o c #060606",
"O c #090909",
"+ c gray4",
"@ c gray6",
"# c #131313",
"$ c #1B1B1B",
"% c gray14",
"& c #2A2A2A",
"* c #2C2C2C",
"= c gray18",
"- c #323232",
"; c gray21",
": c #373737",
"> c gray22",
", c gray24",
"< c #434343",
"1 c #444444",
"2 c gray29",
"3 c gray30",
"4 c #505050",
"5 c gray32",
"6 c #565656",
"7 c #585858",
"8 c gray35",
"9 c #5A5A5A",
"0 c #5F5F5F",
"q c gray39",
"w c gray40",
"e c #676767",
"r c #686868",
"t c DimGray",
"y c #6F6F6F",
"u c gray45",
"i c #777777",
"p c gray47",
"a c gray48",
"s c #7E7E7E",
"d c #868686",
"f c gray54",
"g c #939393",
"h c #9B9B9B",
"j c #9F9F9F",
"k c gray63",
"l c #A5A5A5",
"z c #A7A7A7",
"x c #AEAEAE",
"c c gray72",
"v c #BBBBBB",
"b c gray74",
"n c #C0C0C0",
"m c gray76",
"M c gray79",
"N c gray80",
"B c gray81",
"V c #D2D2D2",
"C c #D8D8D8",
"Z c #DDDDDD",
"A c gray89",
"S c #E4E4E4",
"D c gray93",
"F c gray95",
"G c #F6F6F6",
"H c #F9F9F9",
"J c #FDFDFD",
"K c #FEFEFE",
"L c white",
"P c None",
/* pixels */
"PPPPPPPPPPPPPPPPPPPPPPPPPPPPPPPPPPPPPPPP",
"PPPPPPPPPPPPPPPPP1rcccck<;PPPPPPPPPPPPPP",
"PPPPPPPPPPPPPPP4hDGLLLLLFMiPPPPPPPPPPPPP",
"PPPPPPPPPPPPPPkSLLLLLLLLLLHNtPPPPPPPPPPP",
"PPPPPPPPPPPPPkLLLLLLLLLLLLLLA4PPPPPPPPPP",
"PPPPPPPPPPPP4SLLLLLLLLLLLLLLLhPPPPPPPPPP",
"PPPPPPPPPPP-VLLLLLLLLLLLLLLLLJdPPPPPPPPP",
"PPPPPPPPPPP<FLLLLLLLLLLLLLLLLLlPPPPPPPPP",
"PPPPPP .PPPlLLLLLLLLLFcMLLLJmbA4PPPPPPPP",
"PPPPPP  PPPcLLLLLLLLLFqjLLLKfuG6PPPPPPPP",
"PPPPPPP  PPcLLLLLLLLLLGJLLLLHHJ6PPPPPPPP",
"PPPPPPPP.PPcLLLLLLLLLLLLLLLLLLJ6PPPPPPPP",
"PPPPPPPP   dHLLLLLLLLLLLLLLLLLN,PPPPPPPP",
"PPPPPPPPP  =GLLLLLLLLLLLLLLLLLjPPPPPPPPP",
"PPPPPPPPP  @jJLLLLLLLLLLLLLLLSwPPPPPPPPP",
"PPPPPPPPPPXO:CLLLLLLLLLLLLLLLiPPPPPPPPPP",
"PPPPPPPPP.$agyFLLLLLLLLLLLLLvPPPPPPPPPPP",
"PPPPPPPPP$js: 5xGLLLLLLLLKZsPPPPPPPPPPPP",
"PPPPPPPPPP6%   %uxNLLLLDcg3 oPPPPPPPPPPP",
"PPPPPPPPPPP    $zdpuuuuupzc:*PPPPPPPPPPP",
"PPPPPPPPPPP     dLDbbbbBJLB0*PPPPPPPPPPP",
"PPPPPPPPPPPP8%  OdALLLLLLLB%PPPPPPPPPPPP",
"PPPPPPPPPPPPa7y@  &MLLLLLLV+PPPPPPPPPPPP",
"PPPPPPPPPPPPppKj@  %MLLLLLV+PPPPPPPPPPPP",
"PPPPPPPPPPP;axLL5   %aFLLLV+PPPPPPPPPPPP",
"PPPPPPPPPPP1sBLLm&@   7bLLV+PPPPPPPPPPPP",
"PPPPPPPPPPP1sNLLBen0   @jLBoPPPPPPPPPPPP",
"PPPPPPPPPPP1sNLLMyJF0   @pzPPPPPPPPPPPPP",
"PPPPPPPPPPP*sZLJpnLLF0    $PPPPPPPPPPPPP",
"PPPPPPPPPPP9dLLHeVLLKF0@   PPPPPPPPPPPPP",
"PPPPPPPPPPPdgLLHeVLLLLHn%  PPPPPPPPPPPPP",
"PPPPPPPPPPPdfLLJeVLLLLLZue%PPPPPPPPPPPPP",
"PPPPPPPPPPP7mLLHeVLLLLLJbFM#PPPPPPPPPPPP",
"PPPPPPPPPPP&HLLxfHLLLLLLLLN#PPPPPPPPPPPP",
"PPPPPPPPPPP:CAJjgLLLLLLLLLC-PPPPPPPPPPPP",
"PPPPPPPPPPrbe0fqgLLLLLLJFzh2PPPPPPPPPPPP",
"PPPPPPPPPPyLFFcgZLGVVVNs0O oPPPPPPPPPPPP",
"PPPPPPPPPP>dddddddqOO++22X PPPPPPPPPPPPP",
"PPPPPPPPPPPPPPPPPP   PPPPP PPPPPPPPPPPPP",
"PPPPPPPPPPPPPPPPPP. PPPPPP PPPPPPPPPPPPP"
};
