/* XPM */
static char *e11910ffe02540fcd66f87f3ae58b903kXASfc2DgpXHGYV4[] = {
/* columns rows colors chars-per-pixel */
"96 96 3 1 ",
"  c None",
". c black",
"X c white",
/* pixels */
"...................................XXX...XXX...XXX...XXX...XXX..................................",
"..XXXXXXXXXXXXXXXXXXXXXXXXXXXX...X.XXX.X.XXX.X.XXX.X.XXX.X.XXX.X.XXXXXXXXXXXXXXXXXXXXXXXXXXXXXX.",
".X.XXXXXXXXXXXXXXXXXXXXXXXXXX.X....XXX...XXX...XXX...XXX...XXX...XXXXXXXXXXXXXXXXXXXXXXXXXXXXXX.",
".XX.XXXXXXXXXXXXXXXXXXXXXXXX.XX.XXX...XXX...XXX...XXX...XXX...XX.XXXXXXXXXXXXXXXXXXXXXXXXXXXXXX.",
".XXX.XXXXXXXXXXXXXXXXXXXXXX.XXX.XXX.X.XXX.X.XXX.X.XXX.X.XXX.X.XX.XXXXXXXXXXXXXXXXXXXXXXXXXXXXXX.",
".XXXX.XXXXXXXXXXXXXXXXXXXX.XXXX.XXX...XXX...XXX...XXX...XXX...XX.XXXXXXXXXXXXXXXXXXXXXXXXXXXXXX.",
".XXXXX.XXXXXXXXXXXXXXXXXX.XXXXX....XXX...XXX...XXX...XXX...XXX...XXXXXXXXXXXXXXXXXXXXXXXXXXXXXX.",
".XXXXXX.XXXXXXXXXXXXXXXX.XXXXXX..X.XXX.X.XXX.X.XXX.X.XXX.X.XXX.X.XXXXXXXXXXXXXXXXXXXXXXXXXXXXXX.",
".XXXXXXX.XXXXXXXXXXXXXX.XXXXXXX....XXX...XXX...XXX...XXX...XXX...XXXXXXXXXXXXXXXXXXXXXXXXXXXXXX.",
".XXXXXXXX.XXXXXXXXXXXX.XXXXXXXX.XXX...XXX...XXX...XXX...XXX...XX................................",
".XXXXXXXXX.XXXXXXXXXX.XXXXXXXXX.XXX.X.XXX.X.XXX.X.XXX.X.XXX.X.XX.XXXXXXXXXXXXXXXXXXXXXXXXXXXXXX.",
".XXXXXXXXXX.XXXXXXXX.XXXXXXXXXX.XXX...XXX...XXX...XXX...XXX...XX.XXX.XXXXXXXXXXXX.XXXXXXXXXXXXX.",
".XXXXXXXXXXX.XXXXXX.XXXXXXXXXXX....XXX...XXX...XXX...XXX...XXX...XX...XXXXXXXXXX...XXXXXXXX.XXX.",
".XXXXXXXXXXXX.XXXX.XXXXXXXXXXXX..X.XXX.X.XXX.X.XXX.X.XXX.X.XXX.X.XXX.XXXXXXXXXXXX.XXXXXXXX...XX.",
".XXXXXXXXXXXXX.XX.XXXXXXXXXXXXX....XXX...XXX...XXX...XXX...XXX...XXXXXXXXXXXXXXXXXXXXXXXXXX.XXX.",
".XXXXXXXXXXXXXX..XXXXXXXXXXXXXX.XXX...XXX...XXX...XXX...XXX...XX.XXXXXXXXXXXXXXXXXXXXXXXXXXXXXX.",
".XXXXXXXXXXXXXX..XXXXXXXXXXXXXX.XXX.X.XXX.X.XXX.X.XXX.X.XXX.X.XX.XXXXXXXXX.XXXXXXXXXXXXXXXXXXXX.",
".XXXXXXXXXXXXX.XX.XXXXXXXXXXXXX.XXX...XXX...XXX...XXX...XXX...XX.XXXXXXXX...XXXXXXXXXXXXXXXXXXX.",
".XXXXXXXXXXXX.XXXX.XXXXXXXXXXXX....XXX...XXX...XXX...XXX...XXX...XXXXXXXXX.XXXXXXXXXXXXXXXXXXXX.",
".XXXXXXXXXXX.XXXXXX.XXXXXXXXXXX..X.XXX.X.XXX.X.XXX.X.XXX.X.XXX.X.XXXXXXXXXXXXXXXXXXX.XXXXXXXXXX.",
".XXXXXXXXXX.XXXXXXXX.XXXXXXXXXX....XXX...XXX...XXX...XXX...XXX...XXXXXXXXXXXXXXXXXX...XXXXXX.XX.",
".XXXXXXXXX.XXXXXXXXXX.XXXXXXXXX.XXX...XXX...XXX...XXX...XXX...XX.XXXXXXXXXXXXXXXXXXX.XXXXXX...X.",
".XXXXXXXX.XXXXXXXXXXXX.XXXXXXXX.XXX.X.XXX.X.XXX.X.XXX.X.XXX.X.XX.XXXXXXXXXXXXXXXXXXXXXXXXXXX.XX.",
".XXXXXXX.XXXXXXXXXXXXXX.XXXXXXX.XXX...XXX...XXX...XXX...XXX...XX.XXXXXXXXXXXXXXXXXXXXXXXXXXXXXX.",
".XXXXXX.XXXXXXXXXXXXXXXX.XXXXXX....XXX...XXX...XXX...XXX...XXX...XX.XXXXXXXXXXXXXXXXXXXXXXXXXXX.",
".XXXXX.XXXXXXXXXXXXXXXXXX.XXXXX..X.XXX.X.XXX.X.XXX.X.XXX.X.XXX.X.X...XXXXXXXXXXXXXXXXXXXXXXXXXX.",
".XXXX.XXXXXXXXXXXXXXXXXXXX.XXXX....XXX...XXX...XXX...XXX...XXX...XX.XXXXXXXXXXXXXXXXXXXXXXXXXXX.",
".XXX.XXXXXXXXXXXXXXXXXXXXXX.XXX.XXX...XXX...XXX...XXX...XXX...XX.XXXXXXXXXXXX.XXXXXXXXXXXXX.XXX.",
".XX.XXXXXXXXXXXXXXXXXXXXXXXX.XX.XXX.X.XXX.X.XXX.X.XXX.X.XXX.X.XX.XXXXXXXXXXX...XXXXXXXXXXX...XX.",
".X.XXXXXXXXXXXXXXXXXXXXXXXXXX.X.XXX...XXX...XXX...XXX...XXX...XX.XXXXXXXXXXXX.XXXXXXXXXXXXX.XXX.",
"..XXXXXXXXXXXXXXXXXXXXXXXXXXXX.....XXX...XXX...XXX...XXX...XXX...XXXXXXXXXXXXXXXXXXXXXXXXXXXXXX.",
".................................X.XXX.X.XXX.X.XXX.X.XXX.X.XXX.X................................",
"................................             ...                                                ",
".XXXXXXXXXXXXXXXXXXXXXXXXX.XXXX.            .XXX.                                               ",
".XX.XXXXXXXXXXXXXXXXXXXXX...XXX.           .XXXXX.                                              ",
".X...XXXXXXXXXXXXXXXXXXXXX.XXXX.          .XXXXXXX.                                             ",
".XX.XXXXXXXXXXXXX.XXXXXXXXXXXXX.          .XXXXXXX.                                             ",
".XXXXXXXXXXXXXXX...XXXXXXXXXXXX.         .XX.XXXXXX.                                            ",
".XXXXXXX.XXXXXXXX.XXXXXXXXXXXXX.         .XXXXXXXXX.                                            ",
".XXXXXX...XXXXXXXXXXXXXXXXXXXXX.         .XXXXXXXXX.                                            ",
".XXXXXXX.XXXXXXXXXXXXXXXXXXXXXX.         .XXXXXXXXX.                                            ",
".XXXXXXXXXXXXXXXXXXXXXXXXXXXXXX.        .XXXXX.XXXXX.                                           ",
".XXXXXXXXXXXXXXXXXXXXXXXXXXXXXX.        .XXXXXXXXXXX.                        .......            ",
".XXXXXXXXXXXXXXXXXXXXXXXXXXXXXX.        .XXXXXXXXXXX.                      ..XXXXXXX..          ",
".XXXXXXXXXXXXXXXXXXX.XXXXXXXXXX.        .XXXXXXXXXXX.                     .XXXXXXXXXXX.         ",
".XXX.XXXXXXXXXXXXXX...XXXXXXXXX.        .XXXXXXXX.XX.                    .XXXXXX.XXXXXX.        ",
".XX...XXXXXXXXXXXXXX.XXXXXXXXXX.        .XXXXXXXXXXX.                   .XX.XXXXXXXXX.XX.       ",
".XXX.XXXXXXXXXXXXXXXXXXXXXXXXXX.        .XXXXXXXXXXX.                   .XXXXXXXXXXXXXXX.       ",
".XXXXXXXXXXXXXXXXXXXXXXXXXXX.XX.        .XXXXXXXXXXX.                  .XXXXXXXXXX.XXXXXX.      ",
".XXXXXXXXXXXXXXXXXXXXXXXXXX...X.        .XX.XXXXXXXX.                  .XXXXX.XXXXXXXXXXX.      ",
".XXXXXXXXXXXXXXXXXXXXXXXXXXX.XX.        .XXXXXXXXXXX.                  .XXXXXXXXXXXXXXXXX.      ",
".XXXXXXXX.XXXXXXXXXXXXXXXXXXXXX.        .XXXXXXXXXXX.                  .XXXXXXXXXXXXXX.XX.      ",
".XXXXXXX...XXXXXXXXXXXXXXXXXXXX.         .XXX.XXXXX.                   .XX.XXXXXXXXXXXXXX.      ",
".XXXXXXXX.XXXXXXXXXXXXXXXXXXXXX.         .XXXXXXXXX.                   .XXXXXXXXXXX.XXXXX.      ",
".XXXXXXXXXXXXXXXXXXXXXXXXXXXXXX.         .XXXXXX.XX.                    .XXXXXXXXXXXXXXX.       ",
".XXXXXXXXXXXXXXXXXXXXXXXXXXXXXX.         .XXXXXXXXX.                    .XXXXXX.XXXXXXXX.       ",
".XXXXXXXXXXXXXX.XXXXXXXXXXXXXXX.          .XXXXXXX.                      .XXXXXXXXXX.XX.        ",
".XXXXXXXXXXXXX...XXXXXXXXXXXXXX.          .XXXXXXX.                       .XXXXXXXXXXX.         ",
".XXXXXXXXXXXXXX.XXXXXXXXX.XXXXX.           .XXXXX.                         ..XXXXXXX..          ",
".XX.XXXXXXXXXXXXXXXXXXXX...XXXX.            .XXX.                            .......            ",
".X...XXXXXXXXXXXXXXXXXXXX.XXXXX.             ...                               .X.              ",
".XX.XXXXXXXXXXXXXXXXXXXXXXXXXXX.             .X.                               .X.              ",
".XXXXXXXXXXXXXXXXXXXXXXXXXXXXXX.             .X.                               .X.              ",
"................................             ...                               ...              ",
"                                                                                                ",
"                                                                                                ",
"                                                                                                ",
"                                                                                                ",
"                                                                                                ",
"                                                                                                ",
"                                                                                                ",
"                                                                                                ",
"                                                                                                ",
"................................                                                                ",
".XXXXXXXXXXXXXXXXXXXXXXXXXXXXXX.                                                                ",
".X...X...X...XX...X.X.X...XXXXX.                                                                ",
".XXXXXXXXXXXXXXXXXXXXXXXXXXXXXX.  ............................    ............................  ",
".XXXXXXXXXXXXXXXXXXXXXXXXXXXXXX. .XXXXXXXXXXXXXXXXXXXXXXXXXXXX.  .XXXXXXXXXXXXXXXXXXXXXXXXXXXX. ",
".X.XX...X.X...X...XX.X.X.X...XX..XXXXXXXXXXXX......XXXXXXXXXXXX..XXXXXXXXXXXXX....XXXXXXXXXXXXX.",
".XXXXXXXXXXXXXXXXXXXXXXXXXXXXXX..XXXXXXXXXXXX......XXXXXXXXXXXX..XXXXXXXXXXXX......XXXXXXXXXXXX.",
".XXXXXXXXXXXXXXXXXXXXXXXXXXXXXX..XXXXXXXXXXXX......XXXXXXXXXXXX..XXXXXXXXXXXX..XX..XXXXXXXXXXXX.",
".X...X...X...X...X...XXXXXXXXXX..XXXXXXXXXXXX......XXXXXXXXXXXX..XXXXXXXXXXXXXXXX..XXXXXXXXXXXX.",
".XXXXXXXXXXXXXXXXXXXXXXXXXXXXXX..XXXXXXXXXXXX......XXXXXXXXXXXX..XXXXXXXXXXXXXXXX..XXXXXXXXXXXX.",
".XXXXXXXXXXXXXXXXXXXXXXXXXXXXXX..XXXXXXXXXXXX......XXXXXXXXXXXX..XXXXXXXXXXXXXXXX..XXXXXXXXXXXX.",
".X.X.X.X.X.XXXXXXXXXXXXXXXXXXXX..XXXXXXXXXXXX......XXXXXXXXXXXX..XXXXXXXXXXXXXXXX..XXXXXXXXXXXX.",
".XXXXXXXXXXXXXXXXXXXXXXXXXXXXXX..XXXXXXXXXXXXX....XXXXXXXXXXXXX..XXXXXXXXXXXXXXX...XXXXXXXXXXXX.",
".................................XXXXXXXXXXXXX....XXXXXXXXXXXXX..XXXXXXXXXXXXXX...XXXXXXXXXXXXX.",
"              .X.               .XXXXXXXXXXXXXX..XXXXXXXXXXXXXX..XXXXXXXXXXXXXX..XXXXXXXXXXXXXX.",
"              .X.               .XXXXXXXXXXXXXXXXXXXXXXXXXXXXXX..XXXXXXXXXXXXXXXXXXXXXXXXXXXXXX.",
"              .X.               .XXXXXXXXXXXXXX..XXXXXXXXXXXXXX..XXXXXXXXXXXXXX..XXXXXXXXXXXXXX.",
"              .X.               .XXXXXXXXXXXXX....XXXXXXXXXXXXX..XXXXXXXXXXXXX....XXXXXXXXXXXXX.",
"              .X.               .XXXXXXXXXXXXX....XXXXXXXXXXXXX..XXXXXXXXXXXXX....XXXXXXXXXXXXX.",
"              .X.                .XXXXXXXXXXXXX..XXXXXXXXXXXXX.  .XXXXXXXXXXXXX..XXXXXXXXXXXXX. ",
"              .X.                 ............XXXX............    ............XXXX............  ",
"              .X.                             .XX.                            .XX.              ",
"              ...                              ..                              ..               "
};
