/* XPM */
static char *result[] = {
/* columns rows colors chars-per-pixel */
"40 40 54 1 ",
"  c black",
". c #040404",
"X c #060606",
"o c #090909",
"O c gray4",
"+ c #0C0C0C",
"@ c gray5",
"# c gray6",
"$ c gray9",
"% c #191919",
"& c #232323",
"* c gray15",
"= c #353535",
"- c gray25",
"; c #494949",
": c #4C4C4C",
"> c gray31",
", c gray35",
"< c gray39",
"1 c gray44",
"2 c #727272",
"3 c gray49",
"4 c gray50",
"5 c #818181",
"6 c gray55",
"7 c #989898",
"8 c #9B9B9B",
"9 c #A5A5A5",
"0 c #A9A9A9",
"q c #AAAAAA",
"w c #B2B2B2",
"e c gray70",
"r c gray71",
"t c #BCBCBC",
"y c gray75",
"u c #C1C1C1",
"i c gray79",
"p c gray83",
"a c #D8D8D8",
"s c gray88",
"d c #E4E4E4",
"f c #E7E7E7",
"g c #EAEAEA",
"h c gray92",
"j c gray95",
"k c #F3F3F3",
"l c #F4F4F4",
"z c #F6F6F6",
"x c #F8F8F8",
"c c #F9F9F9",
"v c #FBFBFB",
"b c #FDFDFD",
"n c #FEFEFE",
"m c white",
/* pixels */
" o@@@@@@@@@@@@@@@@@@@@@@@@@@@@@@@@@@@@o ",
"o3eeeeeeeeeeeeeeeeeeeeeeeeeeeeeeeeeeee3o",
"@emmmmmmmmmmmmmmmmmmmmmmmmmmmmmmmmmmmmw@",
"@emmmmmmmmmmmmmmmmmmmmmmmmmmmmmmmmmmmmw@",
"@emmmmmmmmmmmmmmmmmmmmmmmmmmmmmmmmmmmmw@",
"@emmmmmmmmmmmmmmmmmmmmmmmmmmmmmmmmmmmmw@",
"@emmmmmmmmmmmmmmmmmmmmmmmmmmmmmmmmmmmmw@",
"@emmmmmmmmmmmmmmmmmmmmmmmmmmmmmmmmmmmmw@",
"@emmmmmmmmmmmmmmmmmmmmmmmmmmmmmmmmmmmmw@",
"@emmmmmmmmmmmmmmmmmmmmmmmmmmmmmmmmmmmmw@",
"+qjjjjjjjjjjjjjjjjjjjjjjjjjjjjjjjjjjjj0+",
".=::::::::::::::::::::::::::::::::::::=.",
"X,444444444444444444444444444444444444,X",
"@emmkufmmmmmmmmmmmmmviammmmmmmmmmmmmmmw@",
"@emkt=8hmmmmmmmmmmmcp;2dbmmmmmmmmkscmmw@",
"@emu=O&7mmmmmmmmmmms>#%1lmmmmmmmxr>pvmw@",
"@emf8&3ammmmmmmmmmmkr=,ivmmmmmmm9=#;imw@",
"@emmh7ammmmmmmmmmmmmx9ymmmmmmmmmy,%2amw@",
"@emmmmmmmmmmmmmmmmmmmmmmmmmmmmmmmi1dmmw@",
"@emmmmmmmmmmhdbmmmmmmmmmmmmmmmmmmvlbmmw@",
"@emmmmmmmmnz6<gbmmmmmmmmmmmmmmmmmmmmmmw@",
"@emmmmmmmmz5*$<dmmmmmmmmmmmmmmmmmmmmmmw@",
"@emmmmmmmmx9-*6hmmmmmmmmmmmmmmmmmmmmmmw@",
"@emmmmmmmmmm95zmmmmmmmmmkufmmmmmmmmmmmw@",
"@emmmmmmmmmmxznmmmmmmmmkt=8hmmmmmmcskmw@",
"@emmmmmmmmmmmmmmmmmmmmmu=O&7mmmmmvp>rxw@",
"@emmmmmmmmmmmmmmmmmmmmmf8&3ammmmmi;#=9w@",
"@emmmmmmmmmmmmmmmmmmmmmmh7ammmmmma2%,yw@",
"@emmmmmmmmmmmmmmmmmmmmmmmmmmmmmmmmd1imw@",
"@emkscmmmmmmmmmmmmmmmmmmmmmmmmmmmmblvmw@",
"@exr>pvmmmmmmmmmmmmmmmmmmmmmmmmmmmmmmmw@",
"@e9=#;immmmmmmmmmmmmmmmmmmmmmmmmmmmmmmw@",
"@ey,%2ammmmmmmmmmmmmmmmmmmmmmmmmmmmmmmw@",
"@emi1dmmmmmmmmmviammmmmmmmmmmmmmmfukmmw@",
"@emvlbmmmmmmmmcp;2dbmmmmmmmmmmmmh8=tkmw@",
"@emmmmmmmmmmmms>#%1lmmmmmmmmmmmm7&O=umw@",
"@emmmmmmmmmmmmkr=,ivmmmmmmmmmmmma3&8fmw@",
"@emmmmmmmmmmmmmx9ymmmmmmmmmmmmmmma7hmmw@",
"o3wwwwwwwwwwwwwwwwwwwwwwwwwwwwwwwwwwww3o",
" o@@@@@@@@@@@@@@@@@@@@@@@@@@@@@@@@@@@@o "
};
