/* XPM */
static char *result[] = {
/* columns rows colors chars-per-pixel */
"40 40 50 1 ",
"  c black",
". c #040404",
"X c #060606",
"o c #090909",
"O c gray4",
"+ c #0C0C0C",
"@ c gray5",
"# c gray6",
"$ c gray9",
"% c #191919",
"& c #232323",
"* c gray15",
"= c #353535",
"- c gray25",
"; c #494949",
": c gray31",
"> c gray35",
", c gray39",
"< c gray44",
"1 c #727272",
"2 c gray49",
"3 c #818181",
"4 c gray55",
"5 c #989898",
"6 c #9B9B9B",
"7 c #A5A5A5",
"8 c #AAAAAA",
"9 c #B2B2B2",
"0 c gray70",
"q c gray71",
"w c #BCBCBC",
"e c gray75",
"r c #C1C1C1",
"t c gray79",
"y c gray83",
"u c #D8D8D8",
"i c gray88",
"p c #E4E4E4",
"a c #E7E7E7",
"s c #EAEAEA",
"d c gray92",
"f c #F3F3F3",
"g c #F4F4F4",
"h c #F6F6F6",
"j c #F8F8F8",
"k c #F9F9F9",
"l c #FBFBFB",
"z c #FDFDFD",
"x c #FEFEFE",
"c c white",
/* pixels */
" o@@@@@@@@@@@@@@@@@@@@@@@@@@@@@@X.+@@@o ",
"o2000000000000000000000000000000>=80002o",
"@0cu5dccccccccccccccccccccccccj7-*4dcc9@",
"@0u2&6accccccccccccccccccccccch3*$,pcc9@",
"@05&O=rccccccccccccczpdcccccccxh4,szcc9@",
"@0d6=wfcccccccccccczs,4hxcccccccdpzccc9@",
"@0carfcccccccccccccp,$*3hccccccccccccc9@",
"@0cccccccd5ucccccccd4*-7jccccccccccccc9@",
"@0cccccca6&2uccccccch37ccccccccccccccc9@",
"@0ccccccr=O&5cccccccxhjccccccccccccccc9@",
"@0ccccccfw=6dccccccccccccccccccccccccc9@",
"@0cccccccfracccccccccccccccccccccccccc9@",
"@0cccccccccccccccccccccccccccccccccccc9@",
"@0cccccccccccccccccccccccccccccccccccc9@",
"@0cccccccccccccccccccccckifccccccccccc9@",
"@0cczglccccccccccccccccly:qjcccccccccc9@",
"@0ccp<tcccccccccccccccct;#=7cccccccccc9@",
"@0cu1%>ecccccccccccccccu1%>ecccccccccc9@",
"@0ct;#=7ccccccccccccccccp<tccccccccccc9@",
"@0cly:qjcccccccccccccccczglccccccckifc9@",
"@0cckifccccccccccccccccccccccccccly:qj9@",
"@0ccccccccccccccccccccccccccccccct;#=79@",
"@0cccccccccccccccccccccccccccccccu1%>e9@",
"@0ccccccccltucccccccccccccccccccccp<tc9@",
"@0cccccccky;1pzccccccccccccccccccczglc9@",
"@0ccccccci:#%<gccccccccccccccccccccccc9@",
"@0cccccccfq=>tlccccccccccccccccccccccc9@",
"@0ccccccccj7eccccccccccccccccccccccccc9@",
"@0cccccccccccccccccccccccccccccccccccc9@",
"@0ccccccccccccccccfikccccccccccccccccc9@",
"@0cccccccccccccccjq:ylcccccccccccccccc9@",
"@0ccccccccccccccc7=#;tcccccccccccccccc9@",
"@0ccccccccccccccce>%1uccccccccj7eccccc9@",
"@0carfcccccccccccct<pccccccccfq=>tlccc9@",
"@0d6=wfccccccccccclgzcccccccci:#%<gccc9@",
"@05&O=rccccccccccccccccccccccky;1pzccc9@",
"@0u2&6acccccccccccccccccccccccltuccccc9@",
"@0cu5dcccccccccccccccccccccccccccccccc9@",
"o29999999999999999999999999999999999992o",
" o@@@@@@@@@@@@@@@@@@@@@@@@@@@@@@@@@@@@o "
};
